{
.appVersion = "895";
DisplayStrings = (
"/oligon .",
/oligon//
);
copyright = "SIL OPEN FONT LICENSE Version 1.1";
date = "2017-03-04 05:06:27 +0000";
designer = "Trevor Bullock";
familyName = "KA New Stathis Chronos";
fontMaster = (
{
ascender = 800;
capHeight = 700;
descender = -200;
id = "9BB2825E-F4CA-4CB0-B613-915E456B2047";
visible = 1;
xHeight = 500;
},
{
ascender = 800;
capHeight = 700;
descender = -200;
id = "9FA5911A-8C42-40B9-931A-68EA4F42645A";
xHeight = 500;
}
);
glyphs = (
{
glyphname = B;
lastChange = "2019-02-20 02:24:53 +0000";
layers = (
{
layerId = "9BB2825E-F4CA-4CB0-B613-915E456B2047";
paths = (
{
closed = 1;
nodes = (
"-1045 475 OFFCURVE",
"-1059 495 OFFCURVE",
"-1071 533 CURVE SMOOTH",
"-1080 561 OFFCURVE",
"-1087 571 OFFCURVE",
"-1094 574 CURVE SMOOTH",
"-1101 577 OFFCURVE",
"-1102 583 OFFCURVE",
"-1102 591 CURVE SMOOTH",
"-1102 592 OFFCURVE",
"-1102 595 OFFCURVE",
"-1100 595 CURVE SMOOTH",
"-1099 595 OFFCURVE",
"-1015 596 OFFCURVE",
"-973 596 CURVE SMOOTH",
"-947 596 OFFCURVE",
"-790 596 OFFCURVE",
"-777 588 CURVE SMOOTH",
"-772 585 OFFCURVE",
"-762 578 OFFCURVE",
"-762 568 CURVE SMOOTH",
"-762 550 OFFCURVE",
"-808 556 OFFCURVE",
"-900 558 CURVE SMOOTH",
"-948 559 OFFCURVE",
"-981 560 OFFCURVE",
"-981 558 CURVE",
"-981 559 OFFCURVE",
"-954 468 OFFCURVE",
"-954 467 CURVE SMOOTH",
"-954 462 OFFCURVE",
"-965 460 OFFCURVE",
"-993 460 CURVE SMOOTH",
"-1021 460 OFFCURVE",
"-1026 462 OFFCURVE",
"-1029 464 CURVE SMOOTH"
);
},
{
closed = 1;
nodes = (
"-1262 547 LINE SMOOTH",
"-1278 552 OFFCURVE",
"-1292 559 OFFCURVE",
"-1294 563 CURVE SMOOTH",
"-1299 574 OFFCURVE",
"-1292 581 OFFCURVE",
"-1279 592 CURVE SMOOTH",
"-1269 601 OFFCURVE",
"-1270 603 OFFCURVE",
"-1258 603 CURVE SMOOTH",
"-1247 603 OFFCURVE",
"-1236 600 OFFCURVE",
"-1218 592 CURVE SMOOTH",
"-1202 585 OFFCURVE",
"-1200 585 OFFCURVE",
"-1196 580 CURVE SMOOTH",
"-1191 574 OFFCURVE",
"-1191 574 OFFCURVE",
"-1192 569 CURVE SMOOTH",
"-1194 558 OFFCURVE",
"-1216 540 OFFCURVE",
"-1224 538 CURVE SMOOTH",
"-1229 537 OFFCURVE",
"-1231 538 OFFCURVE",
"-1241 541 CURVE SMOOTH"
);
}
);
width = 0;
},
{
layerId = "9FA5911A-8C42-40B9-931A-68EA4F42645A";
paths = (
{
closed = 1;
nodes = (
"-1045 475 OFFCURVE",
"-1059 495 OFFCURVE",
"-1071 533 CURVE SMOOTH",
"-1080 561 OFFCURVE",
"-1087 571 OFFCURVE",
"-1094 574 CURVE SMOOTH",
"-1101 577 OFFCURVE",
"-1102 583 OFFCURVE",
"-1102 591 CURVE SMOOTH",
"-1102 592 OFFCURVE",
"-1102 595 OFFCURVE",
"-1100 595 CURVE SMOOTH",
"-1099 595 OFFCURVE",
"-1015 596 OFFCURVE",
"-973 596 CURVE SMOOTH",
"-947 596 OFFCURVE",
"-790 596 OFFCURVE",
"-777 588 CURVE SMOOTH",
"-772 585 OFFCURVE",
"-762 578 OFFCURVE",
"-762 568 CURVE SMOOTH",
"-762 550 OFFCURVE",
"-808 556 OFFCURVE",
"-900 558 CURVE SMOOTH",
"-948 559 OFFCURVE",
"-981 560 OFFCURVE",
"-981 558 CURVE",
"-981 559 OFFCURVE",
"-954 468 OFFCURVE",
"-954 467 CURVE SMOOTH",
"-954 462 OFFCURVE",
"-965 460 OFFCURVE",
"-993 460 CURVE SMOOTH",
"-1021 460 OFFCURVE",
"-1026 462 OFFCURVE",
"-1029 464 CURVE SMOOTH"
);
},
{
closed = 1;
nodes = (
"-1262 547 LINE SMOOTH",
"-1278 552 OFFCURVE",
"-1292 559 OFFCURVE",
"-1294 563 CURVE SMOOTH",
"-1299 574 OFFCURVE",
"-1292 581 OFFCURVE",
"-1279 592 CURVE SMOOTH",
"-1269 601 OFFCURVE",
"-1270 603 OFFCURVE",
"-1258 603 CURVE SMOOTH",
"-1247 603 OFFCURVE",
"-1236 600 OFFCURVE",
"-1218 592 CURVE SMOOTH",
"-1202 585 OFFCURVE",
"-1200 585 OFFCURVE",
"-1196 580 CURVE SMOOTH",
"-1191 574 OFFCURVE",
"-1191 574 OFFCURVE",
"-1192 569 CURVE SMOOTH",
"-1194 558 OFFCURVE",
"-1216 540 OFFCURVE",
"-1224 538 CURVE SMOOTH",
"-1229 537 OFFCURVE",
"-1231 538 OFFCURVE",
"-1241 541 CURVE SMOOTH"
);
}
);
width = 0;
}
);
unicode = 0042;
},
{
glyphname = C;
lastChange = "2019-02-20 02:24:53 +0000";
layers = (
{
layerId = "9BB2825E-F4CA-4CB0-B613-915E456B2047";
paths = (
{
closed = 1;
nodes = (
"-726 -256 OFFCURVE",
"-739 -234 OFFCURVE",
"-751 -196 CURVE SMOOTH",
"-760 -168 OFFCURVE",
"-767 -158 OFFCURVE",
"-774 -155 CURVE SMOOTH",
"-780 -151 OFFCURVE",
"-782 -146 OFFCURVE",
"-782 -138 CURVE SMOOTH",
"-782 -137 OFFCURVE",
"-782 -134 OFFCURVE",
"-780 -134 CURVE SMOOTH",
"-779 -134 OFFCURVE",
"-695 -133 OFFCURVE",
"-653 -133 CURVE SMOOTH",
"-627 -133 OFFCURVE",
"-470 -133 OFFCURVE",
"-457 -141 CURVE SMOOTH",
"-452 -144 OFFCURVE",
"-442 -151 OFFCURVE",
"-442 -161 CURVE SMOOTH",
"-442 -179 OFFCURVE",
"-488 -173 OFFCURVE",
"-580 -171 CURVE SMOOTH",
"-628 -170 OFFCURVE",
"-661 -169 OFFCURVE",
"-661 -171 CURVE",
"-661 -170 OFFCURVE",
"-634 -261 OFFCURVE",
"-634 -262 CURVE SMOOTH",
"-634 -267 OFFCURVE",
"-645 -269 OFFCURVE",
"-673 -269 CURVE SMOOTH",
"-701 -269 OFFCURVE",
"-706 -267 OFFCURVE",
"-709 -265 CURVE SMOOTH"
);
},
{
closed = 1;
nodes = (
"-943 -201 LINE SMOOTH",
"-959 -196 OFFCURVE",
"-973 -189 OFFCURVE",
"-975 -185 CURVE SMOOTH",
"-982 -175 OFFCURVE",
"-973 -167 OFFCURVE",
"-960 -156 CURVE SMOOTH",
"-950 -147 OFFCURVE",
"-951 -145 OFFCURVE",
"-939 -145 CURVE SMOOTH",
"-928 -145 OFFCURVE",
"-917 -148 OFFCURVE",
"-899 -156 CURVE SMOOTH",
"-883 -163 OFFCURVE",
"-881 -163 OFFCURVE",
"-877 -168 CURVE SMOOTH",
"-873 -174 OFFCURVE",
"-872 -174 OFFCURVE",
"-873 -179 CURVE SMOOTH",
"-874 -190 OFFCURVE",
"-897 -208 OFFCURVE",
"-905 -210 CURVE SMOOTH",
"-910 -211 OFFCURVE",
"-912 -210 OFFCURVE",
"-922 -207 CURVE SMOOTH"
);
}
);
width = 0;
},
{
layerId = "9FA5911A-8C42-40B9-931A-68EA4F42645A";
paths = (
{
closed = 1;
nodes = (
"-726 -256 OFFCURVE",
"-739 -234 OFFCURVE",
"-751 -196 CURVE SMOOTH",
"-760 -168 OFFCURVE",
"-767 -158 OFFCURVE",
"-774 -155 CURVE SMOOTH",
"-780 -151 OFFCURVE",
"-782 -146 OFFCURVE",
"-782 -138 CURVE SMOOTH",
"-782 -137 OFFCURVE",
"-782 -134 OFFCURVE",
"-780 -134 CURVE SMOOTH",
"-779 -134 OFFCURVE",
"-695 -133 OFFCURVE",
"-653 -133 CURVE SMOOTH",
"-627 -133 OFFCURVE",
"-470 -133 OFFCURVE",
"-457 -141 CURVE SMOOTH",
"-452 -144 OFFCURVE",
"-442 -151 OFFCURVE",
"-442 -161 CURVE SMOOTH",
"-442 -179 OFFCURVE",
"-488 -173 OFFCURVE",
"-580 -171 CURVE SMOOTH",
"-628 -170 OFFCURVE",
"-661 -169 OFFCURVE",
"-661 -171 CURVE",
"-661 -170 OFFCURVE",
"-634 -261 OFFCURVE",
"-634 -262 CURVE SMOOTH",
"-634 -267 OFFCURVE",
"-645 -269 OFFCURVE",
"-673 -269 CURVE SMOOTH",
"-701 -269 OFFCURVE",
"-706 -267 OFFCURVE",
"-709 -265 CURVE SMOOTH"
);
},
{
closed = 1;
nodes = (
"-943 -201 LINE SMOOTH",
"-959 -196 OFFCURVE",
"-973 -189 OFFCURVE",
"-975 -185 CURVE SMOOTH",
"-982 -175 OFFCURVE",
"-973 -167 OFFCURVE",
"-960 -156 CURVE SMOOTH",
"-950 -147 OFFCURVE",
"-951 -145 OFFCURVE",
"-939 -145 CURVE SMOOTH",
"-928 -145 OFFCURVE",
"-917 -148 OFFCURVE",
"-899 -156 CURVE SMOOTH",
"-883 -163 OFFCURVE",
"-881 -163 OFFCURVE",
"-877 -168 CURVE SMOOTH",
"-873 -174 OFFCURVE",
"-872 -174 OFFCURVE",
"-873 -179 CURVE SMOOTH",
"-874 -190 OFFCURVE",
"-897 -208 OFFCURVE",
"-905 -210 CURVE SMOOTH",
"-910 -211 OFFCURVE",
"-912 -210 OFFCURVE",
"-922 -207 CURVE SMOOTH"
);
}
);
width = 0;
}
);
unicode = 0043;
},
{
glyphname = M;
lastChange = "2019-02-20 02:24:53 +0000";
layers = (
{
layerId = "9BB2825E-F4CA-4CB0-B613-915E456B2047";
paths = (
{
closed = 1;
nodes = (
"-466 484 OFFCURVE",
"-479 506 OFFCURVE",
"-491 544 CURVE SMOOTH",
"-500 572 OFFCURVE",
"-507 582 OFFCURVE",
"-514 585 CURVE SMOOTH",
"-520 589 OFFCURVE",
"-522 594 OFFCURVE",
"-522 602 CURVE SMOOTH",
"-522 603 OFFCURVE",
"-522 606 OFFCURVE",
"-520 606 CURVE SMOOTH",
"-519 606 OFFCURVE",
"-435 607 OFFCURVE",
"-393 607 CURVE SMOOTH",
"-367 607 OFFCURVE",
"-210 607 OFFCURVE",
"-197 599 CURVE SMOOTH",
"-192 596 OFFCURVE",
"-182 589 OFFCURVE",
"-182 579 CURVE SMOOTH",
"-182 561 OFFCURVE",
"-228 567 OFFCURVE",
"-320 569 CURVE SMOOTH",
"-368 570 OFFCURVE",
"-401 571 OFFCURVE",
"-401 569 CURVE",
"-401 570 OFFCURVE",
"-374 479 OFFCURVE",
"-374 478 CURVE SMOOTH",
"-374 473 OFFCURVE",
"-385 471 OFFCURVE",
"-413 471 CURVE SMOOTH",
"-441 471 OFFCURVE",
"-446 473 OFFCURVE",
"-449 475 CURVE SMOOTH"
);
},
{
closed = 1;
nodes = (
"-713 547 LINE SMOOTH",
"-729 552 OFFCURVE",
"-743 559 OFFCURVE",
"-745 563 CURVE SMOOTH",
"-752 573 OFFCURVE",
"-743 581 OFFCURVE",
"-730 592 CURVE SMOOTH",
"-720 601 OFFCURVE",
"-721 603 OFFCURVE",
"-709 603 CURVE SMOOTH",
"-698 603 OFFCURVE",
"-687 600 OFFCURVE",
"-669 592 CURVE SMOOTH",
"-653 585 OFFCURVE",
"-651 585 OFFCURVE",
"-647 580 CURVE SMOOTH",
"-643 574 OFFCURVE",
"-642 574 OFFCURVE",
"-643 569 CURVE SMOOTH",
"-644 558 OFFCURVE",
"-667 540 OFFCURVE",
"-675 538 CURVE SMOOTH",
"-680 537 OFFCURVE",
"-682 538 OFFCURVE",
"-692 541 CURVE SMOOTH"
);
}
);
width = 0;
},
{
layerId = "9FA5911A-8C42-40B9-931A-68EA4F42645A";
paths = (
{
closed = 1;
nodes = (
"-466 484 OFFCURVE",
"-479 506 OFFCURVE",
"-491 544 CURVE SMOOTH",
"-500 572 OFFCURVE",
"-507 582 OFFCURVE",
"-514 585 CURVE SMOOTH",
"-520 589 OFFCURVE",
"-522 594 OFFCURVE",
"-522 602 CURVE SMOOTH",
"-522 603 OFFCURVE",
"-522 606 OFFCURVE",
"-520 606 CURVE SMOOTH",
"-519 606 OFFCURVE",
"-435 607 OFFCURVE",
"-393 607 CURVE SMOOTH",
"-367 607 OFFCURVE",
"-210 607 OFFCURVE",
"-197 599 CURVE SMOOTH",
"-192 596 OFFCURVE",
"-182 589 OFFCURVE",
"-182 579 CURVE SMOOTH",
"-182 561 OFFCURVE",
"-228 567 OFFCURVE",
"-320 569 CURVE SMOOTH",
"-368 570 OFFCURVE",
"-401 571 OFFCURVE",
"-401 569 CURVE",
"-401 570 OFFCURVE",
"-374 479 OFFCURVE",
"-374 478 CURVE SMOOTH",
"-374 473 OFFCURVE",
"-385 471 OFFCURVE",
"-413 471 CURVE SMOOTH",
"-441 471 OFFCURVE",
"-446 473 OFFCURVE",
"-449 475 CURVE SMOOTH"
);
},
{
closed = 1;
nodes = (
"-713 547 LINE SMOOTH",
"-729 552 OFFCURVE",
"-743 559 OFFCURVE",
"-745 563 CURVE SMOOTH",
"-752 573 OFFCURVE",
"-743 581 OFFCURVE",
"-730 592 CURVE SMOOTH",
"-720 601 OFFCURVE",
"-721 603 OFFCURVE",
"-709 603 CURVE SMOOTH",
"-698 603 OFFCURVE",
"-687 600 OFFCURVE",
"-669 592 CURVE SMOOTH",
"-653 585 OFFCURVE",
"-651 585 OFFCURVE",
"-647 580 CURVE SMOOTH",
"-643 574 OFFCURVE",
"-642 574 OFFCURVE",
"-643 569 CURVE SMOOTH",
"-644 558 OFFCURVE",
"-667 540 OFFCURVE",
"-675 538 CURVE SMOOTH",
"-680 537 OFFCURVE",
"-682 538 OFFCURVE",
"-692 541 CURVE SMOOTH"
);
}
);
width = 0;
}
);
unicode = 004D;
},
{
glyphname = N;
lastChange = "2019-02-20 02:24:53 +0000";
layers = (
{
layerId = "9BB2825E-F4CA-4CB0-B613-915E456B2047";
paths = (
{
closed = 1;
nodes = (
"-311 -340 OFFCURVE",
"-325 -316 OFFCURVE",
"-338 -276 CURVE",
"-348 -246 OFFCURVE",
"-354 -237 OFFCURVE",
"-362 -233 CURVE",
"-369 -229 OFFCURVE",
"-372 -223 OFFCURVE",
"-371 -214 CURVE",
"-370 -210 LINE",
"-234 -209 LINE",
"-78 -209 OFFCURVE",
"-47 -210 OFFCURVE",
"-31 -218 CURVE",
"-22 -223 OFFCURVE",
"-16 -229 OFFCURVE",
"-14 -239 CURVE",
"-13 -241 OFFCURVE",
"-14 -244 OFFCURVE",
"-18 -246 CURVE",
"-21 -250 OFFCURVE",
"-23 -251 OFFCURVE",
"-46 -251 CURVE",
"-60 -251 OFFCURVE",
"-111 -250 OFFCURVE",
"-158 -249 CURVE",
"-209 -248 OFFCURVE",
"-245 -248 OFFCURVE",
"-245 -249 CURVE",
"-245 -250 OFFCURVE",
"-238 -272 OFFCURVE",
"-230 -297 CURVE",
"-216 -345 LINE",
"-221 -348 LINE",
"-225 -352 OFFCURVE",
"-227 -352 OFFCURVE",
"-258 -353 CURVE",
"-286 -353 OFFCURVE",
"-291 -352 OFFCURVE",
"-295 -349 CURVE"
);
},
{
closed = 1;
nodes = (
"-523 -262 LINE SMOOTH",
"-539 -257 OFFCURVE",
"-553 -250 OFFCURVE",
"-555 -246 CURVE SMOOTH",
"-560 -235 OFFCURVE",
"-553 -228 OFFCURVE",
"-540 -217 CURVE SMOOTH",
"-530 -208 OFFCURVE",
"-531 -206 OFFCURVE",
"-519 -206 CURVE SMOOTH",
"-508 -206 OFFCURVE",
"-497 -209 OFFCURVE",
"-479 -217 CURVE SMOOTH",
"-463 -224 OFFCURVE",
"-461 -224 OFFCURVE",
"-457 -229 CURVE SMOOTH",
"-452 -235 OFFCURVE",
"-452 -235 OFFCURVE",
"-453 -240 CURVE SMOOTH",
"-455 -251 OFFCURVE",
"-477 -269 OFFCURVE",
"-485 -271 CURVE SMOOTH",
"-490 -272 OFFCURVE",
"-492 -271 OFFCURVE",
"-502 -268 CURVE SMOOTH"
);
}
);
width = 0;
},
{
layerId = "9FA5911A-8C42-40B9-931A-68EA4F42645A";
paths = (
{
closed = 1;
nodes = (
"-311 -340 OFFCURVE",
"-325 -316 OFFCURVE",
"-338 -276 CURVE",
"-348 -246 OFFCURVE",
"-354 -237 OFFCURVE",
"-362 -233 CURVE",
"-369 -229 OFFCURVE",
"-372 -223 OFFCURVE",
"-371 -214 CURVE",
"-370 -210 LINE",
"-234 -209 LINE",
"-78 -209 OFFCURVE",
"-47 -210 OFFCURVE",
"-31 -218 CURVE",
"-22 -223 OFFCURVE",
"-16 -229 OFFCURVE",
"-14 -239 CURVE",
"-13 -241 OFFCURVE",
"-14 -244 OFFCURVE",
"-18 -246 CURVE",
"-21 -250 OFFCURVE",
"-23 -251 OFFCURVE",
"-46 -251 CURVE",
"-60 -251 OFFCURVE",
"-111 -250 OFFCURVE",
"-158 -249 CURVE",
"-209 -248 OFFCURVE",
"-245 -248 OFFCURVE",
"-245 -249 CURVE",
"-245 -250 OFFCURVE",
"-238 -272 OFFCURVE",
"-230 -297 CURVE",
"-216 -345 LINE",
"-221 -348 LINE",
"-225 -352 OFFCURVE",
"-227 -352 OFFCURVE",
"-258 -353 CURVE",
"-286 -353 OFFCURVE",
"-291 -352 OFFCURVE",
"-295 -349 CURVE"
);
},
{
closed = 1;
nodes = (
"-523 -262 LINE SMOOTH",
"-539 -257 OFFCURVE",
"-553 -250 OFFCURVE",
"-555 -246 CURVE SMOOTH",
"-560 -235 OFFCURVE",
"-553 -228 OFFCURVE",
"-540 -217 CURVE SMOOTH",
"-530 -208 OFFCURVE",
"-531 -206 OFFCURVE",
"-519 -206 CURVE SMOOTH",
"-508 -206 OFFCURVE",
"-497 -209 OFFCURVE",
"-479 -217 CURVE SMOOTH",
"-463 -224 OFFCURVE",
"-461 -224 OFFCURVE",
"-457 -229 CURVE SMOOTH",
"-452 -235 OFFCURVE",
"-452 -235 OFFCURVE",
"-453 -240 CURVE SMOOTH",
"-455 -251 OFFCURVE",
"-477 -269 OFFCURVE",
"-485 -271 CURVE SMOOTH",
"-490 -272 OFFCURVE",
"-492 -271 OFFCURVE",
"-502 -268 CURVE SMOOTH"
);
}
);
width = 0;
}
);
unicode = 004E;
},
{
glyphname = V;
lastChange = "2019-02-20 02:24:53 +0000";
layers = (
{
layerId = "9BB2825E-F4CA-4CB0-B613-915E456B2047";
paths = (
{
closed = 1;
nodes = (
"-266 284 OFFCURVE",
"-279 306 OFFCURVE",
"-291 344 CURVE SMOOTH",
"-300 372 OFFCURVE",
"-307 382 OFFCURVE",
"-314 385 CURVE SMOOTH",
"-320 389 OFFCURVE",
"-322 394 OFFCURVE",
"-322 402 CURVE SMOOTH",
"-322 403 OFFCURVE",
"-322 406 OFFCURVE",
"-320 406 CURVE SMOOTH",
"-319 406 OFFCURVE",
"-235 407 OFFCURVE",
"-193 407 CURVE SMOOTH",
"-167 407 OFFCURVE",
"-10 407 OFFCURVE",
"3 399 CURVE SMOOTH",
"8 396 OFFCURVE",
"18 389 OFFCURVE",
"18 379 CURVE SMOOTH",
"18 361 OFFCURVE",
"-28 367 OFFCURVE",
"-120 369 CURVE SMOOTH",
"-168 370 OFFCURVE",
"-201 371 OFFCURVE",
"-201 369 CURVE",
"-201 370 OFFCURVE",
"-174 279 OFFCURVE",
"-174 278 CURVE SMOOTH",
"-174 273 OFFCURVE",
"-185 271 OFFCURVE",
"-213 271 CURVE SMOOTH",
"-241 271 OFFCURVE",
"-246 273 OFFCURVE",
"-249 275 CURVE SMOOTH"
);
},
{
closed = 1;
nodes = (
"-483 328 LINE SMOOTH",
"-499 333 OFFCURVE",
"-513 340 OFFCURVE",
"-515 344 CURVE SMOOTH",
"-522 354 OFFCURVE",
"-513 362 OFFCURVE",
"-500 373 CURVE SMOOTH",
"-490 382 OFFCURVE",
"-491 384 OFFCURVE",
"-479 384 CURVE SMOOTH",
"-468 384 OFFCURVE",
"-457 381 OFFCURVE",
"-439 373 CURVE SMOOTH",
"-423 366 OFFCURVE",
"-421 366 OFFCURVE",
"-417 361 CURVE SMOOTH",
"-413 355 OFFCURVE",
"-412 355 OFFCURVE",
"-413 350 CURVE SMOOTH",
"-414 339 OFFCURVE",
"-437 321 OFFCURVE",
"-445 319 CURVE SMOOTH",
"-450 318 OFFCURVE",
"-452 319 OFFCURVE",
"-462 322 CURVE SMOOTH"
);
}
);
width = 0;
},
{
layerId = "9FA5911A-8C42-40B9-931A-68EA4F42645A";
paths = (
{
closed = 1;
nodes = (
"-266 284 OFFCURVE",
"-279 306 OFFCURVE",
"-291 344 CURVE SMOOTH",
"-300 372 OFFCURVE",
"-307 382 OFFCURVE",
"-314 385 CURVE SMOOTH",
"-320 389 OFFCURVE",
"-322 394 OFFCURVE",
"-322 402 CURVE SMOOTH",
"-322 403 OFFCURVE",
"-322 406 OFFCURVE",
"-320 406 CURVE SMOOTH",
"-319 406 OFFCURVE",
"-235 407 OFFCURVE",
"-193 407 CURVE SMOOTH",
"-167 407 OFFCURVE",
"-10 407 OFFCURVE",
"3 399 CURVE SMOOTH",
"8 396 OFFCURVE",
"18 389 OFFCURVE",
"18 379 CURVE SMOOTH",
"18 361 OFFCURVE",
"-28 367 OFFCURVE",
"-120 369 CURVE SMOOTH",
"-168 370 OFFCURVE",
"-201 371 OFFCURVE",
"-201 369 CURVE",
"-201 370 OFFCURVE",
"-174 279 OFFCURVE",
"-174 278 CURVE SMOOTH",
"-174 273 OFFCURVE",
"-185 271 OFFCURVE",
"-213 271 CURVE SMOOTH",
"-241 271 OFFCURVE",
"-246 273 OFFCURVE",
"-249 275 CURVE SMOOTH"
);
},
{
closed = 1;
nodes = (
"-483 328 LINE SMOOTH",
"-499 333 OFFCURVE",
"-513 340 OFFCURVE",
"-515 344 CURVE SMOOTH",
"-522 354 OFFCURVE",
"-513 362 OFFCURVE",
"-500 373 CURVE SMOOTH",
"-490 382 OFFCURVE",
"-491 384 OFFCURVE",
"-479 384 CURVE SMOOTH",
"-468 384 OFFCURVE",
"-457 381 OFFCURVE",
"-439 373 CURVE SMOOTH",
"-423 366 OFFCURVE",
"-421 366 OFFCURVE",
"-417 361 CURVE SMOOTH",
"-413 355 OFFCURVE",
"-412 355 OFFCURVE",
"-413 350 CURVE SMOOTH",
"-414 339 OFFCURVE",
"-437 321 OFFCURVE",
"-445 319 CURVE SMOOTH",
"-450 318 OFFCURVE",
"-452 319 OFFCURVE",
"-462 322 CURVE SMOOTH"
);
}
);
width = 0;
}
);
unicode = 0056;
},
{
glyphname = X;
lastChange = "2019-02-20 02:24:53 +0000";
layers = (
{
layerId = "9BB2825E-F4CA-4CB0-B613-915E456B2047";
paths = (
{
closed = 1;
nodes = (
"-796 484 OFFCURVE",
"-809 506 OFFCURVE",
"-821 544 CURVE SMOOTH",
"-830 572 OFFCURVE",
"-837 582 OFFCURVE",
"-844 585 CURVE SMOOTH",
"-850 589 OFFCURVE",
"-852 594 OFFCURVE",
"-852 602 CURVE SMOOTH",
"-852 603 OFFCURVE",
"-852 606 OFFCURVE",
"-850 606 CURVE SMOOTH",
"-849 606 OFFCURVE",
"-765 607 OFFCURVE",
"-723 607 CURVE SMOOTH",
"-697 607 OFFCURVE",
"-540 607 OFFCURVE",
"-527 599 CURVE SMOOTH",
"-522 596 OFFCURVE",
"-512 589 OFFCURVE",
"-512 579 CURVE SMOOTH",
"-512 561 OFFCURVE",
"-558 567 OFFCURVE",
"-650 569 CURVE SMOOTH",
"-698 570 OFFCURVE",
"-731 571 OFFCURVE",
"-731 569 CURVE",
"-731 570 OFFCURVE",
"-704 479 OFFCURVE",
"-704 478 CURVE SMOOTH",
"-704 473 OFFCURVE",
"-715 471 OFFCURVE",
"-743 471 CURVE SMOOTH",
"-771 471 OFFCURVE",
"-776 473 OFFCURVE",
"-779 475 CURVE SMOOTH"
);
},
{
closed = 1;
nodes = (
"-1013 559 LINE SMOOTH",
"-1029 564 OFFCURVE",
"-1043 571 OFFCURVE",
"-1045 575 CURVE SMOOTH",
"-1052 585 OFFCURVE",
"-1043 593 OFFCURVE",
"-1030 604 CURVE SMOOTH",
"-1020 613 OFFCURVE",
"-1021 615 OFFCURVE",
"-1009 615 CURVE SMOOTH",
"-998 615 OFFCURVE",
"-987 612 OFFCURVE",
"-969 604 CURVE SMOOTH",
"-953 597 OFFCURVE",
"-951 597 OFFCURVE",
"-947 592 CURVE SMOOTH",
"-943 586 OFFCURVE",
"-942 586 OFFCURVE",
"-943 581 CURVE SMOOTH",
"-944 570 OFFCURVE",
"-967 552 OFFCURVE",
"-975 550 CURVE SMOOTH",
"-980 549 OFFCURVE",
"-982 550 OFFCURVE",
"-992 553 CURVE SMOOTH"
);
}
);
width = 0;
},
{
layerId = "9FA5911A-8C42-40B9-931A-68EA4F42645A";
paths = (
{
closed = 1;
nodes = (
"-796 484 OFFCURVE",
"-809 506 OFFCURVE",
"-821 544 CURVE SMOOTH",
"-830 572 OFFCURVE",
"-837 582 OFFCURVE",
"-844 585 CURVE SMOOTH",
"-850 589 OFFCURVE",
"-852 594 OFFCURVE",
"-852 602 CURVE SMOOTH",
"-852 603 OFFCURVE",
"-852 606 OFFCURVE",
"-850 606 CURVE SMOOTH",
"-849 606 OFFCURVE",
"-765 607 OFFCURVE",
"-723 607 CURVE SMOOTH",
"-697 607 OFFCURVE",
"-540 607 OFFCURVE",
"-527 599 CURVE SMOOTH",
"-522 596 OFFCURVE",
"-512 589 OFFCURVE",
"-512 579 CURVE SMOOTH",
"-512 561 OFFCURVE",
"-558 567 OFFCURVE",
"-650 569 CURVE SMOOTH",
"-698 570 OFFCURVE",
"-731 571 OFFCURVE",
"-731 569 CURVE",
"-731 570 OFFCURVE",
"-704 479 OFFCURVE",
"-704 478 CURVE SMOOTH",
"-704 473 OFFCURVE",
"-715 471 OFFCURVE",
"-743 471 CURVE SMOOTH",
"-771 471 OFFCURVE",
"-776 473 OFFCURVE",
"-779 475 CURVE SMOOTH"
);
},
{
closed = 1;
nodes = (
"-1013 559 LINE SMOOTH",
"-1029 564 OFFCURVE",
"-1043 571 OFFCURVE",
"-1045 575 CURVE SMOOTH",
"-1052 585 OFFCURVE",
"-1043 593 OFFCURVE",
"-1030 604 CURVE SMOOTH",
"-1020 613 OFFCURVE",
"-1021 615 OFFCURVE",
"-1009 615 CURVE SMOOTH",
"-998 615 OFFCURVE",
"-987 612 OFFCURVE",
"-969 604 CURVE SMOOTH",
"-953 597 OFFCURVE",
"-951 597 OFFCURVE",
"-947 592 CURVE SMOOTH",
"-943 586 OFFCURVE",
"-942 586 OFFCURVE",
"-943 581 CURVE SMOOTH",
"-944 570 OFFCURVE",
"-967 552 OFFCURVE",
"-975 550 CURVE SMOOTH",
"-980 549 OFFCURVE",
"-982 550 OFFCURVE",
"-992 553 CURVE SMOOTH"
);
}
);
width = 0;
}
);
unicode = 0058;
},
{
glyphname = Z;
lastChange = "2019-02-20 02:24:53 +0000";
layers = (
{
layerId = "9BB2825E-F4CA-4CB0-B613-915E456B2047";
paths = (
{
closed = 1;
nodes = (
"-727 244 OFFCURVE",
"-740 266 OFFCURVE",
"-752 304 CURVE SMOOTH",
"-761 332 OFFCURVE",
"-768 342 OFFCURVE",
"-775 345 CURVE SMOOTH",
"-781 349 OFFCURVE",
"-783 354 OFFCURVE",
"-783 362 CURVE SMOOTH",
"-783 363 OFFCURVE",
"-783 366 OFFCURVE",
"-781 366 CURVE SMOOTH",
"-780 366 OFFCURVE",
"-696 367 OFFCURVE",
"-654 367 CURVE SMOOTH",
"-628 367 OFFCURVE",
"-471 367 OFFCURVE",
"-458 359 CURVE SMOOTH",
"-453 356 OFFCURVE",
"-443 349 OFFCURVE",
"-443 339 CURVE SMOOTH",
"-443 321 OFFCURVE",
"-489 327 OFFCURVE",
"-581 329 CURVE SMOOTH",
"-629 330 OFFCURVE",
"-662 331 OFFCURVE",
"-662 329 CURVE",
"-662 330 OFFCURVE",
"-635 239 OFFCURVE",
"-635 238 CURVE SMOOTH",
"-635 233 OFFCURVE",
"-646 231 OFFCURVE",
"-674 231 CURVE SMOOTH",
"-702 231 OFFCURVE",
"-707 233 OFFCURVE",
"-710 235 CURVE SMOOTH"
);
},
{
closed = 1;
nodes = (
"-943 318 LINE SMOOTH",
"-959 323 OFFCURVE",
"-973 330 OFFCURVE",
"-975 334 CURVE SMOOTH",
"-982 344 OFFCURVE",
"-973 352 OFFCURVE",
"-960 363 CURVE SMOOTH",
"-950 372 OFFCURVE",
"-951 374 OFFCURVE",
"-939 374 CURVE SMOOTH",
"-928 374 OFFCURVE",
"-917 371 OFFCURVE",
"-899 363 CURVE SMOOTH",
"-883 356 OFFCURVE",
"-881 356 OFFCURVE",
"-877 351 CURVE SMOOTH",
"-873 345 OFFCURVE",
"-872 345 OFFCURVE",
"-873 340 CURVE SMOOTH",
"-874 329 OFFCURVE",
"-897 311 OFFCURVE",
"-905 309 CURVE SMOOTH",
"-910 308 OFFCURVE",
"-912 309 OFFCURVE",
"-922 312 CURVE SMOOTH"
);
}
);
width = 0;
},
{
layerId = "9FA5911A-8C42-40B9-931A-68EA4F42645A";
paths = (
{
closed = 1;
nodes = (
"-727 244 OFFCURVE",
"-740 266 OFFCURVE",
"-752 304 CURVE SMOOTH",
"-761 332 OFFCURVE",
"-768 342 OFFCURVE",
"-775 345 CURVE SMOOTH",
"-781 349 OFFCURVE",
"-783 354 OFFCURVE",
"-783 362 CURVE SMOOTH",
"-783 363 OFFCURVE",
"-783 366 OFFCURVE",
"-781 366 CURVE SMOOTH",
"-780 366 OFFCURVE",
"-696 367 OFFCURVE",
"-654 367 CURVE SMOOTH",
"-628 367 OFFCURVE",
"-471 367 OFFCURVE",
"-458 359 CURVE SMOOTH",
"-453 356 OFFCURVE",
"-443 349 OFFCURVE",
"-443 339 CURVE SMOOTH",
"-443 321 OFFCURVE",
"-489 327 OFFCURVE",
"-581 329 CURVE SMOOTH",
"-629 330 OFFCURVE",
"-662 331 OFFCURVE",
"-662 329 CURVE",
"-662 330 OFFCURVE",
"-635 239 OFFCURVE",
"-635 238 CURVE SMOOTH",
"-635 233 OFFCURVE",
"-646 231 OFFCURVE",
"-674 231 CURVE SMOOTH",
"-702 231 OFFCURVE",
"-707 233 OFFCURVE",
"-710 235 CURVE SMOOTH"
);
},
{
closed = 1;
nodes = (
"-943 318 LINE SMOOTH",
"-959 323 OFFCURVE",
"-973 330 OFFCURVE",
"-975 334 CURVE SMOOTH",
"-982 344 OFFCURVE",
"-973 352 OFFCURVE",
"-960 363 CURVE SMOOTH",
"-950 372 OFFCURVE",
"-951 374 OFFCURVE",
"-939 374 CURVE SMOOTH",
"-928 374 OFFCURVE",
"-917 371 OFFCURVE",
"-899 363 CURVE SMOOTH",
"-883 356 OFFCURVE",
"-881 356 OFFCURVE",
"-877 351 CURVE SMOOTH",
"-873 345 OFFCURVE",
"-872 345 OFFCURVE",
"-873 340 CURVE SMOOTH",
"-874 329 OFFCURVE",
"-897 311 OFFCURVE",
"-905 309 CURVE SMOOTH",
"-910 308 OFFCURVE",
"-912 309 OFFCURVE",
"-922 312 CURVE SMOOTH"
);
}
);
width = 0;
}
);
unicode = 005A;
},
{
glyphname = a;
lastChange = "2019-02-20 02:24:53 +0000";
layers = (
{
layerId = "9BB2825E-F4CA-4CB0-B613-915E456B2047";
paths = (
{
closed = 1;
nodes = (
"-725 254 OFFCURVE",
"-736 273 OFFCURVE",
"-747 305 CURVE SMOOTH",
"-756 335 OFFCURVE",
"-766 348 OFFCURVE",
"-774 348 CURVE SMOOTH",
"-775 348 OFFCURVE",
"-777 349 OFFCURVE",
"-778 351 CURVE SMOOTH",
"-780 355 OFFCURVE",
"-780 364 OFFCURVE",
"-777 367 CURVE SMOOTH",
"-774 370 OFFCURVE",
"-748 369 OFFCURVE",
"-661 369 CURVE SMOOTH",
"-623 369 OFFCURVE",
"-585 369 OFFCURVE",
"-547 369 CURVE",
"-548 373 OFFCURVE",
"-549 377 OFFCURVE",
"-551 380 CURVE SMOOTH",
"-558 397 OFFCURVE",
"-564 431 OFFCURVE",
"-582 438 CURVE SMOOTH",
"-587 440 OFFCURVE",
"-588 441 OFFCURVE",
"-588 446 CURVE SMOOTH",
"-588 453 OFFCURVE",
"-590 456 OFFCURVE",
"-586 459 CURVE SMOOTH",
"-583 460 OFFCURVE",
"-511 460 OFFCURVE",
"-473 460 CURVE SMOOTH",
"-359 460 OFFCURVE",
"-303 459 OFFCURVE",
"-282 454 CURVE SMOOTH",
"-261 449 OFFCURVE",
"-248 434 OFFCURVE",
"-258 424 CURVE SMOOTH",
"-261 421 OFFCURVE",
"-263 421 OFFCURVE",
"-290 421 CURVE SMOOTH",
"-305 421 OFFCURVE",
"-415 425 OFFCURVE",
"-437 425 CURVE SMOOTH",
"-448 425 OFFCURVE",
"-459 425 OFFCURVE",
"-470 425 CURVE",
"-470 425 OFFCURVE",
"-457 386 OFFCURVE",
"-455 380 CURVE SMOOTH",
"-451 366 OFFCURVE",
"-443 348 OFFCURVE",
"-443 339 CURVE SMOOTH",
"-443 335 OFFCURVE",
"-447 331 OFFCURVE",
"-450 329 CURVE SMOOTH",
"-452 328 OFFCURVE",
"-481 330 OFFCURVE",
"-496 330 CURVE SMOOTH",
"-599 332 OFFCURVE",
"-658 333 OFFCURVE",
"-658 332 CURVE",
"-646 292 LINE SMOOTH",
"-639 271 OFFCURVE",
"-632 251 OFFCURVE",
"-632 250 CURVE SMOOTH",
"-632 247 OFFCURVE",
"-632 246 OFFCURVE",
"-637 243 CURVE SMOOTH",
"-642 240 OFFCURVE",
"-645 240 OFFCURVE",
"-673 240 CURVE SMOOTH",
"-692 240 OFFCURVE",
"-698 238 OFFCURVE",
"-710 245 CURVE SMOOTH"
);
}
);
width = 0;
},
{
layerId = "9FA5911A-8C42-40B9-931A-68EA4F42645A";
paths = (
{
closed = 1;
nodes = (
"-725 254 OFFCURVE",
"-736 273 OFFCURVE",
"-747 305 CURVE SMOOTH",
"-756 335 OFFCURVE",
"-766 348 OFFCURVE",
"-774 348 CURVE SMOOTH",
"-775 348 OFFCURVE",
"-777 349 OFFCURVE",
"-778 351 CURVE SMOOTH",
"-780 355 OFFCURVE",
"-780 364 OFFCURVE",
"-777 367 CURVE SMOOTH",
"-774 370 OFFCURVE",
"-748 369 OFFCURVE",
"-661 369 CURVE SMOOTH",
"-623 369 OFFCURVE",
"-585 369 OFFCURVE",
"-547 369 CURVE",
"-548 373 OFFCURVE",
"-549 377 OFFCURVE",
"-551 380 CURVE SMOOTH",
"-558 397 OFFCURVE",
"-564 431 OFFCURVE",
"-582 438 CURVE SMOOTH",
"-587 440 OFFCURVE",
"-588 441 OFFCURVE",
"-588 446 CURVE SMOOTH",
"-588 453 OFFCURVE",
"-590 456 OFFCURVE",
"-586 459 CURVE SMOOTH",
"-583 460 OFFCURVE",
"-511 460 OFFCURVE",
"-473 460 CURVE SMOOTH",
"-359 460 OFFCURVE",
"-303 459 OFFCURVE",
"-282 454 CURVE SMOOTH",
"-261 449 OFFCURVE",
"-248 434 OFFCURVE",
"-258 424 CURVE SMOOTH",
"-261 421 OFFCURVE",
"-263 421 OFFCURVE",
"-290 421 CURVE SMOOTH",
"-305 421 OFFCURVE",
"-415 425 OFFCURVE",
"-437 425 CURVE SMOOTH",
"-448 425 OFFCURVE",
"-459 425 OFFCURVE",
"-470 425 CURVE",
"-470 425 OFFCURVE",
"-457 386 OFFCURVE",
"-455 380 CURVE SMOOTH",
"-451 366 OFFCURVE",
"-443 348 OFFCURVE",
"-443 339 CURVE SMOOTH",
"-443 335 OFFCURVE",
"-447 331 OFFCURVE",
"-450 329 CURVE SMOOTH",
"-452 328 OFFCURVE",
"-481 330 OFFCURVE",
"-496 330 CURVE SMOOTH",
"-599 332 OFFCURVE",
"-658 333 OFFCURVE",
"-658 332 CURVE",
"-646 292 LINE SMOOTH",
"-639 271 OFFCURVE",
"-632 251 OFFCURVE",
"-632 250 CURVE SMOOTH",
"-632 247 OFFCURVE",
"-632 246 OFFCURVE",
"-637 243 CURVE SMOOTH",
"-642 240 OFFCURVE",
"-645 240 OFFCURVE",
"-673 240 CURVE SMOOTH",
"-692 240 OFFCURVE",
"-698 238 OFFCURVE",
"-710 245 CURVE SMOOTH"
);
}
);
width = 0;
}
);
unicode = 0061;
},
{
glyphname = b;
lastChange = "2019-02-20 02:24:53 +0000";
layers = (
{
layerId = "9BB2825E-F4CA-4CB0-B613-915E456B2047";
paths = (
{
closed = 1;
nodes = (
"-1045 475 OFFCURVE",
"-1059 495 OFFCURVE",
"-1071 533 CURVE SMOOTH",
"-1080 561 OFFCURVE",
"-1087 571 OFFCURVE",
"-1094 574 CURVE SMOOTH",
"-1101 577 OFFCURVE",
"-1102 583 OFFCURVE",
"-1102 591 CURVE SMOOTH",
"-1102 592 OFFCURVE",
"-1102 595 OFFCURVE",
"-1100 595 CURVE SMOOTH",
"-1099 595 OFFCURVE",
"-1015 596 OFFCURVE",
"-973 596 CURVE SMOOTH",
"-947 596 OFFCURVE",
"-790 596 OFFCURVE",
"-777 588 CURVE SMOOTH",
"-772 585 OFFCURVE",
"-762 578 OFFCURVE",
"-762 568 CURVE SMOOTH",
"-762 550 OFFCURVE",
"-808 556 OFFCURVE",
"-900 558 CURVE SMOOTH",
"-948 559 OFFCURVE",
"-981 560 OFFCURVE",
"-981 558 CURVE",
"-981 559 OFFCURVE",
"-954 468 OFFCURVE",
"-954 467 CURVE SMOOTH",
"-954 462 OFFCURVE",
"-965 460 OFFCURVE",
"-993 460 CURVE SMOOTH",
"-1021 460 OFFCURVE",
"-1026 462 OFFCURVE",
"-1029 464 CURVE SMOOTH"
);
}
);
width = 0;
},
{
layerId = "9FA5911A-8C42-40B9-931A-68EA4F42645A";
paths = (
{
closed = 1;
nodes = (
"-1045 475 OFFCURVE",
"-1059 495 OFFCURVE",
"-1071 533 CURVE SMOOTH",
"-1080 561 OFFCURVE",
"-1087 571 OFFCURVE",
"-1094 574 CURVE SMOOTH",
"-1101 577 OFFCURVE",
"-1102 583 OFFCURVE",
"-1102 591 CURVE SMOOTH",
"-1102 592 OFFCURVE",
"-1102 595 OFFCURVE",
"-1100 595 CURVE SMOOTH",
"-1099 595 OFFCURVE",
"-1015 596 OFFCURVE",
"-973 596 CURVE SMOOTH",
"-947 596 OFFCURVE",
"-790 596 OFFCURVE",
"-777 588 CURVE SMOOTH",
"-772 585 OFFCURVE",
"-762 578 OFFCURVE",
"-762 568 CURVE SMOOTH",
"-762 550 OFFCURVE",
"-808 556 OFFCURVE",
"-900 558 CURVE SMOOTH",
"-948 559 OFFCURVE",
"-981 560 OFFCURVE",
"-981 558 CURVE",
"-981 559 OFFCURVE",
"-954 468 OFFCURVE",
"-954 467 CURVE SMOOTH",
"-954 462 OFFCURVE",
"-965 460 OFFCURVE",
"-993 460 CURVE SMOOTH",
"-1021 460 OFFCURVE",
"-1026 462 OFFCURVE",
"-1029 464 CURVE SMOOTH"
);
}
);
width = 0;
}
);
unicode = 0062;
},
{
glyphname = c;
lastChange = "2019-02-20 02:24:53 +0000";
layers = (
{
layerId = "9BB2825E-F4CA-4CB0-B613-915E456B2047";
paths = (
{
closed = 1;
nodes = (
"-726 -256 OFFCURVE",
"-739 -234 OFFCURVE",
"-751 -196 CURVE SMOOTH",
"-760 -168 OFFCURVE",
"-767 -158 OFFCURVE",
"-774 -155 CURVE SMOOTH",
"-780 -151 OFFCURVE",
"-782 -146 OFFCURVE",
"-782 -138 CURVE SMOOTH",
"-782 -137 OFFCURVE",
"-782 -134 OFFCURVE",
"-780 -134 CURVE SMOOTH",
"-779 -134 OFFCURVE",
"-695 -133 OFFCURVE",
"-653 -133 CURVE SMOOTH",
"-627 -133 OFFCURVE",
"-470 -133 OFFCURVE",
"-457 -141 CURVE SMOOTH",
"-452 -144 OFFCURVE",
"-442 -151 OFFCURVE",
"-442 -161 CURVE SMOOTH",
"-442 -179 OFFCURVE",
"-488 -173 OFFCURVE",
"-580 -171 CURVE SMOOTH",
"-628 -170 OFFCURVE",
"-661 -169 OFFCURVE",
"-661 -171 CURVE",
"-661 -170 OFFCURVE",
"-634 -261 OFFCURVE",
"-634 -262 CURVE SMOOTH",
"-634 -267 OFFCURVE",
"-645 -269 OFFCURVE",
"-673 -269 CURVE SMOOTH",
"-701 -269 OFFCURVE",
"-706 -267 OFFCURVE",
"-709 -265 CURVE SMOOTH"
);
}
);
width = 0;
},
{
layerId = "9FA5911A-8C42-40B9-931A-68EA4F42645A";
paths = (
{
closed = 1;
nodes = (
"-726 -256 OFFCURVE",
"-739 -234 OFFCURVE",
"-751 -196 CURVE SMOOTH",
"-760 -168 OFFCURVE",
"-767 -158 OFFCURVE",
"-774 -155 CURVE SMOOTH",
"-780 -151 OFFCURVE",
"-782 -146 OFFCURVE",
"-782 -138 CURVE SMOOTH",
"-782 -137 OFFCURVE",
"-782 -134 OFFCURVE",
"-780 -134 CURVE SMOOTH",
"-779 -134 OFFCURVE",
"-695 -133 OFFCURVE",
"-653 -133 CURVE SMOOTH",
"-627 -133 OFFCURVE",
"-470 -133 OFFCURVE",
"-457 -141 CURVE SMOOTH",
"-452 -144 OFFCURVE",
"-442 -151 OFFCURVE",
"-442 -161 CURVE SMOOTH",
"-442 -179 OFFCURVE",
"-488 -173 OFFCURVE",
"-580 -171 CURVE SMOOTH",
"-628 -170 OFFCURVE",
"-661 -169 OFFCURVE",
"-661 -171 CURVE",
"-661 -170 OFFCURVE",
"-634 -261 OFFCURVE",
"-634 -262 CURVE SMOOTH",
"-634 -267 OFFCURVE",
"-645 -269 OFFCURVE",
"-673 -269 CURVE SMOOTH",
"-701 -269 OFFCURVE",
"-706 -267 OFFCURVE",
"-709 -265 CURVE SMOOTH"
);
}
);
width = 0;
}
);
unicode = 0063;
},
{
glyphname = f;
lastChange = "2019-02-20 02:24:53 +0000";
layers = (
{
layerId = "9BB2825E-F4CA-4CB0-B613-915E456B2047";
paths = (
{
closed = 1;
nodes = (
"-263 289 OFFCURVE",
"-274 308 OFFCURVE",
"-285 340 CURVE SMOOTH",
"-294 370 OFFCURVE",
"-304 383 OFFCURVE",
"-312 383 CURVE SMOOTH",
"-313 383 OFFCURVE",
"-315 384 OFFCURVE",
"-316 386 CURVE SMOOTH",
"-318 390 OFFCURVE",
"-318 399 OFFCURVE",
"-315 402 CURVE SMOOTH",
"-312 405 OFFCURVE",
"-286 404 OFFCURVE",
"-199 404 CURVE SMOOTH",
"-161 404 OFFCURVE",
"-123 404 OFFCURVE",
"-85 404 CURVE",
"-86 408 OFFCURVE",
"-87 412 OFFCURVE",
"-89 415 CURVE SMOOTH",
"-96 432 OFFCURVE",
"-102 466 OFFCURVE",
"-120 473 CURVE SMOOTH",
"-125 475 OFFCURVE",
"-126 476 OFFCURVE",
"-126 481 CURVE SMOOTH",
"-126 488 OFFCURVE",
"-128 491 OFFCURVE",
"-124 494 CURVE SMOOTH",
"-121 495 OFFCURVE",
"-49 495 OFFCURVE",
"-11 495 CURVE SMOOTH",
"103 495 OFFCURVE",
"159 494 OFFCURVE",
"180 489 CURVE SMOOTH",
"201 484 OFFCURVE",
"214 469 OFFCURVE",
"204 459 CURVE SMOOTH",
"201 456 OFFCURVE",
"199 456 OFFCURVE",
"172 456 CURVE SMOOTH",
"157 456 OFFCURVE",
"47 460 OFFCURVE",
"25 460 CURVE SMOOTH",
"14 460 OFFCURVE",
"3 460 OFFCURVE",
"-8 460 CURVE",
"-8 460 OFFCURVE",
"5 421 OFFCURVE",
"7 415 CURVE SMOOTH",
"11 401 OFFCURVE",
"19 383 OFFCURVE",
"19 374 CURVE SMOOTH",
"19 370 OFFCURVE",
"15 366 OFFCURVE",
"12 364 CURVE SMOOTH",
"10 363 OFFCURVE",
"-19 365 OFFCURVE",
"-34 365 CURVE SMOOTH",
"-137 367 OFFCURVE",
"-196 368 OFFCURVE",
"-196 367 CURVE",
"-184 327 LINE SMOOTH",
"-177 306 OFFCURVE",
"-170 286 OFFCURVE",
"-170 285 CURVE SMOOTH",
"-170 282 OFFCURVE",
"-170 281 OFFCURVE",
"-175 278 CURVE SMOOTH",
"-180 275 OFFCURVE",
"-183 275 OFFCURVE",
"-211 275 CURVE SMOOTH",
"-230 275 OFFCURVE",
"-236 273 OFFCURVE",
"-248 280 CURVE SMOOTH"
);
}
);
width = 0;
},
{
layerId = "9FA5911A-8C42-40B9-931A-68EA4F42645A";
paths = (
{
closed = 1;
nodes = (
"-263 289 OFFCURVE",
"-274 308 OFFCURVE",
"-285 340 CURVE SMOOTH",
"-294 370 OFFCURVE",
"-304 383 OFFCURVE",
"-312 383 CURVE SMOOTH",
"-313 383 OFFCURVE",
"-315 384 OFFCURVE",
"-316 386 CURVE SMOOTH",
"-318 390 OFFCURVE",
"-318 399 OFFCURVE",
"-315 402 CURVE SMOOTH",
"-312 405 OFFCURVE",
"-286 404 OFFCURVE",
"-199 404 CURVE SMOOTH",
"-161 404 OFFCURVE",
"-123 404 OFFCURVE",
"-85 404 CURVE",
"-86 408 OFFCURVE",
"-87 412 OFFCURVE",
"-89 415 CURVE SMOOTH",
"-96 432 OFFCURVE",
"-102 466 OFFCURVE",
"-120 473 CURVE SMOOTH",
"-125 475 OFFCURVE",
"-126 476 OFFCURVE",
"-126 481 CURVE SMOOTH",
"-126 488 OFFCURVE",
"-128 491 OFFCURVE",
"-124 494 CURVE SMOOTH",
"-121 495 OFFCURVE",
"-49 495 OFFCURVE",
"-11 495 CURVE SMOOTH",
"103 495 OFFCURVE",
"159 494 OFFCURVE",
"180 489 CURVE SMOOTH",
"201 484 OFFCURVE",
"214 469 OFFCURVE",
"204 459 CURVE SMOOTH",
"201 456 OFFCURVE",
"199 456 OFFCURVE",
"172 456 CURVE SMOOTH",
"157 456 OFFCURVE",
"47 460 OFFCURVE",
"25 460 CURVE SMOOTH",
"14 460 OFFCURVE",
"3 460 OFFCURVE",
"-8 460 CURVE",
"-8 460 OFFCURVE",
"5 421 OFFCURVE",
"7 415 CURVE SMOOTH",
"11 401 OFFCURVE",
"19 383 OFFCURVE",
"19 374 CURVE SMOOTH",
"19 370 OFFCURVE",
"15 366 OFFCURVE",
"12 364 CURVE SMOOTH",
"10 363 OFFCURVE",
"-19 365 OFFCURVE",
"-34 365 CURVE SMOOTH",
"-137 367 OFFCURVE",
"-196 368 OFFCURVE",
"-196 367 CURVE",
"-184 327 LINE SMOOTH",
"-177 306 OFFCURVE",
"-170 286 OFFCURVE",
"-170 285 CURVE SMOOTH",
"-170 282 OFFCURVE",
"-170 281 OFFCURVE",
"-175 278 CURVE SMOOTH",
"-180 275 OFFCURVE",
"-183 275 OFFCURVE",
"-211 275 CURVE SMOOTH",
"-230 275 OFFCURVE",
"-236 273 OFFCURVE",
"-248 280 CURVE SMOOTH"
);
}
);
width = 0;
}
);
unicode = 0066;
},
{
glyphname = m;
lastChange = "2019-02-20 02:24:53 +0000";
layers = (
{
layerId = "9BB2825E-F4CA-4CB0-B613-915E456B2047";
paths = (
{
closed = 1;
nodes = (
"-466 484 OFFCURVE",
"-479 506 OFFCURVE",
"-491 544 CURVE SMOOTH",
"-500 572 OFFCURVE",
"-507 582 OFFCURVE",
"-514 585 CURVE SMOOTH",
"-520 589 OFFCURVE",
"-522 594 OFFCURVE",
"-522 602 CURVE SMOOTH",
"-522 603 OFFCURVE",
"-522 606 OFFCURVE",
"-520 606 CURVE SMOOTH",
"-519 606 OFFCURVE",
"-435 607 OFFCURVE",
"-393 607 CURVE SMOOTH",
"-367 607 OFFCURVE",
"-210 607 OFFCURVE",
"-197 599 CURVE SMOOTH",
"-192 596 OFFCURVE",
"-182 589 OFFCURVE",
"-182 579 CURVE SMOOTH",
"-182 561 OFFCURVE",
"-228 567 OFFCURVE",
"-320 569 CURVE SMOOTH",
"-368 570 OFFCURVE",
"-401 571 OFFCURVE",
"-401 569 CURVE",
"-401 570 OFFCURVE",
"-374 479 OFFCURVE",
"-374 478 CURVE SMOOTH",
"-374 473 OFFCURVE",
"-385 471 OFFCURVE",
"-413 471 CURVE SMOOTH",
"-441 471 OFFCURVE",
"-446 473 OFFCURVE",
"-449 475 CURVE SMOOTH"
);
}
);
width = 0;
},
{
layerId = "9FA5911A-8C42-40B9-931A-68EA4F42645A";
paths = (
{
closed = 1;
nodes = (
"-466 484 OFFCURVE",
"-479 506 OFFCURVE",
"-491 544 CURVE SMOOTH",
"-500 572 OFFCURVE",
"-507 582 OFFCURVE",
"-514 585 CURVE SMOOTH",
"-520 589 OFFCURVE",
"-522 594 OFFCURVE",
"-522 602 CURVE SMOOTH",
"-522 603 OFFCURVE",
"-522 606 OFFCURVE",
"-520 606 CURVE SMOOTH",
"-519 606 OFFCURVE",
"-435 607 OFFCURVE",
"-393 607 CURVE SMOOTH",
"-367 607 OFFCURVE",
"-210 607 OFFCURVE",
"-197 599 CURVE SMOOTH",
"-192 596 OFFCURVE",
"-182 589 OFFCURVE",
"-182 579 CURVE SMOOTH",
"-182 561 OFFCURVE",
"-228 567 OFFCURVE",
"-320 569 CURVE SMOOTH",
"-368 570 OFFCURVE",
"-401 571 OFFCURVE",
"-401 569 CURVE",
"-401 570 OFFCURVE",
"-374 479 OFFCURVE",
"-374 478 CURVE SMOOTH",
"-374 473 OFFCURVE",
"-385 471 OFFCURVE",
"-413 471 CURVE SMOOTH",
"-441 471 OFFCURVE",
"-446 473 OFFCURVE",
"-449 475 CURVE SMOOTH"
);
}
);
width = 0;
}
);
unicode = 006D;
},
{
glyphname = n;
lastChange = "2019-02-20 02:24:53 +0000";
layers = (
{
layerId = "9BB2825E-F4CA-4CB0-B613-915E456B2047";
paths = (
{
closed = 1;
nodes = (
"-306 -316 OFFCURVE",
"-319 -294 OFFCURVE",
"-331 -256 CURVE SMOOTH",
"-340 -228 OFFCURVE",
"-347 -218 OFFCURVE",
"-354 -215 CURVE SMOOTH",
"-360 -211 OFFCURVE",
"-362 -206 OFFCURVE",
"-362 -198 CURVE SMOOTH",
"-362 -197 OFFCURVE",
"-362 -194 OFFCURVE",
"-360 -194 CURVE SMOOTH",
"-359 -194 OFFCURVE",
"-275 -193 OFFCURVE",
"-233 -193 CURVE SMOOTH",
"-207 -193 OFFCURVE",
"-50 -193 OFFCURVE",
"-37 -201 CURVE SMOOTH",
"-32 -204 OFFCURVE",
"-22 -211 OFFCURVE",
"-22 -221 CURVE SMOOTH",
"-22 -239 OFFCURVE",
"-68 -233 OFFCURVE",
"-160 -231 CURVE SMOOTH",
"-208 -230 OFFCURVE",
"-241 -229 OFFCURVE",
"-241 -231 CURVE",
"-241 -230 OFFCURVE",
"-214 -321 OFFCURVE",
"-214 -322 CURVE SMOOTH",
"-214 -327 OFFCURVE",
"-225 -329 OFFCURVE",
"-253 -329 CURVE SMOOTH",
"-281 -329 OFFCURVE",
"-286 -327 OFFCURVE",
"-289 -325 CURVE SMOOTH"
);
}
);
width = 0;
},
{
layerId = "9FA5911A-8C42-40B9-931A-68EA4F42645A";
paths = (
{
closed = 1;
nodes = (
"-306 -316 OFFCURVE",
"-319 -294 OFFCURVE",
"-331 -256 CURVE SMOOTH",
"-340 -228 OFFCURVE",
"-347 -218 OFFCURVE",
"-354 -215 CURVE SMOOTH",
"-360 -211 OFFCURVE",
"-362 -206 OFFCURVE",
"-362 -198 CURVE SMOOTH",
"-362 -197 OFFCURVE",
"-362 -194 OFFCURVE",
"-360 -194 CURVE SMOOTH",
"-359 -194 OFFCURVE",
"-275 -193 OFFCURVE",
"-233 -193 CURVE SMOOTH",
"-207 -193 OFFCURVE",
"-50 -193 OFFCURVE",
"-37 -201 CURVE SMOOTH",
"-32 -204 OFFCURVE",
"-22 -211 OFFCURVE",
"-22 -221 CURVE SMOOTH",
"-22 -239 OFFCURVE",
"-68 -233 OFFCURVE",
"-160 -231 CURVE SMOOTH",
"-208 -230 OFFCURVE",
"-241 -229 OFFCURVE",
"-241 -231 CURVE",
"-241 -230 OFFCURVE",
"-214 -321 OFFCURVE",
"-214 -322 CURVE SMOOTH",
"-214 -327 OFFCURVE",
"-225 -329 OFFCURVE",
"-253 -329 CURVE SMOOTH",
"-281 -329 OFFCURVE",
"-286 -327 OFFCURVE",
"-289 -325 CURVE SMOOTH"
);
}
);
width = 0;
}
);
unicode = 006E;
},
{
glyphname = q;
lastChange = "2019-02-20 02:24:53 +0000";
layers = (
{
layerId = "9BB2825E-F4CA-4CB0-B613-915E456B2047";
paths = (
{
closed = 1;
nodes = (
"-727 242 OFFCURVE",
"-737 254 OFFCURVE",
"-745 266 CURVE",
"-749 273 OFFCURVE",
"-754 287 OFFCURVE",
"-759 299 CURVE",
"-765 311 OFFCURVE",
"-771 324 OFFCURVE",
"-772 328 CURVE",
"-777 335 OFFCURVE",
"-779 336 OFFCURVE",
"-790 341 CURVE",
"-791 341 OFFCURVE",
"-793 345 OFFCURVE",
"-794 348 CURVE",
"-795 355 OFFCURVE",
"-795 356 OFFCURVE",
"-793 357 CURVE",
"-791 359 OFFCURVE",
"-789 359 OFFCURVE",
"-668 359 CURVE SMOOTH",
"-544 359 LINE",
"-544 360 OFFCURVE",
"-547 366 OFFCURVE",
"-549 373 CURVE",
"-553 378 OFFCURVE",
"-557 388 OFFCURVE",
"-559 394 CURVE",
"-562 405 OFFCURVE",
"-569 418 OFFCURVE",
"-574 423 CURVE SMOOTH",
"-576 425 OFFCURVE",
"-581 428 OFFCURVE",
"-583 429 CURVE",
"-588 431 OFFCURVE",
"-589 431 OFFCURVE",
"-589 437 CURVE",
"-591 445 OFFCURVE",
"-591 446 OFFCURVE",
"-589 448 CURVE",
"-587 451 OFFCURVE",
"-583 451 OFFCURVE",
"-462 451 CURVE SMOOTH",
"-336 450 LINE",
"-340 458 LINE",
"-342 463 OFFCURVE",
"-347 473 OFFCURVE",
"-349 480 CURVE SMOOTH",
"-356 503 OFFCURVE",
"-366 517 OFFCURVE",
"-372 517 CURVE SMOOTH",
"-375 517 OFFCURVE",
"-377 520 OFFCURVE",
"-379 528 CURVE",
"-381 534 OFFCURVE",
"-381 535 OFFCURVE",
"-378 536 CURVE",
"-376 537 OFFCURVE",
"-350 537 OFFCURVE",
"-248 537 CURVE SMOOTH",
"-120 537 OFFCURVE",
"-81 536 OFFCURVE",
"-67 533 CURVE",
"-53 529 OFFCURVE",
"-44 521 OFFCURVE",
"-43 512 CURVE",
"-42 509 OFFCURVE",
"-43 508 OFFCURVE",
"-46 505 CURVE",
"-49 501 OFFCURVE",
"-49 501 OFFCURVE",
"-74 501 CURVE SMOOTH",
"-89 501 OFFCURVE",
"-136 502 OFFCURVE",
"-180 502 CURVE SMOOTH",
"-232 503 OFFCURVE",
"-258 503 OFFCURVE",
"-258 502 CURVE",
"-245 462 LINE SMOOTH",
"-238 440 OFFCURVE",
"-231 421 OFFCURVE",
"-232 419 CURVE",
"-232 418 OFFCURVE",
"-234 416 OFFCURVE",
"-236 415 CURVE",
"-238 413 OFFCURVE",
"-242 413 OFFCURVE",
"-265 413 CURVE SMOOTH",
"-278 413 OFFCURVE",
"-312 414 OFFCURVE",
"-337 415 CURVE SMOOTH",
"-387 416 OFFCURVE",
"-461 416 OFFCURVE",
"-461 415 CURVE",
"-448 375 LINE SMOOTH",
"-441 353 OFFCURVE",
"-434 334 OFFCURVE",
"-434 332 CURVE SMOOTH",
"-434 331 OFFCURVE",
"-436 328 OFFCURVE",
"-438 326 CURVE",
"-443 322 LINE",
"-497 323 LINE SMOOTH",
"-628 325 OFFCURVE",
"-666 325 OFFCURVE",
"-666 325 CURVE",
"-666 324 OFFCURVE",
"-647 270 OFFCURVE",
"-639 248 CURVE",
"-637 241 LINE",
"-643 238 LINE SMOOTH",
"-649 235 OFFCURVE",
"-650 235 OFFCURVE",
"-681 235 CURVE SMOOTH",
"-710 235 OFFCURVE",
"-712 235 OFFCURVE",
"-718 237 CURVE"
);
}
);
width = 0;
},
{
layerId = "9FA5911A-8C42-40B9-931A-68EA4F42645A";
paths = (
{
closed = 1;
nodes = (
"-727 242 OFFCURVE",
"-737 254 OFFCURVE",
"-745 266 CURVE",
"-749 273 OFFCURVE",
"-754 287 OFFCURVE",
"-759 299 CURVE",
"-765 311 OFFCURVE",
"-771 324 OFFCURVE",
"-772 328 CURVE",
"-777 335 OFFCURVE",
"-779 336 OFFCURVE",
"-790 341 CURVE",
"-791 341 OFFCURVE",
"-793 345 OFFCURVE",
"-794 348 CURVE",
"-795 355 OFFCURVE",
"-795 356 OFFCURVE",
"-793 357 CURVE",
"-791 359 OFFCURVE",
"-789 359 OFFCURVE",
"-668 359 CURVE SMOOTH",
"-544 359 LINE",
"-544 360 OFFCURVE",
"-547 366 OFFCURVE",
"-549 373 CURVE",
"-553 378 OFFCURVE",
"-557 388 OFFCURVE",
"-559 394 CURVE",
"-562 405 OFFCURVE",
"-569 418 OFFCURVE",
"-574 423 CURVE SMOOTH",
"-576 425 OFFCURVE",
"-581 428 OFFCURVE",
"-583 429 CURVE",
"-588 431 OFFCURVE",
"-589 431 OFFCURVE",
"-589 437 CURVE",
"-591 445 OFFCURVE",
"-591 446 OFFCURVE",
"-589 448 CURVE",
"-587 451 OFFCURVE",
"-583 451 OFFCURVE",
"-462 451 CURVE SMOOTH",
"-336 450 LINE",
"-340 458 LINE",
"-342 463 OFFCURVE",
"-347 473 OFFCURVE",
"-349 480 CURVE SMOOTH",
"-356 503 OFFCURVE",
"-366 517 OFFCURVE",
"-372 517 CURVE SMOOTH",
"-375 517 OFFCURVE",
"-377 520 OFFCURVE",
"-379 528 CURVE",
"-381 534 OFFCURVE",
"-381 535 OFFCURVE",
"-378 536 CURVE",
"-376 537 OFFCURVE",
"-350 537 OFFCURVE",
"-248 537 CURVE SMOOTH",
"-120 537 OFFCURVE",
"-81 536 OFFCURVE",
"-67 533 CURVE",
"-53 529 OFFCURVE",
"-44 521 OFFCURVE",
"-43 512 CURVE",
"-42 509 OFFCURVE",
"-43 508 OFFCURVE",
"-46 505 CURVE",
"-49 501 OFFCURVE",
"-49 501 OFFCURVE",
"-74 501 CURVE SMOOTH",
"-89 501 OFFCURVE",
"-136 502 OFFCURVE",
"-180 502 CURVE SMOOTH",
"-232 503 OFFCURVE",
"-258 503 OFFCURVE",
"-258 502 CURVE",
"-245 462 LINE SMOOTH",
"-238 440 OFFCURVE",
"-231 421 OFFCURVE",
"-232 419 CURVE",
"-232 418 OFFCURVE",
"-234 416 OFFCURVE",
"-236 415 CURVE",
"-238 413 OFFCURVE",
"-242 413 OFFCURVE",
"-265 413 CURVE SMOOTH",
"-278 413 OFFCURVE",
"-312 414 OFFCURVE",
"-337 415 CURVE SMOOTH",
"-387 416 OFFCURVE",
"-461 416 OFFCURVE",
"-461 415 CURVE",
"-448 375 LINE SMOOTH",
"-441 353 OFFCURVE",
"-434 334 OFFCURVE",
"-434 332 CURVE SMOOTH",
"-434 331 OFFCURVE",
"-436 328 OFFCURVE",
"-438 326 CURVE",
"-443 322 LINE",
"-497 323 LINE SMOOTH",
"-628 325 OFFCURVE",
"-666 325 OFFCURVE",
"-666 325 CURVE",
"-666 324 OFFCURVE",
"-647 270 OFFCURVE",
"-639 248 CURVE",
"-637 241 LINE",
"-643 238 LINE SMOOTH",
"-649 235 OFFCURVE",
"-650 235 OFFCURVE",
"-681 235 CURVE SMOOTH",
"-710 235 OFFCURVE",
"-712 235 OFFCURVE",
"-718 237 CURVE"
);
}
);
width = 0;
}
);
unicode = 0071;
},
{
glyphname = v;
lastChange = "2019-02-20 02:24:53 +0000";
layers = (
{
layerId = "9BB2825E-F4CA-4CB0-B613-915E456B2047";
paths = (
{
closed = 1;
nodes = (
"-266 284 OFFCURVE",
"-279 306 OFFCURVE",
"-291 344 CURVE SMOOTH",
"-300 372 OFFCURVE",
"-307 382 OFFCURVE",
"-314 385 CURVE SMOOTH",
"-320 389 OFFCURVE",
"-322 394 OFFCURVE",
"-322 402 CURVE SMOOTH",
"-322 403 OFFCURVE",
"-322 406 OFFCURVE",
"-320 406 CURVE SMOOTH",
"-319 406 OFFCURVE",
"-235 407 OFFCURVE",
"-193 407 CURVE SMOOTH",
"-167 407 OFFCURVE",
"-10 407 OFFCURVE",
"3 399 CURVE SMOOTH",
"8 396 OFFCURVE",
"18 389 OFFCURVE",
"18 379 CURVE SMOOTH",
"18 361 OFFCURVE",
"-28 367 OFFCURVE",
"-120 369 CURVE SMOOTH",
"-168 370 OFFCURVE",
"-201 371 OFFCURVE",
"-201 369 CURVE",
"-201 370 OFFCURVE",
"-174 279 OFFCURVE",
"-174 278 CURVE SMOOTH",
"-174 273 OFFCURVE",
"-185 271 OFFCURVE",
"-213 271 CURVE SMOOTH",
"-241 271 OFFCURVE",
"-246 273 OFFCURVE",
"-249 275 CURVE SMOOTH"
);
}
);
width = 0;
},
{
layerId = "9FA5911A-8C42-40B9-931A-68EA4F42645A";
paths = (
{
closed = 1;
nodes = (
"-266 284 OFFCURVE",
"-279 306 OFFCURVE",
"-291 344 CURVE SMOOTH",
"-300 372 OFFCURVE",
"-307 382 OFFCURVE",
"-314 385 CURVE SMOOTH",
"-320 389 OFFCURVE",
"-322 394 OFFCURVE",
"-322 402 CURVE SMOOTH",
"-322 403 OFFCURVE",
"-322 406 OFFCURVE",
"-320 406 CURVE SMOOTH",
"-319 406 OFFCURVE",
"-235 407 OFFCURVE",
"-193 407 CURVE SMOOTH",
"-167 407 OFFCURVE",
"-10 407 OFFCURVE",
"3 399 CURVE SMOOTH",
"8 396 OFFCURVE",
"18 389 OFFCURVE",
"18 379 CURVE SMOOTH",
"18 361 OFFCURVE",
"-28 367 OFFCURVE",
"-120 369 CURVE SMOOTH",
"-168 370 OFFCURVE",
"-201 371 OFFCURVE",
"-201 369 CURVE",
"-201 370 OFFCURVE",
"-174 279 OFFCURVE",
"-174 278 CURVE SMOOTH",
"-174 273 OFFCURVE",
"-185 271 OFFCURVE",
"-213 271 CURVE SMOOTH",
"-241 271 OFFCURVE",
"-246 273 OFFCURVE",
"-249 275 CURVE SMOOTH"
);
}
);
width = 0;
}
);
unicode = 0076;
},
{
glyphname = x;
lastChange = "2019-02-20 02:24:53 +0000";
layers = (
{
layerId = "9BB2825E-F4CA-4CB0-B613-915E456B2047";
paths = (
{
closed = 1;
nodes = (
"-796 484 OFFCURVE",
"-809 506 OFFCURVE",
"-821 544 CURVE SMOOTH",
"-830 572 OFFCURVE",
"-837 582 OFFCURVE",
"-844 585 CURVE SMOOTH",
"-850 589 OFFCURVE",
"-852 594 OFFCURVE",
"-852 602 CURVE SMOOTH",
"-852 603 OFFCURVE",
"-852 606 OFFCURVE",
"-850 606 CURVE SMOOTH",
"-849 606 OFFCURVE",
"-765 607 OFFCURVE",
"-723 607 CURVE SMOOTH",
"-697 607 OFFCURVE",
"-540 607 OFFCURVE",
"-527 599 CURVE SMOOTH",
"-522 596 OFFCURVE",
"-512 589 OFFCURVE",
"-512 579 CURVE SMOOTH",
"-512 561 OFFCURVE",
"-558 567 OFFCURVE",
"-650 569 CURVE SMOOTH",
"-698 570 OFFCURVE",
"-731 571 OFFCURVE",
"-731 569 CURVE",
"-731 570 OFFCURVE",
"-704 479 OFFCURVE",
"-704 478 CURVE SMOOTH",
"-704 473 OFFCURVE",
"-715 471 OFFCURVE",
"-743 471 CURVE SMOOTH",
"-771 471 OFFCURVE",
"-776 473 OFFCURVE",
"-779 475 CURVE SMOOTH"
);
}
);
width = 0;
},
{
layerId = "9FA5911A-8C42-40B9-931A-68EA4F42645A";
paths = (
{
closed = 1;
nodes = (
"-796 484 OFFCURVE",
"-809 506 OFFCURVE",
"-821 544 CURVE SMOOTH",
"-830 572 OFFCURVE",
"-837 582 OFFCURVE",
"-844 585 CURVE SMOOTH",
"-850 589 OFFCURVE",
"-852 594 OFFCURVE",
"-852 602 CURVE SMOOTH",
"-852 603 OFFCURVE",
"-852 606 OFFCURVE",
"-850 606 CURVE SMOOTH",
"-849 606 OFFCURVE",
"-765 607 OFFCURVE",
"-723 607 CURVE SMOOTH",
"-697 607 OFFCURVE",
"-540 607 OFFCURVE",
"-527 599 CURVE SMOOTH",
"-522 596 OFFCURVE",
"-512 589 OFFCURVE",
"-512 579 CURVE SMOOTH",
"-512 561 OFFCURVE",
"-558 567 OFFCURVE",
"-650 569 CURVE SMOOTH",
"-698 570 OFFCURVE",
"-731 571 OFFCURVE",
"-731 569 CURVE",
"-731 570 OFFCURVE",
"-704 479 OFFCURVE",
"-704 478 CURVE SMOOTH",
"-704 473 OFFCURVE",
"-715 471 OFFCURVE",
"-743 471 CURVE SMOOTH",
"-771 471 OFFCURVE",
"-776 473 OFFCURVE",
"-779 475 CURVE SMOOTH"
);
}
);
width = 0;
}
);
unicode = 0078;
},
{
glyphname = z;
lastChange = "2019-02-20 02:24:53 +0000";
layers = (
{
layerId = "9BB2825E-F4CA-4CB0-B613-915E456B2047";
paths = (
{
closed = 1;
nodes = (
"-727 244 OFFCURVE",
"-740 266 OFFCURVE",
"-752 304 CURVE SMOOTH",
"-761 332 OFFCURVE",
"-768 342 OFFCURVE",
"-775 345 CURVE SMOOTH",
"-781 349 OFFCURVE",
"-783 354 OFFCURVE",
"-783 362 CURVE SMOOTH",
"-783 363 OFFCURVE",
"-783 366 OFFCURVE",
"-781 366 CURVE SMOOTH",
"-780 366 OFFCURVE",
"-696 367 OFFCURVE",
"-654 367 CURVE SMOOTH",
"-628 367 OFFCURVE",
"-471 367 OFFCURVE",
"-458 359 CURVE SMOOTH",
"-453 356 OFFCURVE",
"-443 349 OFFCURVE",
"-443 339 CURVE SMOOTH",
"-443 321 OFFCURVE",
"-489 327 OFFCURVE",
"-581 329 CURVE SMOOTH",
"-629 330 OFFCURVE",
"-662 331 OFFCURVE",
"-662 329 CURVE",
"-662 330 OFFCURVE",
"-635 239 OFFCURVE",
"-635 238 CURVE SMOOTH",
"-635 233 OFFCURVE",
"-646 231 OFFCURVE",
"-674 231 CURVE SMOOTH",
"-702 231 OFFCURVE",
"-707 233 OFFCURVE",
"-710 235 CURVE SMOOTH"
);
}
);
width = 0;
},
{
layerId = "9FA5911A-8C42-40B9-931A-68EA4F42645A";
paths = (
{
closed = 1;
nodes = (
"-727 244 OFFCURVE",
"-740 266 OFFCURVE",
"-752 304 CURVE SMOOTH",
"-761 332 OFFCURVE",
"-768 342 OFFCURVE",
"-775 345 CURVE SMOOTH",
"-781 349 OFFCURVE",
"-783 354 OFFCURVE",
"-783 362 CURVE SMOOTH",
"-783 363 OFFCURVE",
"-783 366 OFFCURVE",
"-781 366 CURVE SMOOTH",
"-780 366 OFFCURVE",
"-696 367 OFFCURVE",
"-654 367 CURVE SMOOTH",
"-628 367 OFFCURVE",
"-471 367 OFFCURVE",
"-458 359 CURVE SMOOTH",
"-453 356 OFFCURVE",
"-443 349 OFFCURVE",
"-443 339 CURVE SMOOTH",
"-443 321 OFFCURVE",
"-489 327 OFFCURVE",
"-581 329 CURVE SMOOTH",
"-629 330 OFFCURVE",
"-662 331 OFFCURVE",
"-662 329 CURVE",
"-662 330 OFFCURVE",
"-635 239 OFFCURVE",
"-635 238 CURVE SMOOTH",
"-635 233 OFFCURVE",
"-646 231 OFFCURVE",
"-674 231 CURVE SMOOTH",
"-702 231 OFFCURVE",
"-707 233 OFFCURVE",
"-710 235 CURVE SMOOTH"
);
}
);
width = 0;
}
);
unicode = 007A;
},
{
glyphname = mu;
lastChange = "2019-02-20 02:24:53 +0000";
layers = (
{
layerId = "9BB2825E-F4CA-4CB0-B613-915E456B2047";
paths = (
{
closed = 1;
nodes = (
"-466 484 OFFCURVE",
"-479 506 OFFCURVE",
"-491 544 CURVE SMOOTH",
"-500 572 OFFCURVE",
"-507 582 OFFCURVE",
"-514 585 CURVE SMOOTH",
"-520 589 OFFCURVE",
"-522 594 OFFCURVE",
"-522 602 CURVE SMOOTH",
"-522 603 OFFCURVE",
"-522 606 OFFCURVE",
"-520 606 CURVE SMOOTH",
"-519 606 OFFCURVE",
"-435 607 OFFCURVE",
"-393 607 CURVE SMOOTH",
"-367 607 OFFCURVE",
"-210 607 OFFCURVE",
"-197 599 CURVE SMOOTH",
"-192 596 OFFCURVE",
"-182 589 OFFCURVE",
"-182 579 CURVE SMOOTH",
"-182 561 OFFCURVE",
"-228 567 OFFCURVE",
"-320 569 CURVE SMOOTH",
"-368 570 OFFCURVE",
"-401 571 OFFCURVE",
"-401 569 CURVE",
"-401 570 OFFCURVE",
"-374 479 OFFCURVE",
"-374 478 CURVE SMOOTH",
"-374 473 OFFCURVE",
"-385 471 OFFCURVE",
"-413 471 CURVE SMOOTH",
"-441 471 OFFCURVE",
"-446 473 OFFCURVE",
"-449 475 CURVE SMOOTH"
);
},
{
closed = 1;
nodes = (
"-63 558 LINE SMOOTH",
"-79 563 OFFCURVE",
"-93 570 OFFCURVE",
"-95 574 CURVE SMOOTH",
"-102 584 OFFCURVE",
"-93 592 OFFCURVE",
"-80 603 CURVE SMOOTH",
"-70 612 OFFCURVE",
"-71 614 OFFCURVE",
"-59 614 CURVE SMOOTH",
"-48 614 OFFCURVE",
"-37 611 OFFCURVE",
"-19 603 CURVE SMOOTH",
"-3 596 OFFCURVE",
"-1 596 OFFCURVE",
"3 591 CURVE SMOOTH",
"7 585 OFFCURVE",
"8 585 OFFCURVE",
"7 580 CURVE SMOOTH",
"6 569 OFFCURVE",
"-17 551 OFFCURVE",
"-25 549 CURVE SMOOTH",
"-30 548 OFFCURVE",
"-32 549 OFFCURVE",
"-42 552 CURVE SMOOTH"
);
}
);
width = 0;
},
{
layerId = "9FA5911A-8C42-40B9-931A-68EA4F42645A";
paths = (
{
closed = 1;
nodes = (
"-466 484 OFFCURVE",
"-479 506 OFFCURVE",
"-491 544 CURVE SMOOTH",
"-500 572 OFFCURVE",
"-507 582 OFFCURVE",
"-514 585 CURVE SMOOTH",
"-520 589 OFFCURVE",
"-522 594 OFFCURVE",
"-522 602 CURVE SMOOTH",
"-522 603 OFFCURVE",
"-522 606 OFFCURVE",
"-520 606 CURVE SMOOTH",
"-519 606 OFFCURVE",
"-435 607 OFFCURVE",
"-393 607 CURVE SMOOTH",
"-367 607 OFFCURVE",
"-210 607 OFFCURVE",
"-197 599 CURVE SMOOTH",
"-192 596 OFFCURVE",
"-182 589 OFFCURVE",
"-182 579 CURVE SMOOTH",
"-182 561 OFFCURVE",
"-228 567 OFFCURVE",
"-320 569 CURVE SMOOTH",
"-368 570 OFFCURVE",
"-401 571 OFFCURVE",
"-401 569 CURVE",
"-401 570 OFFCURVE",
"-374 479 OFFCURVE",
"-374 478 CURVE SMOOTH",
"-374 473 OFFCURVE",
"-385 471 OFFCURVE",
"-413 471 CURVE SMOOTH",
"-441 471 OFFCURVE",
"-446 473 OFFCURVE",
"-449 475 CURVE SMOOTH"
);
},
{
closed = 1;
nodes = (
"-63 558 LINE SMOOTH",
"-79 563 OFFCURVE",
"-93 570 OFFCURVE",
"-95 574 CURVE SMOOTH",
"-102 584 OFFCURVE",
"-93 592 OFFCURVE",
"-80 603 CURVE SMOOTH",
"-70 612 OFFCURVE",
"-71 614 OFFCURVE",
"-59 614 CURVE SMOOTH",
"-48 614 OFFCURVE",
"-37 611 OFFCURVE",
"-19 603 CURVE SMOOTH",
"-3 596 OFFCURVE",
"-1 596 OFFCURVE",
"3 591 CURVE SMOOTH",
"7 585 OFFCURVE",
"8 585 OFFCURVE",
"7 580 CURVE SMOOTH",
"6 569 OFFCURVE",
"-17 551 OFFCURVE",
"-25 549 CURVE SMOOTH",
"-30 548 OFFCURVE",
"-32 549 OFFCURVE",
"-42 552 CURVE SMOOTH"
);
}
);
width = 0;
}
);
unicode = 03BC;
},
{
glyphname = backslash;
lastChange = "2019-02-20 02:24:53 +0000";
layers = (
{
layerId = "9BB2825E-F4CA-4CB0-B613-915E456B2047";
paths = (
{
closed = 1;
nodes = (
"-1052 639 OFFCURVE",
"-897 820 OFFCURVE",
"-698 820 CURVE SMOOTH",
"-505 820 OFFCURVE",
"-344 640 OFFCURVE",
"-367 448 CURVE",
"-390 617 OFFCURVE",
"-527 738 OFFCURVE",
"-698 738 CURVE SMOOTH",
"-869 738 OFFCURVE",
"-1006 617 OFFCURVE",
"-1029 448 CURVE"
);
},
{
closed = 1;
nodes = (
"-660 468 OFFCURVE",
"-675 448 OFFCURVE",
"-698 448 CURVE SMOOTH",
"-719 448 OFFCURVE",
"-739 466 OFFCURVE",
"-739 489 CURVE SMOOTH",
"-739 512 OFFCURVE",
"-721 528 OFFCURVE",
"-698 528 CURVE SMOOTH",
"-677 528 OFFCURVE",
"-660 512 OFFCURVE",
"-660 489 CURVE SMOOTH"
);
}
);
width = 0;
},
{
layerId = "9FA5911A-8C42-40B9-931A-68EA4F42645A";
paths = (
{
closed = 1;
nodes = (
"-1052 639 OFFCURVE",
"-897 820 OFFCURVE",
"-698 820 CURVE SMOOTH",
"-505 820 OFFCURVE",
"-344 640 OFFCURVE",
"-367 448 CURVE",
"-390 617 OFFCURVE",
"-527 738 OFFCURVE",
"-698 738 CURVE SMOOTH",
"-869 738 OFFCURVE",
"-1006 617 OFFCURVE",
"-1029 448 CURVE"
);
},
{
closed = 1;
nodes = (
"-660 468 OFFCURVE",
"-675 448 OFFCURVE",
"-698 448 CURVE SMOOTH",
"-719 448 OFFCURVE",
"-739 466 OFFCURVE",
"-739 489 CURVE SMOOTH",
"-739 512 OFFCURVE",
"-721 528 OFFCURVE",
"-698 528 CURVE SMOOTH",
"-677 528 OFFCURVE",
"-660 512 OFFCURVE",
"-660 489 CURVE SMOOTH"
);
}
);
width = 0;
}
);
unicode = 005C;
},
{
glyphname = comma;
lastChange = "2019-02-20 02:24:53 +0000";
layers = (
{
layerId = "9BB2825E-F4CA-4CB0-B613-915E456B2047";
paths = (
{
closed = 1;
nodes = (
"-594 235 OFFCURVE",
"-602 239 OFFCURVE",
"-605 245 CURVE SMOOTH",
"-608 250 OFFCURVE",
"-595 330 OFFCURVE",
"-595 330 CURVE",
"-626 330 OFFCURVE",
"-658 329 OFFCURVE",
"-689 329 CURVE SMOOTH",
"-781 328 OFFCURVE",
"-782 328 OFFCURVE",
"-789 333 CURVE SMOOTH",
"-801 342 OFFCURVE",
"-795 361 OFFCURVE",
"-779 372 CURVE SMOOTH",
"-776 374 OFFCURVE",
"-735 374 OFFCURVE",
"-635 374 CURVE SMOOTH",
"-498 374 OFFCURVE",
"-497 374 OFFCURVE",
"-491 368 CURVE SMOOTH",
"-485 362 OFFCURVE",
"-484 355 OFFCURVE",
"-491 345 CURVE SMOOTH",
"-500 332 OFFCURVE",
"-510 299 OFFCURVE",
"-510 279 CURVE SMOOTH",
"-510 260 OFFCURVE",
"-521 241 OFFCURVE",
"-541 232 CURVE SMOOTH",
"-552 227 OFFCURVE",
"-561 226 OFFCURVE",
"-579 230 CURVE"
);
}
);
width = 0;
},
{
layerId = "9FA5911A-8C42-40B9-931A-68EA4F42645A";
paths = (
{
closed = 1;
nodes = (
"-594 235 OFFCURVE",
"-602 239 OFFCURVE",
"-605 245 CURVE SMOOTH",
"-608 250 OFFCURVE",
"-595 330 OFFCURVE",
"-595 330 CURVE",
"-626 330 OFFCURVE",
"-658 329 OFFCURVE",
"-689 329 CURVE SMOOTH",
"-781 328 OFFCURVE",
"-782 328 OFFCURVE",
"-789 333 CURVE SMOOTH",
"-801 342 OFFCURVE",
"-795 361 OFFCURVE",
"-779 372 CURVE SMOOTH",
"-776 374 OFFCURVE",
"-735 374 OFFCURVE",
"-635 374 CURVE SMOOTH",
"-498 374 OFFCURVE",
"-497 374 OFFCURVE",
"-491 368 CURVE SMOOTH",
"-485 362 OFFCURVE",
"-484 355 OFFCURVE",
"-491 345 CURVE SMOOTH",
"-500 332 OFFCURVE",
"-510 299 OFFCURVE",
"-510 279 CURVE SMOOTH",
"-510 260 OFFCURVE",
"-521 241 OFFCURVE",
"-541 232 CURVE SMOOTH",
"-552 227 OFFCURVE",
"-561 226 OFFCURVE",
"-579 230 CURVE"
);
}
);
width = 0;
}
);
unicode = 002C;
},
{
glyphname = period;
lastChange = "2019-02-20 04:29:07 +0000";
layers = (
{
layerId = "9BB2825E-F4CA-4CB0-B613-915E456B2047";
paths = (
{
closed = 1;
nodes = (
"-610 248 OFFCURVE",
"-615 250 OFFCURVE",
"-620 255 CURVE SMOOTH",
"-624 259 OFFCURVE",
"-624 262 OFFCURVE",
"-619 290 CURVE SMOOTH",
"-616 308 OFFCURVE",
"-613 325 OFFCURVE",
"-612 327 CURVE",
"-611 333 LINE",
"-714 334 LINE SMOOTH",
"-814 335 OFFCURVE",
"-817 335 OFFCURVE",
"-823 340 CURVE",
"-831 345 OFFCURVE",
"-831 345 OFFCURVE",
"-821 400 CURVE SMOOTH",
"-814 441 OFFCURVE",
"-813 442 OFFCURVE",
"-805 452 CURVE",
"-792 465 OFFCURVE",
"-784 467 OFFCURVE",
"-754 467 CURVE SMOOTH",
"-728 467 OFFCURVE",
"-727 467 OFFCURVE",
"-722 462 CURVE SMOOTH",
"-715 455 OFFCURVE",
"-715 454 OFFCURVE",
"-725 411 CURVE",
"-731 374 LINE",
"-731 373 OFFCURVE",
"-679 372 OFFCURVE",
"-614 372 CURVE SMOOTH",
"-496 372 LINE",
"-492 366 LINE",
"-486 358 OFFCURVE",
"-486 353 OFFCURVE",
"-493 345 CURVE",
"-500 338 OFFCURVE",
"-511 315 OFFCURVE",
"-514 294 CURVE SMOOTH",
"-518 269 OFFCURVE",
"-525 261 OFFCURVE",
"-544 250 CURVE",
"-563 242 OFFCURVE",
"-568 241 OFFCURVE",
"-588 245 CURVE"
);
}
);
width = 0;
},
{
layerId = "9FA5911A-8C42-40B9-931A-68EA4F42645A";
paths = (
{
closed = 1;
nodes = (
"-610 246 OFFCURVE",
"-615 249 OFFCURVE",
"-620 254 CURVE SMOOTH",
"-624 258 OFFCURVE",
"-624 261 OFFCURVE",
"-619 289 CURVE",
"-611 332 LINE",
"-715 333 LINE SMOOTH",
"-815 334 OFFCURVE",
"-818 335 OFFCURVE",
"-824 339 CURVE SMOOTH",
"-833 345 OFFCURVE",
"-832 344 OFFCURVE",
"-822 399 CURVE SMOOTH",
"-815 440 OFFCURVE",
"-815 440 OFFCURVE",
"-806 451 CURVE SMOOTH",
"-796 463 OFFCURVE",
"-785 466 OFFCURVE",
"-755 466 CURVE SMOOTH",
"-729 466 OFFCURVE",
"-728 466 OFFCURVE",
"-723 461 CURVE SMOOTH",
"-717 455 OFFCURVE",
"-718 444 OFFCURVE",
"-732 373 CURVE",
"-562 371 OFFCURVE",
"-503 374 OFFCURVE",
"-492 363 CURVE SMOOTH",
"-486 356 OFFCURVE",
"-485 352 OFFCURVE",
"-493 344 CURVE SMOOTH",
"-500 337 OFFCURVE",
"-511 314 OFFCURVE",
"-514 293 CURVE SMOOTH",
"-518 268 OFFCURVE",
"-524 260 OFFCURVE",
"-544 249 CURVE SMOOTH",
"-553 244 OFFCURVE",
"-568 242 OFFCURVE",
"-588 244 CURVE SMOOTH"
);
}
);
width = 0;
}
);
unicode = 002E;
},
{
glyphname = slash;
lastChange = "2019-02-20 04:28:27 +0000";
layers = (
{
layerId = "9BB2825E-F4CA-4CB0-B613-915E456B2047";
paths = (
{
closed = 1;
nodes = (
"-553 243 LINE",
"-586 243 LINE",
"-616 243 OFFCURVE",
"-619 243 OFFCURVE",
"-624 246 CURVE",
"-629 249 OFFCURVE",
"-629 250 OFFCURVE",
"-629 253 CURVE",
"-628 254 OFFCURVE",
"-622 275 OFFCURVE",
"-615 297 CURVE",
"-608 320 OFFCURVE",
"-602 338 OFFCURVE",
"-602 339 CURVE",
"-602 340 OFFCURVE",
"-664 339 OFFCURVE",
"-772 337 CURVE",
"-820 336 LINE",
"-824 340 LINE",
"-826 342 OFFCURVE",
"-828 345 OFFCURVE",
"-828 346 CURVE",
"-828 347 OFFCURVE",
"-822 367 OFFCURVE",
"-815 390 CURVE",
"-808 413 OFFCURVE",
"-800 432 OFFCURVE",
"-800 434 CURVE",
"-799 437 LINE",
"-834 437 LINE",
"-854 437 OFFCURVE",
"-889 436 OFFCURVE",
"-914 435 CURVE",
"-938 434 OFFCURVE",
"-970 433 OFFCURVE",
"-988 433 CURVE",
"-1017 433 OFFCURVE",
"-1019 433 OFFCURVE",
"-1022 436 CURVE",
"-1032 446 OFFCURVE",
"-1019 463 OFFCURVE",
"-997 467 CURVE",
"-975 472 OFFCURVE",
"-916 473 OFFCURVE",
"-796 473 CURVE",
"-677 473 LINE",
"-676 470 LINE",
"-674 467 OFFCURVE",
"-674 464 OFFCURVE",
"-675 459 CURVE",
"-676 454 OFFCURVE",
"-677 452 OFFCURVE",
"-682 450 CURVE",
"-686 448 OFFCURVE",
"-691 445 OFFCURVE",
"-692 441 CURVE",
"-696 436 OFFCURVE",
"-703 424 OFFCURVE",
"-706 413 CURVE",
"-708 407 OFFCURVE",
"-711 397 OFFCURVE",
"-714 390 CURVE",
"-719 378 LINE",
"-599 378 LINE",
"-507 378 OFFCURVE",
"-478 378 OFFCURVE",
"-476 377 CURVE",
"-474 373 OFFCURVE",
"-474 363 OFFCURVE",
"-476 359 CURVE",
"-476 357 OFFCURVE",
"-479 356 OFFCURVE",
"-480 356 CURVE",
"-489 356 OFFCURVE",
"-499 342 OFFCURVE",
"-509 311 CURVE",
"-520 277 OFFCURVE",
"-532 258 OFFCURVE",
"-547 248 CURVE"
);
}
);
width = 0;
},
{
layerId = "9FA5911A-8C42-40B9-931A-68EA4F42645A";
paths = (
{
closed = 1;
nodes = (
"-556 241 OFFCURVE",
"-562 243 OFFCURVE",
"-586 243 CURVE SMOOTH",
"-616 243 OFFCURVE",
"-619 243 OFFCURVE",
"-624 246 CURVE SMOOTH",
"-633 251 OFFCURVE",
"-628 256 OFFCURVE",
"-615 297 CURVE",
"-602 339 LINE",
"-705 338 OFFCURVE",
"-815 331 OFFCURVE",
"-824 340 CURVE SMOOTH",
"-833 349 OFFCURVE",
"-824 358 OFFCURVE",
"-815 390 CURVE SMOOTH",
"-814 392 OFFCURVE",
"-799 437 OFFCURVE",
"-799 437 CURVE",
"-854 437 OFFCURVE",
"-976 433 OFFCURVE",
"-988 433 CURVE SMOOTH",
"-1017 433 OFFCURVE",
"-1019 433 OFFCURVE",
"-1022 436 CURVE SMOOTH",
"-1032 446 OFFCURVE",
"-1019 462 OFFCURVE",
"-997 467 CURVE SMOOTH",
"-975 472 OFFCURVE",
"-916 473 OFFCURVE",
"-796 473 CURVE SMOOTH",
"-756 473 OFFCURVE",
"-683 475 OFFCURVE",
"-677 470 CURVE SMOOTH",
"-671 465 OFFCURVE",
"-672 458 OFFCURVE",
"-682 450 CURVE SMOOTH",
"-697 438 OFFCURVE",
"-695 435 OFFCURVE",
"-714 390 CURVE",
"-719 378 LINE",
"-599 378 LINE",
"-507 378 OFFCURVE",
"-480 379 OFFCURVE",
"-476 375 CURVE SMOOTH",
"-473 372 OFFCURVE",
"-473 363 OFFCURVE",
"-480 356 CURVE SMOOTH",
"-487 349 OFFCURVE",
"-499 342 OFFCURVE",
"-509 311 CURVE SMOOTH",
"-520 277 OFFCURVE",
"-532 259 OFFCURVE",
"-547 248 CURVE SMOOTH"
);
}
);
width = 0;
}
);
unicode = 002F;
},
{
glyphname = approxequal;
lastChange = "2019-02-20 02:24:53 +0000";
layers = (
{
layerId = "9BB2825E-F4CA-4CB0-B613-915E456B2047";
paths = (
{
closed = 1;
nodes = (
"-796 484 OFFCURVE",
"-809 506 OFFCURVE",
"-821 544 CURVE SMOOTH",
"-830 572 OFFCURVE",
"-837 582 OFFCURVE",
"-844 585 CURVE SMOOTH",
"-850 589 OFFCURVE",
"-852 594 OFFCURVE",
"-852 602 CURVE SMOOTH",
"-852 603 OFFCURVE",
"-852 606 OFFCURVE",
"-850 606 CURVE SMOOTH",
"-849 606 OFFCURVE",
"-765 607 OFFCURVE",
"-723 607 CURVE SMOOTH",
"-697 607 OFFCURVE",
"-540 607 OFFCURVE",
"-527 599 CURVE SMOOTH",
"-522 596 OFFCURVE",
"-512 589 OFFCURVE",
"-512 579 CURVE SMOOTH",
"-512 561 OFFCURVE",
"-558 567 OFFCURVE",
"-650 569 CURVE SMOOTH",
"-698 570 OFFCURVE",
"-731 571 OFFCURVE",
"-731 569 CURVE",
"-731 570 OFFCURVE",
"-704 479 OFFCURVE",
"-704 478 CURVE SMOOTH",
"-704 473 OFFCURVE",
"-715 471 OFFCURVE",
"-743 471 CURVE SMOOTH",
"-771 471 OFFCURVE",
"-776 473 OFFCURVE",
"-779 475 CURVE SMOOTH"
);
},
{
closed = 1;
nodes = (
"-393 567 LINE SMOOTH",
"-409 572 OFFCURVE",
"-423 579 OFFCURVE",
"-425 583 CURVE SMOOTH",
"-432 593 OFFCURVE",
"-423 601 OFFCURVE",
"-410 612 CURVE SMOOTH",
"-400 621 OFFCURVE",
"-401 623 OFFCURVE",
"-389 623 CURVE SMOOTH",
"-378 623 OFFCURVE",
"-367 620 OFFCURVE",
"-349 612 CURVE SMOOTH",
"-333 605 OFFCURVE",
"-331 605 OFFCURVE",
"-327 600 CURVE SMOOTH",
"-323 594 OFFCURVE",
"-322 594 OFFCURVE",
"-323 589 CURVE SMOOTH",
"-324 578 OFFCURVE",
"-347 560 OFFCURVE",
"-355 558 CURVE SMOOTH",
"-360 557 OFFCURVE",
"-362 558 OFFCURVE",
"-372 561 CURVE SMOOTH"
);
}
);
width = 0;
},
{
layerId = "9FA5911A-8C42-40B9-931A-68EA4F42645A";
paths = (
{
closed = 1;
nodes = (
"-796 484 OFFCURVE",
"-809 506 OFFCURVE",
"-821 544 CURVE SMOOTH",
"-830 572 OFFCURVE",
"-837 582 OFFCURVE",
"-844 585 CURVE SMOOTH",
"-850 589 OFFCURVE",
"-852 594 OFFCURVE",
"-852 602 CURVE SMOOTH",
"-852 603 OFFCURVE",
"-852 606 OFFCURVE",
"-850 606 CURVE SMOOTH",
"-849 606 OFFCURVE",
"-765 607 OFFCURVE",
"-723 607 CURVE SMOOTH",
"-697 607 OFFCURVE",
"-540 607 OFFCURVE",
"-527 599 CURVE SMOOTH",
"-522 596 OFFCURVE",
"-512 589 OFFCURVE",
"-512 579 CURVE SMOOTH",
"-512 561 OFFCURVE",
"-558 567 OFFCURVE",
"-650 569 CURVE SMOOTH",
"-698 570 OFFCURVE",
"-731 571 OFFCURVE",
"-731 569 CURVE",
"-731 570 OFFCURVE",
"-704 479 OFFCURVE",
"-704 478 CURVE SMOOTH",
"-704 473 OFFCURVE",
"-715 471 OFFCURVE",
"-743 471 CURVE SMOOTH",
"-771 471 OFFCURVE",
"-776 473 OFFCURVE",
"-779 475 CURVE SMOOTH"
);
},
{
closed = 1;
nodes = (
"-393 567 LINE SMOOTH",
"-409 572 OFFCURVE",
"-423 579 OFFCURVE",
"-425 583 CURVE SMOOTH",
"-432 593 OFFCURVE",
"-423 601 OFFCURVE",
"-410 612 CURVE SMOOTH",
"-400 621 OFFCURVE",
"-401 623 OFFCURVE",
"-389 623 CURVE SMOOTH",
"-378 623 OFFCURVE",
"-367 620 OFFCURVE",
"-349 612 CURVE SMOOTH",
"-333 605 OFFCURVE",
"-331 605 OFFCURVE",
"-327 600 CURVE SMOOTH",
"-323 594 OFFCURVE",
"-322 594 OFFCURVE",
"-323 589 CURVE SMOOTH",
"-324 578 OFFCURVE",
"-347 560 OFFCURVE",
"-355 558 CURVE SMOOTH",
"-360 557 OFFCURVE",
"-362 558 OFFCURVE",
"-372 561 CURVE SMOOTH"
);
}
);
width = 0;
}
);
unicode = 2248;
},
{
glyphname = radical;
lastChange = "2019-02-20 02:24:53 +0000";
layers = (
{
layerId = "9BB2825E-F4CA-4CB0-B613-915E456B2047";
paths = (
{
closed = 1;
nodes = (
"-285 86 OFFCURVE",
"-299 106 OFFCURVE",
"-311 144 CURVE SMOOTH",
"-320 172 OFFCURVE",
"-327 182 OFFCURVE",
"-334 185 CURVE SMOOTH",
"-341 188 OFFCURVE",
"-342 194 OFFCURVE",
"-342 202 CURVE SMOOTH",
"-342 203 OFFCURVE",
"-342 206 OFFCURVE",
"-340 206 CURVE SMOOTH",
"-339 206 OFFCURVE",
"-255 207 OFFCURVE",
"-213 207 CURVE SMOOTH",
"-187 207 OFFCURVE",
"-30 207 OFFCURVE",
"-17 199 CURVE SMOOTH",
"-12 196 OFFCURVE",
"-2 189 OFFCURVE",
"-2 179 CURVE SMOOTH",
"-2 161 OFFCURVE",
"-48 167 OFFCURVE",
"-140 169 CURVE SMOOTH",
"-188 170 OFFCURVE",
"-221 171 OFFCURVE",
"-221 169 CURVE",
"-221 170 OFFCURVE",
"-194 79 OFFCURVE",
"-194 78 CURVE SMOOTH",
"-194 73 OFFCURVE",
"-205 71 OFFCURVE",
"-233 71 CURVE SMOOTH",
"-261 71 OFFCURVE",
"-266 73 OFFCURVE",
"-269 75 CURVE SMOOTH"
);
}
);
width = 0;
},
{
layerId = "9FA5911A-8C42-40B9-931A-68EA4F42645A";
paths = (
{
closed = 1;
nodes = (
"-285 86 OFFCURVE",
"-299 106 OFFCURVE",
"-311 144 CURVE SMOOTH",
"-320 172 OFFCURVE",
"-327 182 OFFCURVE",
"-334 185 CURVE SMOOTH",
"-341 188 OFFCURVE",
"-342 194 OFFCURVE",
"-342 202 CURVE SMOOTH",
"-342 203 OFFCURVE",
"-342 206 OFFCURVE",
"-340 206 CURVE SMOOTH",
"-339 206 OFFCURVE",
"-255 207 OFFCURVE",
"-213 207 CURVE SMOOTH",
"-187 207 OFFCURVE",
"-30 207 OFFCURVE",
"-17 199 CURVE SMOOTH",
"-12 196 OFFCURVE",
"-2 189 OFFCURVE",
"-2 179 CURVE SMOOTH",
"-2 161 OFFCURVE",
"-48 167 OFFCURVE",
"-140 169 CURVE SMOOTH",
"-188 170 OFFCURVE",
"-221 171 OFFCURVE",
"-221 169 CURVE",
"-221 170 OFFCURVE",
"-194 79 OFFCURVE",
"-194 78 CURVE SMOOTH",
"-194 73 OFFCURVE",
"-205 71 OFFCURVE",
"-233 71 CURVE SMOOTH",
"-261 71 OFFCURVE",
"-266 73 OFFCURVE",
"-269 75 CURVE SMOOTH"
);
}
);
width = 0;
}
);
unicode = 221A;
},
{
glyphname = bar;
lastChange = "2019-02-20 02:24:53 +0000";
layers = (
{
layerId = "9BB2825E-F4CA-4CB0-B613-915E456B2047";
paths = (
{
closed = 1;
nodes = (
"-459 575 OFFCURVE",
"-357 698 OFFCURVE",
"-179 768 CURVE SMOOTH",
"-91 803 OFFCURVE",
"6 820 OFFCURVE",
"110 820 CURVE SMOOTH",
"427 820 OFFCURVE",
"691 640 OFFCURVE",
"653 448 CURVE",
"616 617 OFFCURVE",
"390 738 OFFCURVE",
"110 738 CURVE SMOOTH",
"-172 738 OFFCURVE",
"-396 617 OFFCURVE",
"-434 448 CURVE"
);
}
);
width = 0;
},
{
layerId = "9FA5911A-8C42-40B9-931A-68EA4F42645A";
paths = (
{
closed = 1;
nodes = (
"-459 575 OFFCURVE",
"-357 698 OFFCURVE",
"-179 768 CURVE SMOOTH",
"-91 803 OFFCURVE",
"6 820 OFFCURVE",
"110 820 CURVE SMOOTH",
"427 820 OFFCURVE",
"691 640 OFFCURVE",
"653 448 CURVE",
"616 617 OFFCURVE",
"390 738 OFFCURVE",
"110 738 CURVE SMOOTH",
"-172 738 OFFCURVE",
"-396 617 OFFCURVE",
"-434 448 CURVE"
);
}
);
width = 0;
}
);
unicode = 007C;
},
{
glyphname = oligon;
lastChange = "2019-02-20 02:24:53 +0000";
layers = (
{
layerId = "9BB2825E-F4CA-4CB0-B613-915E456B2047";
paths = (
{
closed = 1;
nodes = (
"1237 -11 OFFCURVE",
"1149 -3 OFFCURVE",
"1056 3 CURVE",
"964 9 OFFCURVE",
"885 7 OFFCURVE",
"749 -3 CURVE",
"568 -16 OFFCURVE",
"239 -4 OFFCURVE",
"151 20 CURVE",
"127 26 OFFCURVE",
"88 53 OFFCURVE",
"59 83 CURVE",
"37 106 LINE",
"46 115 LINE",
"53 123 OFFCURVE",
"58 124 OFFCURVE",
"66 121 CURVE",
"72 118 OFFCURVE",
"98 113 OFFCURVE",
"123 108 CURVE",
"162 102 OFFCURVE",
"199 101 OFFCURVE",
"396 102 CURVE",
"521 102 OFFCURVE",
"717 103 OFFCURVE",
"831 103 CURVE",
"1038 104 LINE",
"1081 91 LINE",
"1166 66 OFFCURVE",
"1260 11 OFFCURVE",
"1253 -10 CURVE",
"1250 -16 OFFCURVE",
"1244 -19 OFFCURVE",
"1240 -15 CURVE"
);
}
);
width = 1284;
},
{
layerId = "9FA5911A-8C42-40B9-931A-68EA4F42645A";
paths = (
{
closed = 1;
nodes = (
"1237 -11 OFFCURVE",
"1149 -3 OFFCURVE",
"1056 3 CURVE",
"964 9 OFFCURVE",
"885 7 OFFCURVE",
"749 -3 CURVE",
"568 -16 OFFCURVE",
"239 -4 OFFCURVE",
"151 20 CURVE",
"127 26 OFFCURVE",
"88 53 OFFCURVE",
"59 83 CURVE",
"37 106 LINE",
"46 115 LINE",
"53 123 OFFCURVE",
"58 124 OFFCURVE",
"66 121 CURVE",
"72 118 OFFCURVE",
"98 113 OFFCURVE",
"123 108 CURVE",
"162 102 OFFCURVE",
"199 101 OFFCURVE",
"396 102 CURVE",
"521 102 OFFCURVE",
"717 103 OFFCURVE",
"831 103 CURVE",
"1038 104 LINE",
"1081 91 LINE",
"1166 66 OFFCURVE",
"1260 11 OFFCURVE",
"1253 -10 CURVE",
"1250 -16 OFFCURVE",
"1244 -19 OFFCURVE",
"1240 -15 CURVE"
);
}
);
width = 1284;
}
);
},
{
glyphname = jump2;
lastChange = "2019-02-20 02:24:53 +0000";
layers = (
{
layerId = "9BB2825E-F4CA-4CB0-B613-915E456B2047";
paths = (
{
closed = 1;
nodes = (
"573 183 OFFCURVE",
"567 183 OFFCURVE",
"548 186 CURVE",
"536 187 OFFCURVE",
"528 190 OFFCURVE",
"519 194 CURVE",
"499 205 OFFCURVE",
"500 209 OFFCURVE",
"481 232 CURVE",
"472 246 OFFCURVE",
"474 239 OFFCURVE",
"464 268 CURVE",
"462 274 OFFCURVE",
"459 280 OFFCURVE",
"459 281 CURVE",
"459 286 OFFCURVE",
"450 302 OFFCURVE",
"441 311 CURVE",
"431 321 OFFCURVE",
"428 329 OFFCURVE",
"431 337 CURVE",
"434 346 OFFCURVE",
"441 351 OFFCURVE",
"455 350 CURVE",
"486 350 OFFCURVE",
"530 347 OFFCURVE",
"536 346 CURVE",
"542 345 OFFCURVE",
"557 333 OFFCURVE",
"566 321 CURVE",
"568 318 OFFCURVE",
"569 317 OFFCURVE",
"571 312 CURVE",
"573 309 OFFCURVE",
"576 302 OFFCURVE",
"578 298 CURVE",
"581 292 OFFCURVE",
"587 278 OFFCURVE",
"594 265 CURVE",
"608 240 OFFCURVE",
"613 234 OFFCURVE",
"630 232 CURVE",
"635 231 OFFCURVE",
"639 230 OFFCURVE",
"644 226 CURVE",
"650 223 OFFCURVE",
"651 222 OFFCURVE",
"651 215 CURVE",
"651 207 OFFCURVE",
"647 202 OFFCURVE",
"628 192 CURVE",
"611 185 OFFCURVE",
"608 184 OFFCURVE",
"588 183 CURVE"
);
},
{
closed = 1;
nodes = (
"783 183 OFFCURVE",
"777 183 OFFCURVE",
"758 186 CURVE",
"746 187 OFFCURVE",
"738 190 OFFCURVE",
"729 194 CURVE",
"709 205 OFFCURVE",
"710 209 OFFCURVE",
"691 232 CURVE",
"682 246 OFFCURVE",
"684 239 OFFCURVE",
"674 268 CURVE",
"672 274 OFFCURVE",
"669 280 OFFCURVE",
"669 281 CURVE",
"669 286 OFFCURVE",
"660 302 OFFCURVE",
"651 311 CURVE",
"641 321 OFFCURVE",
"638 329 OFFCURVE",
"641 337 CURVE",
"644 346 OFFCURVE",
"651 351 OFFCURVE",
"665 350 CURVE",
"696 350 OFFCURVE",
"740 347 OFFCURVE",
"746 346 CURVE",
"752 345 OFFCURVE",
"767 333 OFFCURVE",
"776 321 CURVE",
"778 318 OFFCURVE",
"779 317 OFFCURVE",
"781 312 CURVE",
"783 309 OFFCURVE",
"786 302 OFFCURVE",
"788 298 CURVE",
"791 292 OFFCURVE",
"797 278 OFFCURVE",
"804 265 CURVE",
"818 240 OFFCURVE",
"823 234 OFFCURVE",
"840 232 CURVE",
"845 231 OFFCURVE",
"849 230 OFFCURVE",
"854 226 CURVE",
"860 223 OFFCURVE",
"861 222 OFFCURVE",
"861 215 CURVE",
"861 207 OFFCURVE",
"857 202 OFFCURVE",
"838 192 CURVE",
"821 185 OFFCURVE",
"818 184 OFFCURVE",
"798 183 CURVE"
);
},
{
closed = 1;
nodes = (
"1295 -3 OFFCURVE",
"1144 9 OFFCURVE",
"1080 12 CURVE",
"1040 15 OFFCURVE",
"925 12 OFFCURVE",
"799 4 CURVE",
"764 4 OFFCURVE",
"660 1 OFFCURVE",
"566 1 CURVE",
"422 -3 OFFCURVE",
"383 -3 OFFCURVE",
"332 4 CURVE",
"243 12 OFFCURVE",
"159 19 OFFCURVE",
"137 28 CURVE",
"117 31 OFFCURVE",
"86 52 OFFCURVE",
"51 83 CURVE",
"30 99 OFFCURVE",
"30 103 OFFCURVE",
"30 114 CURVE",
"30 124 OFFCURVE",
"30 124 OFFCURVE",
"40 124 CURVE",
"48 124 OFFCURVE",
"65 121 OFFCURVE",
"82 117 CURVE",
"97 114 OFFCURVE",
"127 109 OFFCURVE",
"148 106 CURVE",
"199 103 OFFCURVE",
"573 103 OFFCURVE",
"654 106 CURVE",
"733 109 OFFCURVE",
"1051 109 OFFCURVE",
"1080 106 CURVE",
"1142 96 OFFCURVE",
"1241 62 OFFCURVE",
"1292 35 CURVE",
"1307 28 OFFCURVE",
"1314 22 OFFCURVE",
"1317 12 CURVE",
"1322 -3 OFFCURVE",
"1322 -6 OFFCURVE",
"1317 -6 CURVE",
"1314 -6 OFFCURVE",
"1310 -6 OFFCURVE",
"1307 -6 CURVE"
);
}
);
width = 1351;
},
{
layerId = "9FA5911A-8C42-40B9-931A-68EA4F42645A";
paths = (
{
closed = 1;
nodes = (
"573 183 OFFCURVE",
"567 183 OFFCURVE",
"548 186 CURVE",
"536 187 OFFCURVE",
"528 190 OFFCURVE",
"519 194 CURVE",
"499 205 OFFCURVE",
"500 209 OFFCURVE",
"481 232 CURVE",
"472 246 OFFCURVE",
"474 239 OFFCURVE",
"464 268 CURVE",
"462 274 OFFCURVE",
"459 280 OFFCURVE",
"459 281 CURVE",
"459 286 OFFCURVE",
"450 302 OFFCURVE",
"441 311 CURVE",
"431 321 OFFCURVE",
"428 329 OFFCURVE",
"431 337 CURVE",
"434 346 OFFCURVE",
"441 351 OFFCURVE",
"455 350 CURVE",
"486 350 OFFCURVE",
"530 347 OFFCURVE",
"536 346 CURVE",
"542 345 OFFCURVE",
"557 333 OFFCURVE",
"566 321 CURVE",
"568 318 OFFCURVE",
"569 317 OFFCURVE",
"571 312 CURVE",
"573 309 OFFCURVE",
"576 302 OFFCURVE",
"578 298 CURVE",
"581 292 OFFCURVE",
"587 278 OFFCURVE",
"594 265 CURVE",
"608 240 OFFCURVE",
"613 234 OFFCURVE",
"630 232 CURVE",
"635 231 OFFCURVE",
"639 230 OFFCURVE",
"644 226 CURVE",
"650 223 OFFCURVE",
"651 222 OFFCURVE",
"651 215 CURVE",
"651 207 OFFCURVE",
"647 202 OFFCURVE",
"628 192 CURVE",
"611 185 OFFCURVE",
"608 184 OFFCURVE",
"588 183 CURVE"
);
},
{
closed = 1;
nodes = (
"783 183 OFFCURVE",
"777 183 OFFCURVE",
"758 186 CURVE",
"746 187 OFFCURVE",
"738 190 OFFCURVE",
"729 194 CURVE",
"709 205 OFFCURVE",
"710 209 OFFCURVE",
"691 232 CURVE",
"682 246 OFFCURVE",
"684 239 OFFCURVE",
"674 268 CURVE",
"672 274 OFFCURVE",
"669 280 OFFCURVE",
"669 281 CURVE",
"669 286 OFFCURVE",
"660 302 OFFCURVE",
"651 311 CURVE",
"641 321 OFFCURVE",
"638 329 OFFCURVE",
"641 337 CURVE",
"644 346 OFFCURVE",
"651 351 OFFCURVE",
"665 350 CURVE",
"696 350 OFFCURVE",
"740 347 OFFCURVE",
"746 346 CURVE",
"752 345 OFFCURVE",
"767 333 OFFCURVE",
"776 321 CURVE",
"778 318 OFFCURVE",
"779 317 OFFCURVE",
"781 312 CURVE",
"783 309 OFFCURVE",
"786 302 OFFCURVE",
"788 298 CURVE",
"791 292 OFFCURVE",
"797 278 OFFCURVE",
"804 265 CURVE",
"818 240 OFFCURVE",
"823 234 OFFCURVE",
"840 232 CURVE",
"845 231 OFFCURVE",
"849 230 OFFCURVE",
"854 226 CURVE",
"860 223 OFFCURVE",
"861 222 OFFCURVE",
"861 215 CURVE",
"861 207 OFFCURVE",
"857 202 OFFCURVE",
"838 192 CURVE",
"821 185 OFFCURVE",
"818 184 OFFCURVE",
"798 183 CURVE"
);
},
{
closed = 1;
nodes = (
"1295 -3 OFFCURVE",
"1144 9 OFFCURVE",
"1080 12 CURVE",
"1040 15 OFFCURVE",
"925 12 OFFCURVE",
"799 4 CURVE",
"764 4 OFFCURVE",
"660 1 OFFCURVE",
"566 1 CURVE",
"422 -3 OFFCURVE",
"383 -3 OFFCURVE",
"332 4 CURVE",
"243 12 OFFCURVE",
"159 19 OFFCURVE",
"137 28 CURVE",
"117 31 OFFCURVE",
"86 52 OFFCURVE",
"51 83 CURVE",
"30 99 OFFCURVE",
"30 103 OFFCURVE",
"30 114 CURVE",
"30 124 OFFCURVE",
"30 124 OFFCURVE",
"40 124 CURVE",
"48 124 OFFCURVE",
"65 121 OFFCURVE",
"82 117 CURVE",
"97 114 OFFCURVE",
"127 109 OFFCURVE",
"148 106 CURVE",
"199 103 OFFCURVE",
"573 103 OFFCURVE",
"654 106 CURVE",
"733 109 OFFCURVE",
"1051 109 OFFCURVE",
"1080 106 CURVE",
"1142 96 OFFCURVE",
"1241 62 OFFCURVE",
"1292 35 CURVE",
"1307 28 OFFCURVE",
"1314 22 OFFCURVE",
"1317 12 CURVE",
"1322 -3 OFFCURVE",
"1322 -6 OFFCURVE",
"1317 -6 CURVE",
"1314 -6 OFFCURVE",
"1310 -6 OFFCURVE",
"1307 -6 CURVE"
);
}
);
width = 1351;
}
);
},
{
glyphname = yporroi;
lastChange = "2019-02-20 02:24:53 +0000";
layers = (
{
layerId = "9BB2825E-F4CA-4CB0-B613-915E456B2047";
paths = (
{
closed = 1;
nodes = (
"32 -62 OFFCURVE",
"24 -42 OFFCURVE",
"69 -6 CURVE",
"79 1 OFFCURVE",
"84 13 OFFCURVE",
"89 35 CURVE",
"96 70 OFFCURVE",
"101 86 OFFCURVE",
"108 101 CURVE",
"119 122 OFFCURVE",
"127 131 OFFCURVE",
"144 137 CURVE",
"158 143 OFFCURVE",
"159 143 OFFCURVE",
"188 143 CURVE",
"214 143 OFFCURVE",
"256 139 OFFCURVE",
"265 136 CURVE",
"267 136 OFFCURVE",
"271 134 OFFCURVE",
"274 132 CURVE",
"283 126 OFFCURVE",
"280 115 OFFCURVE",
"265 96 CURVE",
"254 82 OFFCURVE",
"246 62 OFFCURVE",
"238 32 CURVE",
"234 17 OFFCURVE",
"230 3 OFFCURVE",
"229 0 CURVE",
"225 -9 OFFCURVE",
"205 -38 OFFCURVE",
"198 -44 CURVE",
"190 -52 OFFCURVE",
"174 -59 OFFCURVE",
"153 -65 CURVE",
"135 -70 OFFCURVE",
"127 -70 OFFCURVE",
"93 -67 CURVE"
);
}
);
width = 360;
},
{
layerId = "9FA5911A-8C42-40B9-931A-68EA4F42645A";
paths = (
{
closed = 1;
nodes = (
"32 -62 OFFCURVE",
"24 -42 OFFCURVE",
"69 -6 CURVE",
"79 1 OFFCURVE",
"84 13 OFFCURVE",
"89 35 CURVE",
"96 70 OFFCURVE",
"101 86 OFFCURVE",
"108 101 CURVE",
"119 122 OFFCURVE",
"127 131 OFFCURVE",
"144 137 CURVE",
"158 143 OFFCURVE",
"159 143 OFFCURVE",
"188 143 CURVE",
"214 143 OFFCURVE",
"256 139 OFFCURVE",
"265 136 CURVE",
"267 136 OFFCURVE",
"271 134 OFFCURVE",
"274 132 CURVE",
"283 126 OFFCURVE",
"280 115 OFFCURVE",
"265 96 CURVE",
"254 82 OFFCURVE",
"246 62 OFFCURVE",
"238 32 CURVE",
"234 17 OFFCURVE",
"230 3 OFFCURVE",
"229 0 CURVE",
"225 -9 OFFCURVE",
"205 -38 OFFCURVE",
"198 -44 CURVE",
"190 -52 OFFCURVE",
"174 -59 OFFCURVE",
"153 -65 CURVE",
"135 -70 OFFCURVE",
"127 -70 OFFCURVE",
"93 -67 CURVE"
);
}
);
width = 360;
}
);
},
{
glyphname = anoone;
lastChange = "2019-02-20 02:24:53 +0000";
layers = (
{
layerId = "9BB2825E-F4CA-4CB0-B613-915E456B2047";
paths = (
{
closed = 1;
nodes = (
"436 173 OFFCURVE",
"409 176 OFFCURVE",
"395 178 CURVE",
"358 188 OFFCURVE",
"359 186 OFFCURVE",
"375 204 CURVE",
"392 224 OFFCURVE",
"397 232 OFFCURVE",
"397 247 CURVE",
"396 256 OFFCURVE",
"392 266 OFFCURVE",
"386 277 CURVE",
"370 290 OFFCURVE",
"328 312 OFFCURVE",
"279 322 CURVE",
"268 325 OFFCURVE",
"257 330 OFFCURVE",
"248 331 CURVE",
"233 334 OFFCURVE",
"197 342 OFFCURVE",
"147 349 CURVE",
"124 352 OFFCURVE",
"101 358 OFFCURVE",
"88 359 CURVE",
"75 360 OFFCURVE",
"59 364 OFFCURVE",
"49 365 CURVE",
"42 365 OFFCURVE",
"33 365 OFFCURVE",
"31 366 CURVE",
"27 373 OFFCURVE",
"33 380 OFFCURVE",
"48 383 CURVE",
"70 393 OFFCURVE",
"103 395 OFFCURVE",
"168 395 CURVE",
"214 395 OFFCURVE",
"224 395 OFFCURVE",
"236 393 CURVE",
"302 381 OFFCURVE",
"393 357 OFFCURVE",
"434 334 CURVE",
"504 300 OFFCURVE",
"540 258 OFFCURVE",
"540 213 CURVE",
"540 193 OFFCURVE",
"536 183 OFFCURVE",
"529 176 CURVE",
"520 166 OFFCURVE",
"515 162 OFFCURVE",
"498 162 CURVE",
"484 161 OFFCURVE",
"477 162 OFFCURVE",
"452 168 CURVE"
);
},
{
closed = 1;
nodes = (
"1230 -11 OFFCURVE",
"1142 -3 OFFCURVE",
"1049 3 CURVE",
"957 9 OFFCURVE",
"878 7 OFFCURVE",
"742 -3 CURVE",
"561 -16 OFFCURVE",
"232 -4 OFFCURVE",
"144 20 CURVE",
"120 26 OFFCURVE",
"81 53 OFFCURVE",
"52 83 CURVE",
"30 106 LINE",
"39 115 LINE",
"46 123 OFFCURVE",
"51 124 OFFCURVE",
"59 121 CURVE",
"65 118 OFFCURVE",
"91 113 OFFCURVE",
"116 108 CURVE",
"155 102 OFFCURVE",
"192 101 OFFCURVE",
"389 102 CURVE",
"514 102 OFFCURVE",
"710 103 OFFCURVE",
"824 103 CURVE",
"1031 104 LINE",
"1074 91 LINE",
"1159 66 OFFCURVE",
"1253 11 OFFCURVE",
"1246 -10 CURVE",
"1243 -16 OFFCURVE",
"1237 -19 OFFCURVE",
"1233 -15 CURVE"
);
},
{
closed = 1;
nodes = (
"958 162 OFFCURVE",
"928 171 OFFCURVE",
"907 186 CURVE",
"894 195 OFFCURVE",
"876 230 OFFCURVE",
"863 269 CURVE",
"855 293 OFFCURVE",
"852 297 OFFCURVE",
"841 299 CURVE",
"834 301 OFFCURVE",
"831 303 OFFCURVE",
"831 308 CURVE",
"831 315 OFFCURVE",
"835 315 OFFCURVE",
"869 314 CURVE",
"928 310 OFFCURVE",
"955 305 OFFCURVE",
"972 292 CURVE",
"1001 272 OFFCURVE",
"1012 254 OFFCURVE",
"1025 208 CURVE",
"1031 188 OFFCURVE",
"1032 188 OFFCURVE",
"1058 182 CURVE",
"1075 178 OFFCURVE",
"1076 178 OFFCURVE",
"1076 174 CURVE",
"1076 170 OFFCURVE",
"1074 168 OFFCURVE",
"1064 164 CURVE",
"1052 158 LINE",
"1027 157 LINE",
"1014 157 OFFCURVE",
"999 157 OFFCURVE",
"996 158 CURVE"
);
},
{
closed = 1;
nodes = (
"730 171 OFFCURVE",
"694 186 OFFCURVE",
"681 203 CURVE",
"671 216 OFFCURVE",
"659 242 OFFCURVE",
"651 269 CURVE",
"642 294 OFFCURVE",
"642 294 OFFCURVE",
"635 298 CURVE",
"631 300 OFFCURVE",
"626 302 OFFCURVE",
"625 302 CURVE",
"623 302 OFFCURVE",
"621 303 OFFCURVE",
"619 305 CURVE",
"616 309 OFFCURVE",
"616 309 OFFCURVE",
"620 312 CURVE",
"623 315 OFFCURVE",
"626 315 OFFCURVE",
"644 314 CURVE",
"692 312 OFFCURVE",
"730 307 OFFCURVE",
"749 300 CURVE",
"759 296 OFFCURVE",
"775 283 OFFCURVE",
"784 272 CURVE",
"793 260 OFFCURVE",
"803 239 OFFCURVE",
"811 216 CURVE",
"819 193 OFFCURVE",
"820 193 OFFCURVE",
"845 187 CURVE",
"854 186 OFFCURVE",
"862 183 OFFCURVE",
"863 182 CURVE",
"865 179 OFFCURVE",
"862 175 OFFCURVE",
"851 170 CURVE",
"841 164 OFFCURVE",
"841 164 OFFCURVE",
"811 164 CURVE",
"794 164 OFFCURVE",
"776 165 OFFCURVE",
"769 165 CURVE"
);
}
);
width = 1276;
},
{
layerId = "9FA5911A-8C42-40B9-931A-68EA4F42645A";
paths = (
{
closed = 1;
nodes = (
"436 173 OFFCURVE",
"409 176 OFFCURVE",
"395 178 CURVE",
"358 188 OFFCURVE",
"359 186 OFFCURVE",
"375 204 CURVE",
"392 224 OFFCURVE",
"397 232 OFFCURVE",
"397 247 CURVE",
"396 256 OFFCURVE",
"392 266 OFFCURVE",
"386 277 CURVE",
"370 290 OFFCURVE",
"328 312 OFFCURVE",
"279 322 CURVE",
"268 325 OFFCURVE",
"257 330 OFFCURVE",
"248 331 CURVE",
"233 334 OFFCURVE",
"197 342 OFFCURVE",
"147 349 CURVE",
"124 352 OFFCURVE",
"101 358 OFFCURVE",
"88 359 CURVE",
"75 360 OFFCURVE",
"59 364 OFFCURVE",
"49 365 CURVE",
"42 365 OFFCURVE",
"33 365 OFFCURVE",
"31 366 CURVE",
"27 373 OFFCURVE",
"33 380 OFFCURVE",
"48 383 CURVE",
"70 393 OFFCURVE",
"103 395 OFFCURVE",
"168 395 CURVE",
"214 395 OFFCURVE",
"224 395 OFFCURVE",
"236 393 CURVE",
"302 381 OFFCURVE",
"393 357 OFFCURVE",
"434 334 CURVE",
"504 300 OFFCURVE",
"540 258 OFFCURVE",
"540 213 CURVE",
"540 193 OFFCURVE",
"536 183 OFFCURVE",
"529 176 CURVE",
"520 166 OFFCURVE",
"515 162 OFFCURVE",
"498 162 CURVE",
"484 161 OFFCURVE",
"477 162 OFFCURVE",
"452 168 CURVE"
);
},
{
closed = 1;
nodes = (
"1230 -11 OFFCURVE",
"1142 -3 OFFCURVE",
"1049 3 CURVE",
"957 9 OFFCURVE",
"878 7 OFFCURVE",
"742 -3 CURVE",
"561 -16 OFFCURVE",
"232 -4 OFFCURVE",
"144 20 CURVE",
"120 26 OFFCURVE",
"81 53 OFFCURVE",
"52 83 CURVE",
"30 106 LINE",
"39 115 LINE",
"46 123 OFFCURVE",
"51 124 OFFCURVE",
"59 121 CURVE",
"65 118 OFFCURVE",
"91 113 OFFCURVE",
"116 108 CURVE",
"155 102 OFFCURVE",
"192 101 OFFCURVE",
"389 102 CURVE",
"514 102 OFFCURVE",
"710 103 OFFCURVE",
"824 103 CURVE",
"1031 104 LINE",
"1074 91 LINE",
"1159 66 OFFCURVE",
"1253 11 OFFCURVE",
"1246 -10 CURVE",
"1243 -16 OFFCURVE",
"1237 -19 OFFCURVE",
"1233 -15 CURVE"
);
},
{
closed = 1;
nodes = (
"958 162 OFFCURVE",
"928 171 OFFCURVE",
"907 186 CURVE",
"894 195 OFFCURVE",
"876 230 OFFCURVE",
"863 269 CURVE",
"855 293 OFFCURVE",
"852 297 OFFCURVE",
"841 299 CURVE",
"834 301 OFFCURVE",
"831 303 OFFCURVE",
"831 308 CURVE",
"831 315 OFFCURVE",
"835 315 OFFCURVE",
"869 314 CURVE",
"928 310 OFFCURVE",
"955 305 OFFCURVE",
"972 292 CURVE",
"1001 272 OFFCURVE",
"1012 254 OFFCURVE",
"1025 208 CURVE",
"1031 188 OFFCURVE",
"1032 188 OFFCURVE",
"1058 182 CURVE",
"1075 178 OFFCURVE",
"1076 178 OFFCURVE",
"1076 174 CURVE",
"1076 170 OFFCURVE",
"1074 168 OFFCURVE",
"1064 164 CURVE",
"1052 158 LINE",
"1027 157 LINE",
"1014 157 OFFCURVE",
"999 157 OFFCURVE",
"996 158 CURVE"
);
},
{
closed = 1;
nodes = (
"730 171 OFFCURVE",
"694 186 OFFCURVE",
"681 203 CURVE",
"671 216 OFFCURVE",
"659 242 OFFCURVE",
"651 269 CURVE",
"642 294 OFFCURVE",
"642 294 OFFCURVE",
"635 298 CURVE",
"631 300 OFFCURVE",
"626 302 OFFCURVE",
"625 302 CURVE",
"623 302 OFFCURVE",
"621 303 OFFCURVE",
"619 305 CURVE",
"616 309 OFFCURVE",
"616 309 OFFCURVE",
"620 312 CURVE",
"623 315 OFFCURVE",
"626 315 OFFCURVE",
"644 314 CURVE",
"692 312 OFFCURVE",
"730 307 OFFCURVE",
"749 300 CURVE",
"759 296 OFFCURVE",
"775 283 OFFCURVE",
"784 272 CURVE",
"793 260 OFFCURVE",
"803 239 OFFCURVE",
"811 216 CURVE",
"819 193 OFFCURVE",
"820 193 OFFCURVE",
"845 187 CURVE",
"854 186 OFFCURVE",
"862 183 OFFCURVE",
"863 182 CURVE",
"865 179 OFFCURVE",
"862 175 OFFCURVE",
"851 170 CURVE",
"841 164 OFFCURVE",
"841 164 OFFCURVE",
"811 164 CURVE",
"794 164 OFFCURVE",
"776 165 OFFCURVE",
"769 165 CURVE"
);
}
);
width = 1276;
}
);
},
{
glyphname = apostrophos;
lastChange = "2019-02-20 02:24:53 +0000";
layers = (
{
layerId = "9BB2825E-F4CA-4CB0-B613-915E456B2047";
paths = (
{
closed = 1;
nodes = (
"544 -65 OFFCURVE",
"506 -58 OFFCURVE",
"506 -57 CURVE",
"505 -57 OFFCURVE",
"504 -53 OFFCURVE",
"504 -49 CURVE",
"504 -44 OFFCURVE",
"506 -40 OFFCURVE",
"520 -29 CURVE",
"529 -21 OFFCURVE",
"540 -11 OFFCURVE",
"544 -7 CURVE",
"566 23 OFFCURVE",
"535 58 OFFCURVE",
"466 82 CURVE",
"442 91 OFFCURVE",
"346 115 OFFCURVE",
"311 121 CURVE",
"272 128 OFFCURVE",
"239 133 OFFCURVE",
"183 136 CURVE",
"133 139 OFFCURVE",
"47 146 OFFCURVE",
"39 148 CURVE",
"34 149 OFFCURVE",
"29 159 OFFCURVE",
"31 162 CURVE",
"40 178 OFFCURVE",
"96 188 OFFCURVE",
"174 191 CURVE",
"207 193 OFFCURVE",
"220 192 OFFCURVE",
"307 186 CURVE",
"352 182 OFFCURVE",
"410 172 OFFCURVE",
"523 145 CURVE",
"660 114 OFFCURVE",
"744 60 OFFCURVE",
"760 -6 CURVE",
"765 -32 OFFCURVE",
"760 -57 OFFCURVE",
"744 -72 CURVE",
"720 -92 OFFCURVE",
"701 -93 OFFCURVE",
"588 -74 CURVE"
);
}
);
width = 792;
},
{
layerId = "9FA5911A-8C42-40B9-931A-68EA4F42645A";
paths = (
{
closed = 1;
nodes = (
"544 -65 OFFCURVE",
"506 -58 OFFCURVE",
"506 -57 CURVE",
"505 -57 OFFCURVE",
"504 -53 OFFCURVE",
"504 -49 CURVE",
"504 -44 OFFCURVE",
"506 -40 OFFCURVE",
"520 -29 CURVE",
"529 -21 OFFCURVE",
"540 -11 OFFCURVE",
"544 -7 CURVE",
"566 23 OFFCURVE",
"535 58 OFFCURVE",
"466 82 CURVE",
"442 91 OFFCURVE",
"346 115 OFFCURVE",
"311 121 CURVE",
"272 128 OFFCURVE",
"239 133 OFFCURVE",
"183 136 CURVE",
"133 139 OFFCURVE",
"47 146 OFFCURVE",
"39 148 CURVE",
"34 149 OFFCURVE",
"29 159 OFFCURVE",
"31 162 CURVE",
"40 178 OFFCURVE",
"96 188 OFFCURVE",
"174 191 CURVE",
"207 193 OFFCURVE",
"220 192 OFFCURVE",
"307 186 CURVE",
"352 182 OFFCURVE",
"410 172 OFFCURVE",
"523 145 CURVE",
"660 114 OFFCURVE",
"744 60 OFFCURVE",
"760 -6 CURVE",
"765 -32 OFFCURVE",
"760 -57 OFFCURVE",
"744 -72 CURVE",
"720 -92 OFFCURVE",
"701 -93 OFFCURVE",
"588 -74 CURVE"
);
}
);
width = 792;
}
);
},
{
glyphname = another;
lastChange = "2019-02-20 02:24:53 +0000";
layers = (
{
layerId = "9BB2825E-F4CA-4CB0-B613-915E456B2047";
paths = (
{
closed = 1;
nodes = (
"303 166 OFFCURVE",
"275 173 OFFCURVE",
"252 185 CURVE",
"236 193 OFFCURVE",
"216 205 OFFCURVE",
"212 211 CURVE",
"208 214 OFFCURVE",
"208 214 OFFCURVE",
"212 217 CURVE",
"214 218 OFFCURVE",
"217 220 OFFCURVE",
"220 221 CURVE",
"221 222 OFFCURVE",
"243 220 OFFCURVE",
"265 218 CURVE",
"290 216 OFFCURVE",
"311 214 OFFCURVE",
"314 214 CURVE",
"319 216 OFFCURVE",
"326 223 OFFCURVE",
"326 227 CURVE",
"326 229 OFFCURVE",
"320 243 OFFCURVE",
"312 261 CURVE",
"293 303 OFFCURVE",
"287 320 OFFCURVE",
"287 331 CURVE",
"287 341 OFFCURVE",
"290 350 OFFCURVE",
"300 357 CURVE",
"313 368 OFFCURVE",
"316 369 OFFCURVE",
"369 369 CURVE",
"431 370 OFFCURVE",
"443 368 OFFCURVE",
"450 357 CURVE",
"455 349 OFFCURVE",
"455 339 OFFCURVE",
"449 331 CURVE",
"447 326 OFFCURVE",
"445 326 OFFCURVE",
"439 326 CURVE",
"436 326 OFFCURVE",
"425 328 OFFCURVE",
"416 329 CURVE",
"408 331 OFFCURVE",
"400 334 OFFCURVE",
"399 333 CURVE",
"397 331 OFFCURVE",
"404 313 OFFCURVE",
"422 277 CURVE",
"442 237 LINE",
"442 218 LINE",
"443 201 OFFCURVE",
"443 200 OFFCURVE",
"439 192 CURVE",
"426 167 OFFCURVE",
"387 155 OFFCURVE",
"332 161 CURVE"
);
},
{
closed = 1;
nodes = (
"1230 -11 OFFCURVE",
"1142 -3 OFFCURVE",
"1049 3 CURVE",
"957 9 OFFCURVE",
"878 7 OFFCURVE",
"742 -3 CURVE",
"561 -16 OFFCURVE",
"232 -4 OFFCURVE",
"144 20 CURVE",
"120 26 OFFCURVE",
"81 53 OFFCURVE",
"52 83 CURVE",
"30 106 LINE",
"39 115 LINE",
"46 123 OFFCURVE",
"51 124 OFFCURVE",
"59 121 CURVE",
"65 118 OFFCURVE",
"91 113 OFFCURVE",
"116 108 CURVE",
"155 102 OFFCURVE",
"192 101 OFFCURVE",
"389 102 CURVE",
"514 102 OFFCURVE",
"710 103 OFFCURVE",
"824 103 CURVE",
"1031 104 LINE",
"1074 91 LINE",
"1159 66 OFFCURVE",
"1253 11 OFFCURVE",
"1246 -10 CURVE",
"1243 -16 OFFCURVE",
"1237 -19 OFFCURVE",
"1233 -15 CURVE"
);
},
{
closed = 1;
nodes = (
"958 162 OFFCURVE",
"928 171 OFFCURVE",
"907 186 CURVE",
"894 195 OFFCURVE",
"876 230 OFFCURVE",
"863 269 CURVE",
"855 293 OFFCURVE",
"852 297 OFFCURVE",
"841 299 CURVE",
"834 301 OFFCURVE",
"831 303 OFFCURVE",
"831 308 CURVE",
"831 315 OFFCURVE",
"835 315 OFFCURVE",
"869 314 CURVE",
"928 310 OFFCURVE",
"955 305 OFFCURVE",
"972 292 CURVE",
"1001 272 OFFCURVE",
"1012 254 OFFCURVE",
"1025 208 CURVE",
"1031 188 OFFCURVE",
"1032 188 OFFCURVE",
"1058 182 CURVE",
"1075 178 OFFCURVE",
"1076 178 OFFCURVE",
"1076 174 CURVE",
"1076 170 OFFCURVE",
"1074 168 OFFCURVE",
"1064 164 CURVE",
"1052 158 LINE",
"1027 157 LINE",
"1014 157 OFFCURVE",
"999 157 OFFCURVE",
"996 158 CURVE"
);
},
{
closed = 1;
nodes = (
"730 171 OFFCURVE",
"694 186 OFFCURVE",
"681 203 CURVE",
"671 216 OFFCURVE",
"659 242 OFFCURVE",
"651 269 CURVE",
"642 294 OFFCURVE",
"642 294 OFFCURVE",
"635 298 CURVE",
"631 300 OFFCURVE",
"626 302 OFFCURVE",
"625 302 CURVE",
"623 302 OFFCURVE",
"621 303 OFFCURVE",
"619 305 CURVE",
"616 309 OFFCURVE",
"616 309 OFFCURVE",
"620 312 CURVE",
"623 315 OFFCURVE",
"626 315 OFFCURVE",
"644 314 CURVE",
"692 312 OFFCURVE",
"730 307 OFFCURVE",
"749 300 CURVE",
"759 296 OFFCURVE",
"775 283 OFFCURVE",
"784 272 CURVE",
"793 260 OFFCURVE",
"803 239 OFFCURVE",
"811 216 CURVE",
"819 193 OFFCURVE",
"820 193 OFFCURVE",
"845 187 CURVE",
"854 186 OFFCURVE",
"862 183 OFFCURVE",
"863 182 CURVE",
"865 179 OFFCURVE",
"862 175 OFFCURVE",
"851 170 CURVE",
"841 164 OFFCURVE",
"841 164 OFFCURVE",
"811 164 CURVE",
"794 164 OFFCURVE",
"776 165 OFFCURVE",
"769 165 CURVE"
);
}
);
width = 1277;
},
{
layerId = "9FA5911A-8C42-40B9-931A-68EA4F42645A";
paths = (
{
closed = 1;
nodes = (
"303 166 OFFCURVE",
"275 173 OFFCURVE",
"252 185 CURVE",
"236 193 OFFCURVE",
"216 205 OFFCURVE",
"212 211 CURVE",
"208 214 OFFCURVE",
"208 214 OFFCURVE",
"212 217 CURVE",
"214 218 OFFCURVE",
"217 220 OFFCURVE",
"220 221 CURVE",
"221 222 OFFCURVE",
"243 220 OFFCURVE",
"265 218 CURVE",
"290 216 OFFCURVE",
"311 214 OFFCURVE",
"314 214 CURVE",
"319 216 OFFCURVE",
"326 223 OFFCURVE",
"326 227 CURVE",
"326 229 OFFCURVE",
"320 243 OFFCURVE",
"312 261 CURVE",
"293 303 OFFCURVE",
"287 320 OFFCURVE",
"287 331 CURVE",
"287 341 OFFCURVE",
"290 350 OFFCURVE",
"300 357 CURVE",
"313 368 OFFCURVE",
"316 369 OFFCURVE",
"369 369 CURVE",
"431 370 OFFCURVE",
"443 368 OFFCURVE",
"450 357 CURVE",
"455 349 OFFCURVE",
"455 339 OFFCURVE",
"449 331 CURVE",
"447 326 OFFCURVE",
"445 326 OFFCURVE",
"439 326 CURVE",
"436 326 OFFCURVE",
"425 328 OFFCURVE",
"416 329 CURVE",
"408 331 OFFCURVE",
"400 334 OFFCURVE",
"399 333 CURVE",
"397 331 OFFCURVE",
"404 313 OFFCURVE",
"422 277 CURVE",
"442 237 LINE",
"442 218 LINE",
"443 201 OFFCURVE",
"443 200 OFFCURVE",
"439 192 CURVE",
"426 167 OFFCURVE",
"387 155 OFFCURVE",
"332 161 CURVE"
);
},
{
closed = 1;
nodes = (
"1230 -11 OFFCURVE",
"1142 -3 OFFCURVE",
"1049 3 CURVE",
"957 9 OFFCURVE",
"878 7 OFFCURVE",
"742 -3 CURVE",
"561 -16 OFFCURVE",
"232 -4 OFFCURVE",
"144 20 CURVE",
"120 26 OFFCURVE",
"81 53 OFFCURVE",
"52 83 CURVE",
"30 106 LINE",
"39 115 LINE",
"46 123 OFFCURVE",
"51 124 OFFCURVE",
"59 121 CURVE",
"65 118 OFFCURVE",
"91 113 OFFCURVE",
"116 108 CURVE",
"155 102 OFFCURVE",
"192 101 OFFCURVE",
"389 102 CURVE",
"514 102 OFFCURVE",
"710 103 OFFCURVE",
"824 103 CURVE",
"1031 104 LINE",
"1074 91 LINE",
"1159 66 OFFCURVE",
"1253 11 OFFCURVE",
"1246 -10 CURVE",
"1243 -16 OFFCURVE",
"1237 -19 OFFCURVE",
"1233 -15 CURVE"
);
},
{
closed = 1;
nodes = (
"958 162 OFFCURVE",
"928 171 OFFCURVE",
"907 186 CURVE",
"894 195 OFFCURVE",
"876 230 OFFCURVE",
"863 269 CURVE",
"855 293 OFFCURVE",
"852 297 OFFCURVE",
"841 299 CURVE",
"834 301 OFFCURVE",
"831 303 OFFCURVE",
"831 308 CURVE",
"831 315 OFFCURVE",
"835 315 OFFCURVE",
"869 314 CURVE",
"928 310 OFFCURVE",
"955 305 OFFCURVE",
"972 292 CURVE",
"1001 272 OFFCURVE",
"1012 254 OFFCURVE",
"1025 208 CURVE",
"1031 188 OFFCURVE",
"1032 188 OFFCURVE",
"1058 182 CURVE",
"1075 178 OFFCURVE",
"1076 178 OFFCURVE",
"1076 174 CURVE",
"1076 170 OFFCURVE",
"1074 168 OFFCURVE",
"1064 164 CURVE",
"1052 158 LINE",
"1027 157 LINE",
"1014 157 OFFCURVE",
"999 157 OFFCURVE",
"996 158 CURVE"
);
},
{
closed = 1;
nodes = (
"730 171 OFFCURVE",
"694 186 OFFCURVE",
"681 203 CURVE",
"671 216 OFFCURVE",
"659 242 OFFCURVE",
"651 269 CURVE",
"642 294 OFFCURVE",
"642 294 OFFCURVE",
"635 298 CURVE",
"631 300 OFFCURVE",
"626 302 OFFCURVE",
"625 302 CURVE",
"623 302 OFFCURVE",
"621 303 OFFCURVE",
"619 305 CURVE",
"616 309 OFFCURVE",
"616 309 OFFCURVE",
"620 312 CURVE",
"623 315 OFFCURVE",
"626 315 OFFCURVE",
"644 314 CURVE",
"692 312 OFFCURVE",
"730 307 OFFCURVE",
"749 300 CURVE",
"759 296 OFFCURVE",
"775 283 OFFCURVE",
"784 272 CURVE",
"793 260 OFFCURVE",
"803 239 OFFCURVE",
"811 216 CURVE",
"819 193 OFFCURVE",
"820 193 OFFCURVE",
"845 187 CURVE",
"854 186 OFFCURVE",
"862 183 OFFCURVE",
"863 182 CURVE",
"865 179 OFFCURVE",
"862 175 OFFCURVE",
"851 170 CURVE",
"841 164 OFFCURVE",
"841 164 OFFCURVE",
"811 164 CURVE",
"794 164 OFFCURVE",
"776 165 OFFCURVE",
"769 165 CURVE"
);
}
);
width = 1277;
}
);
},
{
glyphname = kentimata;
lastChange = "2019-02-20 02:24:53 +0000";
layers = (
{
layerId = "9BB2825E-F4CA-4CB0-B613-915E456B2047";
paths = (
{
closed = 1;
nodes = (
"140 -25 OFFCURVE",
"119 -16 CURVE SMOOTH",
"96 -6 OFFCURVE",
"77 19 OFFCURVE",
"64 58 CURVE SMOOTH",
"57 78 OFFCURVE",
"51 91 OFFCURVE",
"41 101 CURVE SMOOTH",
"31 111 OFFCURVE",
"28 119 OFFCURVE",
"31 127 CURVE SMOOTH",
"35 136 OFFCURVE",
"41 140 OFFCURVE",
"55 140 CURVE SMOOTH",
"86 140 OFFCURVE",
"130 138 OFFCURVE",
"136 136 CURVE SMOOTH",
"142 134 OFFCURVE",
"159 124 OFFCURVE",
"166 111 CURVE SMOOTH",
"167 109 OFFCURVE",
"172 101 OFFCURVE",
"178 88 CURVE SMOOTH",
"181 82 OFFCURVE",
"187 68 OFFCURVE",
"194 55 CURVE SMOOTH",
"208 30 OFFCURVE",
"213 24 OFFCURVE",
"230 22 CURVE SMOOTH",
"238 21 OFFCURVE",
"251 16 OFFCURVE",
"251 5 CURVE SMOOTH",
"251 -3 OFFCURVE",
"247 -9 OFFCURVE",
"228 -18 CURVE SMOOTH",
"215 -24 OFFCURVE",
"208 -27 OFFCURVE",
"188 -27 CURVE SMOOTH",
"166 -27 OFFCURVE"
);
},
{
closed = 1;
nodes = (
"350 -25 OFFCURVE",
"329 -16 CURVE SMOOTH",
"306 -6 OFFCURVE",
"287 19 OFFCURVE",
"274 58 CURVE SMOOTH",
"267 78 OFFCURVE",
"261 91 OFFCURVE",
"251 101 CURVE SMOOTH",
"241 111 OFFCURVE",
"238 119 OFFCURVE",
"241 127 CURVE SMOOTH",
"245 136 OFFCURVE",
"251 140 OFFCURVE",
"265 140 CURVE SMOOTH",
"296 140 OFFCURVE",
"340 138 OFFCURVE",
"346 136 CURVE SMOOTH",
"352 134 OFFCURVE",
"370 124 OFFCURVE",
"376 111 CURVE SMOOTH",
"377 109 OFFCURVE",
"382 101 OFFCURVE",
"388 88 CURVE SMOOTH",
"391 82 OFFCURVE",
"397 68 OFFCURVE",
"404 55 CURVE SMOOTH",
"418 30 OFFCURVE",
"423 24 OFFCURVE",
"440 22 CURVE SMOOTH",
"448 21 OFFCURVE",
"461 16 OFFCURVE",
"461 5 CURVE SMOOTH",
"461 -3 OFFCURVE",
"456 -9 OFFCURVE",
"438 -18 CURVE SMOOTH",
"426 -24 OFFCURVE",
"418 -26 OFFCURVE",
"398 -27 CURVE SMOOTH",
"376 -28 OFFCURVE"
);
}
);
width = 491;
},
{
layerId = "9FA5911A-8C42-40B9-931A-68EA4F42645A";
paths = (
{
closed = 1;
nodes = (
"140 -25 OFFCURVE",
"119 -16 CURVE SMOOTH",
"96 -6 OFFCURVE",
"77 19 OFFCURVE",
"64 58 CURVE SMOOTH",
"57 78 OFFCURVE",
"51 91 OFFCURVE",
"41 101 CURVE SMOOTH",
"31 111 OFFCURVE",
"28 119 OFFCURVE",
"31 127 CURVE SMOOTH",
"35 136 OFFCURVE",
"41 140 OFFCURVE",
"55 140 CURVE SMOOTH",
"86 140 OFFCURVE",
"130 138 OFFCURVE",
"136 136 CURVE SMOOTH",
"142 134 OFFCURVE",
"159 124 OFFCURVE",
"166 111 CURVE SMOOTH",
"167 109 OFFCURVE",
"172 101 OFFCURVE",
"178 88 CURVE SMOOTH",
"181 82 OFFCURVE",
"187 68 OFFCURVE",
"194 55 CURVE SMOOTH",
"208 30 OFFCURVE",
"213 24 OFFCURVE",
"230 22 CURVE SMOOTH",
"238 21 OFFCURVE",
"251 16 OFFCURVE",
"251 5 CURVE SMOOTH",
"251 -3 OFFCURVE",
"247 -9 OFFCURVE",
"228 -18 CURVE SMOOTH",
"215 -24 OFFCURVE",
"208 -27 OFFCURVE",
"188 -27 CURVE SMOOTH",
"166 -27 OFFCURVE"
);
},
{
closed = 1;
nodes = (
"350 -25 OFFCURVE",
"329 -16 CURVE SMOOTH",
"306 -6 OFFCURVE",
"287 19 OFFCURVE",
"274 58 CURVE SMOOTH",
"267 78 OFFCURVE",
"261 91 OFFCURVE",
"251 101 CURVE SMOOTH",
"241 111 OFFCURVE",
"238 119 OFFCURVE",
"241 127 CURVE SMOOTH",
"245 136 OFFCURVE",
"251 140 OFFCURVE",
"265 140 CURVE SMOOTH",
"296 140 OFFCURVE",
"340 138 OFFCURVE",
"346 136 CURVE SMOOTH",
"352 134 OFFCURVE",
"370 124 OFFCURVE",
"376 111 CURVE SMOOTH",
"377 109 OFFCURVE",
"382 101 OFFCURVE",
"388 88 CURVE SMOOTH",
"391 82 OFFCURVE",
"397 68 OFFCURVE",
"404 55 CURVE SMOOTH",
"418 30 OFFCURVE",
"423 24 OFFCURVE",
"440 22 CURVE SMOOTH",
"448 21 OFFCURVE",
"461 16 OFFCURVE",
"461 5 CURVE SMOOTH",
"461 -3 OFFCURVE",
"456 -9 OFFCURVE",
"438 -18 CURVE SMOOTH",
"426 -24 OFFCURVE",
"418 -26 OFFCURVE",
"398 -27 CURVE SMOOTH",
"376 -28 OFFCURVE"
);
}
);
width = 491;
}
);
},
{
glyphname = anonew;
lastChange = "2019-02-20 02:24:53 +0000";
layers = (
{
layerId = "9BB2825E-F4CA-4CB0-B613-915E456B2047";
paths = (
{
closed = 1;
nodes = (
"1430 2 OFFCURVE",
"1396 6 OFFCURVE",
"1368 9 CURVE",
"1231 18 OFFCURVE",
"1151 20 OFFCURVE",
"1049 16 CURVE",
"932 10 OFFCURVE",
"872 9 OFFCURVE",
"710 3 CURVE",
"582 1 OFFCURVE",
"541 1 OFFCURVE",
"507 3 CURVE",
"377 15 OFFCURVE",
"287 23 OFFCURVE",
"251 31 CURVE",
"228 35 OFFCURVE",
"196 54 OFFCURVE",
"163 80 CURVE",
"142 96 OFFCURVE",
"141 98 OFFCURVE",
"141 107 CURVE",
"140 118 OFFCURVE",
"141 119 OFFCURVE",
"147 120 CURVE",
"149 120 OFFCURVE",
"166 119 OFFCURVE",
"182 114 CURVE",
"250 101 OFFCURVE",
"265 100 OFFCURVE",
"419 99 CURVE",
"500 98 OFFCURVE",
"638 99 OFFCURVE",
"738 101 CURVE",
"832 102 OFFCURVE",
"982 104 OFFCURVE",
"1069 104 CURVE",
"1212 104 OFFCURVE",
"1231 104 OFFCURVE",
"1254 100 CURVE",
"1320 88 OFFCURVE",
"1415 60 OFFCURVE",
"1466 34 CURVE",
"1484 24 OFFCURVE",
"1495 10 OFFCURVE",
"1492 1 CURVE",
"1488 -4 OFFCURVE",
"1478 -4 OFFCURVE",
"1441 1 CURVE"
);
},
{
closed = 1;
nodes = (
"1100 203 OFFCURVE",
"1094 203 OFFCURVE",
"1075 206 CURVE",
"1063 207 OFFCURVE",
"1055 210 OFFCURVE",
"1046 214 CURVE",
"1026 225 OFFCURVE",
"1027 229 OFFCURVE",
"1008 252 CURVE",
"999 266 OFFCURVE",
"1001 259 OFFCURVE",
"991 288 CURVE",
"989 294 OFFCURVE",
"986 300 OFFCURVE",
"986 301 CURVE",
"986 306 OFFCURVE",
"977 322 OFFCURVE",
"968 331 CURVE",
"958 341 OFFCURVE",
"955 349 OFFCURVE",
"958 357 CURVE",
"961 366 OFFCURVE",
"968 371 OFFCURVE",
"982 370 CURVE",
"1013 370 OFFCURVE",
"1057 367 OFFCURVE",
"1063 366 CURVE",
"1069 365 OFFCURVE",
"1084 353 OFFCURVE",
"1093 341 CURVE",
"1095 338 OFFCURVE",
"1096 337 OFFCURVE",
"1098 332 CURVE",
"1100 329 OFFCURVE",
"1103 322 OFFCURVE",
"1105 318 CURVE",
"1108 312 OFFCURVE",
"1114 298 OFFCURVE",
"1121 285 CURVE",
"1135 260 OFFCURVE",
"1140 254 OFFCURVE",
"1157 252 CURVE",
"1162 251 OFFCURVE",
"1166 250 OFFCURVE",
"1171 246 CURVE",
"1177 243 OFFCURVE",
"1178 242 OFFCURVE",
"1178 235 CURVE",
"1178 227 OFFCURVE",
"1174 222 OFFCURVE",
"1155 212 CURVE",
"1138 205 OFFCURVE",
"1135 204 OFFCURVE",
"1115 203 CURVE"
);
},
{
closed = 1;
nodes = (
"1310 203 OFFCURVE",
"1304 203 OFFCURVE",
"1285 206 CURVE",
"1273 207 OFFCURVE",
"1265 210 OFFCURVE",
"1256 214 CURVE",
"1236 225 OFFCURVE",
"1237 229 OFFCURVE",
"1218 252 CURVE",
"1209 266 OFFCURVE",
"1211 259 OFFCURVE",
"1201 288 CURVE",
"1199 294 OFFCURVE",
"1196 300 OFFCURVE",
"1196 301 CURVE",
"1196 306 OFFCURVE",
"1187 322 OFFCURVE",
"1178 331 CURVE",
"1168 341 OFFCURVE",
"1165 349 OFFCURVE",
"1168 357 CURVE",
"1171 366 OFFCURVE",
"1178 371 OFFCURVE",
"1192 370 CURVE",
"1223 370 OFFCURVE",
"1267 367 OFFCURVE",
"1273 366 CURVE",
"1279 365 OFFCURVE",
"1294 353 OFFCURVE",
"1303 341 CURVE",
"1305 338 OFFCURVE",
"1306 337 OFFCURVE",
"1308 332 CURVE",
"1310 329 OFFCURVE",
"1313 322 OFFCURVE",
"1315 318 CURVE",
"1318 312 OFFCURVE",
"1324 298 OFFCURVE",
"1331 285 CURVE",
"1345 260 OFFCURVE",
"1350 254 OFFCURVE",
"1367 252 CURVE",
"1372 251 OFFCURVE",
"1376 250 OFFCURVE",
"1381 246 CURVE",
"1387 243 OFFCURVE",
"1388 242 OFFCURVE",
"1388 235 CURVE",
"1388 227 OFFCURVE",
"1384 222 OFFCURVE",
"1365 212 CURVE",
"1348 205 OFFCURVE",
"1345 204 OFFCURVE",
"1325 203 CURVE"
);
},
{
closed = 1;
nodes = (
"260 208 OFFCURVE",
"176 229 OFFCURVE",
"96 278 CURVE",
"52 304 OFFCURVE",
"30 326 OFFCURVE",
"30 348 CURVE",
"30 365 OFFCURVE",
"40 375 OFFCURVE",
"61 382 CURVE",
"78 386 OFFCURVE",
"120 388 OFFCURVE",
"151 385 CURVE",
"214 381 OFFCURVE",
"256 367 OFFCURVE",
"290 342 CURVE",
"300 334 OFFCURVE",
"301 330 OFFCURVE",
"304 322 CURVE",
"307 310 LINE",
"296 311 LINE",
"290 312 OFFCURVE",
"265 314 OFFCURVE",
"240 316 CURVE",
"192 321 OFFCURVE",
"182 320 OFFCURVE",
"170 310 CURVE",
"163 305 OFFCURVE",
"162 302 OFFCURVE",
"168 290 CURVE",
"175 276 OFFCURVE",
"185 271 OFFCURVE",
"223 265 CURVE",
"270 257 OFFCURVE",
"300 257 OFFCURVE",
"404 267 CURVE",
"487 275 OFFCURVE",
"529 278 OFFCURVE",
"656 282 CURVE",
"719 285 OFFCURVE",
"731 284 OFFCURVE",
"764 275 CURVE",
"820 261 OFFCURVE",
"898 222 OFFCURVE",
"898 207 CURVE",
"898 204 OFFCURVE",
"820 204 OFFCURVE",
"766 208 CURVE",
"718 213 OFFCURVE",
"644 212 OFFCURVE",
"558 205 CURVE",
"506 202 OFFCURVE",
"481 202 OFFCURVE",
"383 205 CURVE"
);
}
);
width = 1522;
},
{
layerId = "9FA5911A-8C42-40B9-931A-68EA4F42645A";
paths = (
{
closed = 1;
nodes = (
"1430 2 OFFCURVE",
"1396 6 OFFCURVE",
"1368 9 CURVE",
"1231 18 OFFCURVE",
"1151 20 OFFCURVE",
"1049 16 CURVE",
"932 10 OFFCURVE",
"872 9 OFFCURVE",
"710 3 CURVE",
"582 1 OFFCURVE",
"541 1 OFFCURVE",
"507 3 CURVE",
"377 15 OFFCURVE",
"287 23 OFFCURVE",
"251 31 CURVE",
"228 35 OFFCURVE",
"196 54 OFFCURVE",
"163 80 CURVE",
"142 96 OFFCURVE",
"141 98 OFFCURVE",
"141 107 CURVE",
"140 118 OFFCURVE",
"141 119 OFFCURVE",
"147 120 CURVE",
"149 120 OFFCURVE",
"166 119 OFFCURVE",
"182 114 CURVE",
"250 101 OFFCURVE",
"265 100 OFFCURVE",
"419 99 CURVE",
"500 98 OFFCURVE",
"638 99 OFFCURVE",
"738 101 CURVE",
"832 102 OFFCURVE",
"982 104 OFFCURVE",
"1069 104 CURVE",
"1212 104 OFFCURVE",
"1231 104 OFFCURVE",
"1254 100 CURVE",
"1320 88 OFFCURVE",
"1415 60 OFFCURVE",
"1466 34 CURVE",
"1484 24 OFFCURVE",
"1495 10 OFFCURVE",
"1492 1 CURVE",
"1488 -4 OFFCURVE",
"1478 -4 OFFCURVE",
"1441 1 CURVE"
);
},
{
closed = 1;
nodes = (
"1100 203 OFFCURVE",
"1094 203 OFFCURVE",
"1075 206 CURVE",
"1063 207 OFFCURVE",
"1055 210 OFFCURVE",
"1046 214 CURVE",
"1026 225 OFFCURVE",
"1027 229 OFFCURVE",
"1008 252 CURVE",
"999 266 OFFCURVE",
"1001 259 OFFCURVE",
"991 288 CURVE",
"989 294 OFFCURVE",
"986 300 OFFCURVE",
"986 301 CURVE",
"986 306 OFFCURVE",
"977 322 OFFCURVE",
"968 331 CURVE",
"958 341 OFFCURVE",
"955 349 OFFCURVE",
"958 357 CURVE",
"961 366 OFFCURVE",
"968 371 OFFCURVE",
"982 370 CURVE",
"1013 370 OFFCURVE",
"1057 367 OFFCURVE",
"1063 366 CURVE",
"1069 365 OFFCURVE",
"1084 353 OFFCURVE",
"1093 341 CURVE",
"1095 338 OFFCURVE",
"1096 337 OFFCURVE",
"1098 332 CURVE",
"1100 329 OFFCURVE",
"1103 322 OFFCURVE",
"1105 318 CURVE",
"1108 312 OFFCURVE",
"1114 298 OFFCURVE",
"1121 285 CURVE",
"1135 260 OFFCURVE",
"1140 254 OFFCURVE",
"1157 252 CURVE",
"1162 251 OFFCURVE",
"1166 250 OFFCURVE",
"1171 246 CURVE",
"1177 243 OFFCURVE",
"1178 242 OFFCURVE",
"1178 235 CURVE",
"1178 227 OFFCURVE",
"1174 222 OFFCURVE",
"1155 212 CURVE",
"1138 205 OFFCURVE",
"1135 204 OFFCURVE",
"1115 203 CURVE"
);
},
{
closed = 1;
nodes = (
"1310 203 OFFCURVE",
"1304 203 OFFCURVE",
"1285 206 CURVE",
"1273 207 OFFCURVE",
"1265 210 OFFCURVE",
"1256 214 CURVE",
"1236 225 OFFCURVE",
"1237 229 OFFCURVE",
"1218 252 CURVE",
"1209 266 OFFCURVE",
"1211 259 OFFCURVE",
"1201 288 CURVE",
"1199 294 OFFCURVE",
"1196 300 OFFCURVE",
"1196 301 CURVE",
"1196 306 OFFCURVE",
"1187 322 OFFCURVE",
"1178 331 CURVE",
"1168 341 OFFCURVE",
"1165 349 OFFCURVE",
"1168 357 CURVE",
"1171 366 OFFCURVE",
"1178 371 OFFCURVE",
"1192 370 CURVE",
"1223 370 OFFCURVE",
"1267 367 OFFCURVE",
"1273 366 CURVE",
"1279 365 OFFCURVE",
"1294 353 OFFCURVE",
"1303 341 CURVE",
"1305 338 OFFCURVE",
"1306 337 OFFCURVE",
"1308 332 CURVE",
"1310 329 OFFCURVE",
"1313 322 OFFCURVE",
"1315 318 CURVE",
"1318 312 OFFCURVE",
"1324 298 OFFCURVE",
"1331 285 CURVE",
"1345 260 OFFCURVE",
"1350 254 OFFCURVE",
"1367 252 CURVE",
"1372 251 OFFCURVE",
"1376 250 OFFCURVE",
"1381 246 CURVE",
"1387 243 OFFCURVE",
"1388 242 OFFCURVE",
"1388 235 CURVE",
"1388 227 OFFCURVE",
"1384 222 OFFCURVE",
"1365 212 CURVE",
"1348 205 OFFCURVE",
"1345 204 OFFCURVE",
"1325 203 CURVE"
);
},
{
closed = 1;
nodes = (
"260 208 OFFCURVE",
"176 229 OFFCURVE",
"96 278 CURVE",
"52 304 OFFCURVE",
"30 326 OFFCURVE",
"30 348 CURVE",
"30 365 OFFCURVE",
"40 375 OFFCURVE",
"61 382 CURVE",
"78 386 OFFCURVE",
"120 388 OFFCURVE",
"151 385 CURVE",
"214 381 OFFCURVE",
"256 367 OFFCURVE",
"290 342 CURVE",
"300 334 OFFCURVE",
"301 330 OFFCURVE",
"304 322 CURVE",
"307 310 LINE",
"296 311 LINE",
"290 312 OFFCURVE",
"265 314 OFFCURVE",
"240 316 CURVE",
"192 321 OFFCURVE",
"182 320 OFFCURVE",
"170 310 CURVE",
"163 305 OFFCURVE",
"162 302 OFFCURVE",
"168 290 CURVE",
"175 276 OFFCURVE",
"185 271 OFFCURVE",
"223 265 CURVE",
"270 257 OFFCURVE",
"300 257 OFFCURVE",
"404 267 CURVE",
"487 275 OFFCURVE",
"529 278 OFFCURVE",
"656 282 CURVE",
"719 285 OFFCURVE",
"731 284 OFFCURVE",
"764 275 CURVE",
"820 261 OFFCURVE",
"898 222 OFFCURVE",
"898 207 CURVE",
"898 204 OFFCURVE",
"820 204 OFFCURVE",
"766 208 CURVE",
"718 213 OFFCURVE",
"644 212 OFFCURVE",
"558 205 CURVE",
"506 202 OFFCURVE",
"481 202 OFFCURVE",
"383 205 CURVE"
);
}
);
width = 1522;
}
);
},
{
glyphname = temp;
lastChange = "2019-02-20 02:24:53 +0000";
layers = (
{
layerId = "9BB2825E-F4CA-4CB0-B613-915E456B2047";
paths = (
{
closed = 1;
nodes = (
"-211 -96 OFFCURVE",
"-222 -77 OFFCURVE",
"-233 -45 CURVE SMOOTH",
"-242 -15 OFFCURVE",
"-252 -2 OFFCURVE",
"-260 -2 CURVE SMOOTH",
"-261 -2 OFFCURVE",
"-263 -1 OFFCURVE",
"-264 1 CURVE SMOOTH",
"-266 5 OFFCURVE",
"-266 14 OFFCURVE",
"-263 17 CURVE SMOOTH",
"-260 20 OFFCURVE",
"-234 19 OFFCURVE",
"-147 19 CURVE SMOOTH",
"-109 19 OFFCURVE",
"-71 19 OFFCURVE",
"-33 19 CURVE",
"-34 23 OFFCURVE",
"-35 27 OFFCURVE",
"-37 30 CURVE SMOOTH",
"-44 47 OFFCURVE",
"-50 81 OFFCURVE",
"-68 88 CURVE SMOOTH",
"-73 90 OFFCURVE",
"-74 91 OFFCURVE",
"-74 96 CURVE SMOOTH",
"-74 103 OFFCURVE",
"-76 106 OFFCURVE",
"-72 109 CURVE SMOOTH",
"-69 110 OFFCURVE",
"3 110 OFFCURVE",
"41 110 CURVE SMOOTH",
"155 110 OFFCURVE",
"211 109 OFFCURVE",
"232 104 CURVE SMOOTH",
"253 99 OFFCURVE",
"266 84 OFFCURVE",
"256 74 CURVE SMOOTH",
"253 71 OFFCURVE",
"251 71 OFFCURVE",
"224 71 CURVE SMOOTH",
"209 71 OFFCURVE",
"99 75 OFFCURVE",
"77 75 CURVE SMOOTH",
"66 75 OFFCURVE",
"55 75 OFFCURVE",
"44 75 CURVE",
"44 75 OFFCURVE",
"57 36 OFFCURVE",
"59 30 CURVE SMOOTH",
"63 16 OFFCURVE",
"71 -2 OFFCURVE",
"71 -11 CURVE SMOOTH",
"71 -15 OFFCURVE",
"67 -19 OFFCURVE",
"64 -21 CURVE SMOOTH",
"62 -22 OFFCURVE",
"33 -20 OFFCURVE",
"18 -20 CURVE SMOOTH",
"-85 -18 OFFCURVE",
"-144 -17 OFFCURVE",
"-144 -18 CURVE",
"-132 -58 LINE SMOOTH",
"-125 -79 OFFCURVE",
"-118 -99 OFFCURVE",
"-118 -100 CURVE SMOOTH",
"-118 -103 OFFCURVE",
"-118 -104 OFFCURVE",
"-123 -107 CURVE SMOOTH",
"-128 -110 OFFCURVE",
"-131 -110 OFFCURVE",
"-159 -110 CURVE SMOOTH",
"-178 -110 OFFCURVE",
"-184 -112 OFFCURVE",
"-196 -105 CURVE SMOOTH"
);
}
);
width = 0;
},
{
layerId = "9FA5911A-8C42-40B9-931A-68EA4F42645A";
paths = (
{
closed = 1;
nodes = (
"-211 -96 OFFCURVE",
"-222 -77 OFFCURVE",
"-233 -45 CURVE SMOOTH",
"-242 -15 OFFCURVE",
"-252 -2 OFFCURVE",
"-260 -2 CURVE SMOOTH",
"-261 -2 OFFCURVE",
"-263 -1 OFFCURVE",
"-264 1 CURVE SMOOTH",
"-266 5 OFFCURVE",
"-266 14 OFFCURVE",
"-263 17 CURVE SMOOTH",
"-260 20 OFFCURVE",
"-234 19 OFFCURVE",
"-147 19 CURVE SMOOTH",
"-109 19 OFFCURVE",
"-71 19 OFFCURVE",
"-33 19 CURVE",
"-34 23 OFFCURVE",
"-35 27 OFFCURVE",
"-37 30 CURVE SMOOTH",
"-44 47 OFFCURVE",
"-50 81 OFFCURVE",
"-68 88 CURVE SMOOTH",
"-73 90 OFFCURVE",
"-74 91 OFFCURVE",
"-74 96 CURVE SMOOTH",
"-74 103 OFFCURVE",
"-76 106 OFFCURVE",
"-72 109 CURVE SMOOTH",
"-69 110 OFFCURVE",
"3 110 OFFCURVE",
"41 110 CURVE SMOOTH",
"155 110 OFFCURVE",
"211 109 OFFCURVE",
"232 104 CURVE SMOOTH",
"253 99 OFFCURVE",
"266 84 OFFCURVE",
"256 74 CURVE SMOOTH",
"253 71 OFFCURVE",
"251 71 OFFCURVE",
"224 71 CURVE SMOOTH",
"209 71 OFFCURVE",
"99 75 OFFCURVE",
"77 75 CURVE SMOOTH",
"66 75 OFFCURVE",
"55 75 OFFCURVE",
"44 75 CURVE",
"44 75 OFFCURVE",
"57 36 OFFCURVE",
"59 30 CURVE SMOOTH",
"63 16 OFFCURVE",
"71 -2 OFFCURVE",
"71 -11 CURVE SMOOTH",
"71 -15 OFFCURVE",
"67 -19 OFFCURVE",
"64 -21 CURVE SMOOTH",
"62 -22 OFFCURVE",
"33 -20 OFFCURVE",
"18 -20 CURVE SMOOTH",
"-85 -18 OFFCURVE",
"-144 -17 OFFCURVE",
"-144 -18 CURVE",
"-132 -58 LINE SMOOTH",
"-125 -79 OFFCURVE",
"-118 -99 OFFCURVE",
"-118 -100 CURVE SMOOTH",
"-118 -103 OFFCURVE",
"-118 -104 OFFCURVE",
"-123 -107 CURVE SMOOTH",
"-128 -110 OFFCURVE",
"-131 -110 OFFCURVE",
"-159 -110 CURVE SMOOTH",
"-178 -110 OFFCURVE",
"-184 -112 OFFCURVE",
"-196 -105 CURVE SMOOTH"
);
}
);
width = 0;
}
);
},
{
glyphname = newGlyph;
lastChange = "2019-02-20 02:24:53 +0000";
layers = (
{
layerId = "9BB2825E-F4CA-4CB0-B613-915E456B2047";
paths = (
{
closed = 1;
nodes = (
"49 235 OFFCURVE",
"41 239 OFFCURVE",
"38 245 CURVE SMOOTH",
"35 250 OFFCURVE",
"48 330 OFFCURVE",
"48 330 CURVE",
"17 330 OFFCURVE",
"-15 329 OFFCURVE",
"-46 329 CURVE SMOOTH",
"-138 328 OFFCURVE",
"-139 328 OFFCURVE",
"-146 333 CURVE SMOOTH",
"-158 342 OFFCURVE",
"-152 361 OFFCURVE",
"-136 372 CURVE SMOOTH",
"-133 374 OFFCURVE",
"-92 374 OFFCURVE",
"8 374 CURVE SMOOTH",
"145 374 OFFCURVE",
"146 374 OFFCURVE",
"152 368 CURVE SMOOTH",
"158 362 OFFCURVE",
"159 355 OFFCURVE",
"152 345 CURVE SMOOTH",
"143 332 OFFCURVE",
"133 299 OFFCURVE",
"133 279 CURVE SMOOTH",
"133 260 OFFCURVE",
"122 241 OFFCURVE",
"102 232 CURVE SMOOTH",
"91 227 OFFCURVE",
"82 226 OFFCURVE",
"64 230 CURVE"
);
}
);
width = 600;
},
{
layerId = "9FA5911A-8C42-40B9-931A-68EA4F42645A";
paths = (
{
closed = 1;
nodes = (
"49 235 OFFCURVE",
"41 239 OFFCURVE",
"38 245 CURVE SMOOTH",
"35 250 OFFCURVE",
"48 330 OFFCURVE",
"48 330 CURVE",
"17 330 OFFCURVE",
"-15 329 OFFCURVE",
"-46 329 CURVE SMOOTH",
"-138 328 OFFCURVE",
"-139 328 OFFCURVE",
"-146 333 CURVE SMOOTH",
"-158 342 OFFCURVE",
"-152 361 OFFCURVE",
"-136 372 CURVE SMOOTH",
"-133 374 OFFCURVE",
"-92 374 OFFCURVE",
"8 374 CURVE SMOOTH",
"145 374 OFFCURVE",
"146 374 OFFCURVE",
"152 368 CURVE SMOOTH",
"158 362 OFFCURVE",
"159 355 OFFCURVE",
"152 345 CURVE SMOOTH",
"143 332 OFFCURVE",
"133 299 OFFCURVE",
"133 279 CURVE SMOOTH",
"133 260 OFFCURVE",
"122 241 OFFCURVE",
"102 232 CURVE SMOOTH",
"91 227 OFFCURVE",
"82 226 OFFCURVE",
"64 230 CURVE"
);
}
);
width = 600;
}
);
},
{
glyphname = newGlyph.001;
lastChange = "2019-02-20 02:24:53 +0000";
layers = (
{
layerId = "9BB2825E-F4CA-4CB0-B613-915E456B2047";
paths = (
{
closed = 1;
nodes = (
"1207 17 OFFCURVE",
"1069 21 OFFCURVE",
"940 16 CURVE SMOOTH",
"823 10 OFFCURVE",
"763 12 OFFCURVE",
"601 6 CURVE SMOOTH",
"473 4 OFFCURVE",
"432 5 OFFCURVE",
"398 6 CURVE SMOOTH",
"268 10 OFFCURVE",
"178 23 OFFCURVE",
"142 31 CURVE SMOOTH",
"119 36 OFFCURVE",
"87 54 OFFCURVE",
"54 80 CURVE SMOOTH",
"32 97 OFFCURVE",
"22 120 OFFCURVE",
"38 120 CURVE SMOOTH",
"40 120 OFFCURVE",
"57 117 OFFCURVE",
"73 114 CURVE SMOOTH",
"141 101 OFFCURVE",
"156 100 OFFCURVE",
"310 99 CURVE SMOOTH",
"391 98 OFFCURVE",
"529 99 OFFCURVE",
"629 101 CURVE SMOOTH",
"723 102 OFFCURVE",
"873 104 OFFCURVE",
"960 104 CURVE SMOOTH",
"1103 104 OFFCURVE",
"1122 104 OFFCURVE",
"1145 100 CURVE SMOOTH",
"1211 88 OFFCURVE",
"1306 60 OFFCURVE",
"1357 34 CURVE SMOOTH",
"1375 25 OFFCURVE",
"1386 10 OFFCURVE",
"1382 1 CURVE SMOOTH",
"1379 -5 OFFCURVE",
"1369 -4 OFFCURVE",
"1332 1 CURVE SMOOTH"
);
},
{
closed = 1;
nodes = (
"924 204 OFFCURVE",
"898 206 OFFCURVE",
"877 215 CURVE SMOOTH",
"854 225 OFFCURVE",
"836 250 OFFCURVE",
"822 289 CURVE SMOOTH",
"815 309 OFFCURVE",
"809 322 OFFCURVE",
"799 332 CURVE SMOOTH",
"789 342 OFFCURVE",
"786 350 OFFCURVE",
"789 358 CURVE",
"793 367 OFFCURVE",
"799 371 OFFCURVE",
"813 371 CURVE SMOOTH",
"844 371 OFFCURVE",
"888 369 OFFCURVE",
"894 367 CURVE SMOOTH",
"900 365 OFFCURVE",
"917 355 OFFCURVE",
"924 342 CURVE SMOOTH",
"925 340 OFFCURVE",
"929 332 OFFCURVE",
"936 319 CURVE SMOOTH",
"939 313 OFFCURVE",
"945 299 OFFCURVE",
"952 286 CURVE SMOOTH",
"965 261 OFFCURVE",
"971 255 OFFCURVE",
"988 253 CURVE SMOOTH",
"996 252 OFFCURVE",
"1009 247 OFFCURVE",
"1009 236 CURVE SMOOTH",
"1009 228 OFFCURVE",
"1005 222 OFFCURVE",
"986 213 CURVE SMOOTH",
"973 207 OFFCURVE",
"966 204 OFFCURVE",
"946 204 CURVE SMOOTH"
);
},
{
closed = 1;
nodes = (
"1134 203 OFFCURVE",
"1108 206 OFFCURVE",
"1087 215 CURVE SMOOTH",
"1064 225 OFFCURVE",
"1046 250 OFFCURVE",
"1032 289 CURVE SMOOTH",
"1025 309 OFFCURVE",
"1019 322 OFFCURVE",
"1009 332 CURVE SMOOTH",
"999 342 OFFCURVE",
"996 350 OFFCURVE",
"999 358 CURVE",
"1003 367 OFFCURVE",
"1009 371 OFFCURVE",
"1023 371 CURVE SMOOTH",
"1054 371 OFFCURVE",
"1098 369 OFFCURVE",
"1104 367 CURVE SMOOTH",
"1110 365 OFFCURVE",
"1127 355 OFFCURVE",
"1134 342 CURVE SMOOTH",
"1135 340 OFFCURVE",
"1139 332 OFFCURVE",
"1146 319 CURVE SMOOTH",
"1149 313 OFFCURVE",
"1155 299 OFFCURVE",
"1162 286 CURVE SMOOTH",
"1175 261 OFFCURVE",
"1181 255 OFFCURVE",
"1198 253 CURVE SMOOTH",
"1206 252 OFFCURVE",
"1219 247 OFFCURVE",
"1219 236 CURVE SMOOTH",
"1219 228 OFFCURVE",
"1214 222 OFFCURVE",
"1196 213 CURVE SMOOTH",
"1184 207 OFFCURVE",
"1176 205 OFFCURVE",
"1156 204 CURVE SMOOTH"
);
},
{
closed = 1;
nodes = (
"227 188 OFFCURVE",
"219 205 OFFCURVE",
"261 237 CURVE SMOOTH",
"270 244 OFFCURVE",
"275 254 OFFCURVE",
"279 274 CURVE SMOOTH",
"285 306 OFFCURVE",
"289 320 OFFCURVE",
"296 334 CURVE SMOOTH",
"305 353 OFFCURVE",
"314 360 OFFCURVE",
"329 367 CURVE SMOOTH",
"342 373 OFFCURVE",
"343 372 OFFCURVE",
"369 372 CURVE SMOOTH",
"388 372 OFFCURVE",
"435 370 OFFCURVE",
"447 362 CURVE SMOOTH",
"455 357 OFFCURVE",
"452 347 OFFCURVE",
"439 330 CURVE SMOOTH",
"429 317 OFFCURVE",
"422 299 OFFCURVE",
"414 271 CURVE SMOOTH",
"405 239 OFFCURVE",
"401 220 OFFCURVE",
"378 203 CURVE SMOOTH",
"349 182 OFFCURVE",
"320 178 OFFCURVE",
"283 182 CURVE SMOOTH"
);
}
);
width = 1413;
},
{
layerId = "9FA5911A-8C42-40B9-931A-68EA4F42645A";
paths = (
{
closed = 1;
nodes = (
"1207 17 OFFCURVE",
"1069 21 OFFCURVE",
"940 16 CURVE SMOOTH",
"823 10 OFFCURVE",
"763 12 OFFCURVE",
"601 6 CURVE SMOOTH",
"473 4 OFFCURVE",
"432 5 OFFCURVE",
"398 6 CURVE SMOOTH",
"268 10 OFFCURVE",
"178 23 OFFCURVE",
"142 31 CURVE SMOOTH",
"119 36 OFFCURVE",
"87 54 OFFCURVE",
"54 80 CURVE SMOOTH",
"32 97 OFFCURVE",
"22 120 OFFCURVE",
"38 120 CURVE SMOOTH",
"40 120 OFFCURVE",
"57 117 OFFCURVE",
"73 114 CURVE SMOOTH",
"141 101 OFFCURVE",
"156 100 OFFCURVE",
"310 99 CURVE SMOOTH",
"391 98 OFFCURVE",
"529 99 OFFCURVE",
"629 101 CURVE SMOOTH",
"723 102 OFFCURVE",
"873 104 OFFCURVE",
"960 104 CURVE SMOOTH",
"1103 104 OFFCURVE",
"1122 104 OFFCURVE",
"1145 100 CURVE SMOOTH",
"1211 88 OFFCURVE",
"1306 60 OFFCURVE",
"1357 34 CURVE SMOOTH",
"1375 25 OFFCURVE",
"1386 10 OFFCURVE",
"1382 1 CURVE SMOOTH",
"1379 -5 OFFCURVE",
"1369 -4 OFFCURVE",
"1332 1 CURVE SMOOTH"
);
},
{
closed = 1;
nodes = (
"924 204 OFFCURVE",
"898 206 OFFCURVE",
"877 215 CURVE SMOOTH",
"854 225 OFFCURVE",
"836 250 OFFCURVE",
"822 289 CURVE SMOOTH",
"815 309 OFFCURVE",
"809 322 OFFCURVE",
"799 332 CURVE SMOOTH",
"789 342 OFFCURVE",
"786 350 OFFCURVE",
"789 358 CURVE",
"793 367 OFFCURVE",
"799 371 OFFCURVE",
"813 371 CURVE SMOOTH",
"844 371 OFFCURVE",
"888 369 OFFCURVE",
"894 367 CURVE SMOOTH",
"900 365 OFFCURVE",
"917 355 OFFCURVE",
"924 342 CURVE SMOOTH",
"925 340 OFFCURVE",
"929 332 OFFCURVE",
"936 319 CURVE SMOOTH",
"939 313 OFFCURVE",
"945 299 OFFCURVE",
"952 286 CURVE SMOOTH",
"965 261 OFFCURVE",
"971 255 OFFCURVE",
"988 253 CURVE SMOOTH",
"996 252 OFFCURVE",
"1009 247 OFFCURVE",
"1009 236 CURVE SMOOTH",
"1009 228 OFFCURVE",
"1005 222 OFFCURVE",
"986 213 CURVE SMOOTH",
"973 207 OFFCURVE",
"966 204 OFFCURVE",
"946 204 CURVE SMOOTH"
);
},
{
closed = 1;
nodes = (
"1134 203 OFFCURVE",
"1108 206 OFFCURVE",
"1087 215 CURVE SMOOTH",
"1064 225 OFFCURVE",
"1046 250 OFFCURVE",
"1032 289 CURVE SMOOTH",
"1025 309 OFFCURVE",
"1019 322 OFFCURVE",
"1009 332 CURVE SMOOTH",
"999 342 OFFCURVE",
"996 350 OFFCURVE",
"999 358 CURVE",
"1003 367 OFFCURVE",
"1009 371 OFFCURVE",
"1023 371 CURVE SMOOTH",
"1054 371 OFFCURVE",
"1098 369 OFFCURVE",
"1104 367 CURVE SMOOTH",
"1110 365 OFFCURVE",
"1127 355 OFFCURVE",
"1134 342 CURVE SMOOTH",
"1135 340 OFFCURVE",
"1139 332 OFFCURVE",
"1146 319 CURVE SMOOTH",
"1149 313 OFFCURVE",
"1155 299 OFFCURVE",
"1162 286 CURVE SMOOTH",
"1175 261 OFFCURVE",
"1181 255 OFFCURVE",
"1198 253 CURVE SMOOTH",
"1206 252 OFFCURVE",
"1219 247 OFFCURVE",
"1219 236 CURVE SMOOTH",
"1219 228 OFFCURVE",
"1214 222 OFFCURVE",
"1196 213 CURVE SMOOTH",
"1184 207 OFFCURVE",
"1176 205 OFFCURVE",
"1156 204 CURVE SMOOTH"
);
},
{
closed = 1;
nodes = (
"227 188 OFFCURVE",
"219 205 OFFCURVE",
"261 237 CURVE SMOOTH",
"270 244 OFFCURVE",
"275 254 OFFCURVE",
"279 274 CURVE SMOOTH",
"285 306 OFFCURVE",
"289 320 OFFCURVE",
"296 334 CURVE SMOOTH",
"305 353 OFFCURVE",
"314 360 OFFCURVE",
"329 367 CURVE SMOOTH",
"342 373 OFFCURVE",
"343 372 OFFCURVE",
"369 372 CURVE SMOOTH",
"388 372 OFFCURVE",
"435 370 OFFCURVE",
"447 362 CURVE SMOOTH",
"455 357 OFFCURVE",
"452 347 OFFCURVE",
"439 330 CURVE SMOOTH",
"429 317 OFFCURVE",
"422 299 OFFCURVE",
"414 271 CURVE SMOOTH",
"405 239 OFFCURVE",
"401 220 OFFCURVE",
"378 203 CURVE SMOOTH",
"349 182 OFFCURVE",
"320 178 OFFCURVE",
"283 182 CURVE SMOOTH"
);
}
);
width = 1413;
}
);
},
{
glyphname = newGlyph.002;
lastChange = "2019-02-20 02:24:53 +0000";
layers = (
{
layerId = "9BB2825E-F4CA-4CB0-B613-915E456B2047";
paths = (
{
closed = 1;
nodes = (
"643 194 OFFCURVE",
"617 196 OFFCURVE",
"596 205 CURVE SMOOTH",
"573 215 OFFCURVE",
"555 240 OFFCURVE",
"541 279 CURVE SMOOTH",
"534 299 OFFCURVE",
"528 312 OFFCURVE",
"518 322 CURVE SMOOTH",
"508 332 OFFCURVE",
"505 340 OFFCURVE",
"508 348 CURVE SMOOTH",
"511 357 OFFCURVE",
"518 361 OFFCURVE",
"532 361 CURVE SMOOTH",
"563 361 OFFCURVE",
"607 359 OFFCURVE",
"613 357 CURVE SMOOTH",
"619 355 OFFCURVE",
"636 345 OFFCURVE",
"643 332 CURVE SMOOTH",
"644 330 OFFCURVE",
"649 322 OFFCURVE",
"655 309 CURVE SMOOTH",
"658 303 OFFCURVE",
"664 289 OFFCURVE",
"671 276 CURVE SMOOTH",
"685 251 OFFCURVE",
"690 245 OFFCURVE",
"707 243 CURVE SMOOTH",
"715 242 OFFCURVE",
"728 237 OFFCURVE",
"728 226 CURVE SMOOTH",
"728 218 OFFCURVE",
"724 212 OFFCURVE",
"705 203 CURVE SMOOTH",
"692 197 OFFCURVE",
"685 194 OFFCURVE",
"665 194 CURVE SMOOTH"
);
},
{
closed = 1;
nodes = (
"1294 -6 OFFCURVE",
"1144 9 OFFCURVE",
"1080 12 CURVE SMOOTH",
"1040 15 OFFCURVE",
"925 11 OFFCURVE",
"799 4 CURVE SMOOTH",
"725 0 OFFCURVE",
"413 2 OFFCURVE",
"332 6 CURVE SMOOTH",
"243 10 OFFCURVE",
"160 22 OFFCURVE",
"137 28 CURVE SMOOTH",
"117 33 OFFCURVE",
"87 52 OFFCURVE",
"51 83 CURVE SMOOTH",
"31 100 OFFCURVE",
"30 103 OFFCURVE",
"30 114 CURVE SMOOTH",
"30 129 OFFCURVE",
"43 125 OFFCURVE",
"82 117 CURVE SMOOTH",
"97 114 OFFCURVE",
"127 107 OFFCURVE",
"148 106 CURVE SMOOTH",
"199 104 OFFCURVE",
"573 103 OFFCURVE",
"654 106 CURVE SMOOTH",
"733 109 OFFCURVE",
"1051 112 OFFCURVE",
"1080 106 CURVE SMOOTH",
"1142 94 OFFCURVE",
"1241 63 OFFCURVE",
"1292 35 CURVE SMOOTH",
"1305 28 OFFCURVE",
"1314 22 OFFCURVE",
"1317 12 CURVE SMOOTH",
"1323 -7 OFFCURVE",
"1321 -6 OFFCURVE",
"1307 -6 CURVE SMOOTH"
);
}
);
width = 1350;
},
{
layerId = "9FA5911A-8C42-40B9-931A-68EA4F42645A";
paths = (
{
closed = 1;
nodes = (
"643 194 OFFCURVE",
"617 196 OFFCURVE",
"596 205 CURVE SMOOTH",
"573 215 OFFCURVE",
"555 240 OFFCURVE",
"541 279 CURVE SMOOTH",
"534 299 OFFCURVE",
"528 312 OFFCURVE",
"518 322 CURVE SMOOTH",
"508 332 OFFCURVE",
"505 340 OFFCURVE",
"508 348 CURVE SMOOTH",
"511 357 OFFCURVE",
"518 361 OFFCURVE",
"532 361 CURVE SMOOTH",
"563 361 OFFCURVE",
"607 359 OFFCURVE",
"613 357 CURVE SMOOTH",
"619 355 OFFCURVE",
"636 345 OFFCURVE",
"643 332 CURVE SMOOTH",
"644 330 OFFCURVE",
"649 322 OFFCURVE",
"655 309 CURVE SMOOTH",
"658 303 OFFCURVE",
"664 289 OFFCURVE",
"671 276 CURVE SMOOTH",
"685 251 OFFCURVE",
"690 245 OFFCURVE",
"707 243 CURVE SMOOTH",
"715 242 OFFCURVE",
"728 237 OFFCURVE",
"728 226 CURVE SMOOTH",
"728 218 OFFCURVE",
"724 212 OFFCURVE",
"705 203 CURVE SMOOTH",
"692 197 OFFCURVE",
"685 194 OFFCURVE",
"665 194 CURVE SMOOTH"
);
},
{
closed = 1;
nodes = (
"1294 -6 OFFCURVE",
"1144 9 OFFCURVE",
"1080 12 CURVE SMOOTH",
"1040 15 OFFCURVE",
"925 11 OFFCURVE",
"799 4 CURVE SMOOTH",
"725 0 OFFCURVE",
"413 2 OFFCURVE",
"332 6 CURVE SMOOTH",
"243 10 OFFCURVE",
"160 22 OFFCURVE",
"137 28 CURVE SMOOTH",
"117 33 OFFCURVE",
"87 52 OFFCURVE",
"51 83 CURVE SMOOTH",
"31 100 OFFCURVE",
"30 103 OFFCURVE",
"30 114 CURVE SMOOTH",
"30 129 OFFCURVE",
"43 125 OFFCURVE",
"82 117 CURVE SMOOTH",
"97 114 OFFCURVE",
"127 107 OFFCURVE",
"148 106 CURVE SMOOTH",
"199 104 OFFCURVE",
"573 103 OFFCURVE",
"654 106 CURVE SMOOTH",
"733 109 OFFCURVE",
"1051 112 OFFCURVE",
"1080 106 CURVE SMOOTH",
"1142 94 OFFCURVE",
"1241 63 OFFCURVE",
"1292 35 CURVE SMOOTH",
"1305 28 OFFCURVE",
"1314 22 OFFCURVE",
"1317 12 CURVE SMOOTH",
"1323 -7 OFFCURVE",
"1321 -6 OFFCURVE",
"1307 -6 CURVE SMOOTH"
);
}
);
width = 1350;
}
);
},
{
glyphname = newGlyph.003;
lastChange = "2019-02-20 02:24:53 +0000";
layers = (
{
layerId = "9BB2825E-F4CA-4CB0-B613-915E456B2047";
paths = (
{
closed = 1;
nodes = (
"529 -14 OFFCURVE",
"504 -14 OFFCURVE",
"504 1 CURVE SMOOTH",
"504 12 OFFCURVE",
"530 27 OFFCURVE",
"544 43 CURVE SMOOTH",
"569 71 OFFCURVE",
"535 108 OFFCURVE",
"466 132 CURVE SMOOTH",
"397 156 OFFCURVE",
"270 181 OFFCURVE",
"183 186 CURVE SMOOTH",
"133 189 OFFCURVE",
"47 195 OFFCURVE",
"39 198 CURVE SMOOTH",
"31 201 OFFCURVE",
"28 207 OFFCURVE",
"31 212 CURVE SMOOTH",
"40 227 OFFCURVE",
"96 238 OFFCURVE",
"174 241 CURVE SMOOTH",
"278 245 OFFCURVE",
"395 227 OFFCURVE",
"523 195 CURVE SMOOTH",
"660 161 OFFCURVE",
"747 111 OFFCURVE",
"760 44 CURVE SMOOTH",
"765 18 OFFCURVE",
"761 -8 OFFCURVE",
"744 -22 CURVE SMOOTH",
"720 -41 OFFCURVE",
"701 -43 OFFCURVE",
"588 -24 CURVE SMOOTH"
);
},
{
closed = 1;
nodes = (
"1369 -264 OFFCURVE",
"1344 -264 OFFCURVE",
"1344 -249 CURVE SMOOTH",
"1344 -238 OFFCURVE",
"1370 -223 OFFCURVE",
"1384 -207 CURVE SMOOTH",
"1409 -179 OFFCURVE",
"1375 -142 OFFCURVE",
"1306 -118 CURVE SMOOTH",
"1237 -94 OFFCURVE",
"1110 -69 OFFCURVE",
"1023 -64 CURVE SMOOTH",
"973 -61 OFFCURVE",
"887 -55 OFFCURVE",
"879 -52 CURVE SMOOTH",
"871 -49 OFFCURVE",
"868 -43 OFFCURVE",
"871 -38 CURVE SMOOTH",
"880 -23 OFFCURVE",
"936 -12 OFFCURVE",
"1014 -9 CURVE SMOOTH",
"1118 -5 OFFCURVE",
"1235 -23 OFFCURVE",
"1363 -55 CURVE SMOOTH",
"1500 -89 OFFCURVE",
"1587 -139 OFFCURVE",
"1600 -206 CURVE SMOOTH",
"1605 -232 OFFCURVE",
"1601 -258 OFFCURVE",
"1584 -272 CURVE SMOOTH",
"1560 -291 OFFCURVE",
"1541 -293 OFFCURVE",
"1428 -274 CURVE SMOOTH"
);
}
);
width = 1632;
},
{
layerId = "9FA5911A-8C42-40B9-931A-68EA4F42645A";
paths = (
{
closed = 1;
nodes = (
"529 -14 OFFCURVE",
"504 -14 OFFCURVE",
"504 1 CURVE SMOOTH",
"504 12 OFFCURVE",
"530 27 OFFCURVE",
"544 43 CURVE SMOOTH",
"569 71 OFFCURVE",
"535 108 OFFCURVE",
"466 132 CURVE SMOOTH",
"397 156 OFFCURVE",
"270 181 OFFCURVE",
"183 186 CURVE SMOOTH",
"133 189 OFFCURVE",
"47 195 OFFCURVE",
"39 198 CURVE SMOOTH",
"31 201 OFFCURVE",
"28 207 OFFCURVE",
"31 212 CURVE SMOOTH",
"40 227 OFFCURVE",
"96 238 OFFCURVE",
"174 241 CURVE SMOOTH",
"278 245 OFFCURVE",
"395 227 OFFCURVE",
"523 195 CURVE SMOOTH",
"660 161 OFFCURVE",
"747 111 OFFCURVE",
"760 44 CURVE SMOOTH",
"765 18 OFFCURVE",
"761 -8 OFFCURVE",
"744 -22 CURVE SMOOTH",
"720 -41 OFFCURVE",
"701 -43 OFFCURVE",
"588 -24 CURVE SMOOTH"
);
},
{
closed = 1;
nodes = (
"1369 -264 OFFCURVE",
"1344 -264 OFFCURVE",
"1344 -249 CURVE SMOOTH",
"1344 -238 OFFCURVE",
"1370 -223 OFFCURVE",
"1384 -207 CURVE SMOOTH",
"1409 -179 OFFCURVE",
"1375 -142 OFFCURVE",
"1306 -118 CURVE SMOOTH",
"1237 -94 OFFCURVE",
"1110 -69 OFFCURVE",
"1023 -64 CURVE SMOOTH",
"973 -61 OFFCURVE",
"887 -55 OFFCURVE",
"879 -52 CURVE SMOOTH",
"871 -49 OFFCURVE",
"868 -43 OFFCURVE",
"871 -38 CURVE SMOOTH",
"880 -23 OFFCURVE",
"936 -12 OFFCURVE",
"1014 -9 CURVE SMOOTH",
"1118 -5 OFFCURVE",
"1235 -23 OFFCURVE",
"1363 -55 CURVE SMOOTH",
"1500 -89 OFFCURVE",
"1587 -139 OFFCURVE",
"1600 -206 CURVE SMOOTH",
"1605 -232 OFFCURVE",
"1601 -258 OFFCURVE",
"1584 -272 CURVE SMOOTH",
"1560 -291 OFFCURVE",
"1541 -293 OFFCURVE",
"1428 -274 CURVE SMOOTH"
);
}
);
width = 1632;
}
);
},
{
glyphname = stacked;
lastChange = "2019-02-20 02:24:53 +0000";
layers = (
{
layerId = "9BB2825E-F4CA-4CB0-B613-915E456B2047";
paths = (
{
closed = 1;
nodes = (
"1040 1 OFFCURVE",
"970 5 OFFCURVE",
"870 1 CURVE SMOOTH",
"817 -2 OFFCURVE",
"694 -4 OFFCURVE",
"599 -4 CURVE SMOOTH",
"425 -4 OFFCURVE",
"309 -3 OFFCURVE",
"188 54 CURVE SMOOTH",
"89 99 OFFCURVE",
"30 150 OFFCURVE",
"30 188 CURVE SMOOTH",
"30 227 OFFCURVE",
"59 238 OFFCURVE",
"158 238 CURVE SMOOTH",
"237 237 OFFCURVE",
"274 230 OFFCURVE",
"327 205 CURVE SMOOTH",
"363 189 OFFCURVE",
"415 159 OFFCURVE",
"407 147 CURVE SMOOTH",
"397 133 OFFCURVE",
"379 141 OFFCURVE",
"283 144 CURVE SMOOTH",
"170 147 OFFCURVE",
"182 97 OFFCURVE",
"291 75 CURVE SMOOTH",
"353 62 OFFCURVE",
"386 63 OFFCURVE",
"546 79 CURVE SMOOTH",
"846 108 OFFCURVE",
"984 121 OFFCURVE",
"1129 52 CURVE SMOOTH",
"1185 25 OFFCURVE",
"1219 -4 OFFCURVE",
"1215 -16 CURVE SMOOTH",
"1212 -24 OFFCURVE",
"1210 -24 OFFCURVE",
"1156 -17 CURVE SMOOTH"
);
},
{
closed = 1;
nodes = (
"1329 -334 OFFCURVE",
"1306 -334 OFFCURVE",
"1306 -321 CURVE SMOOTH",
"1306 -311 OFFCURVE",
"1330 -297 OFFCURVE",
"1342 -283 CURVE SMOOTH",
"1365 -257 OFFCURVE",
"1334 -224 OFFCURVE",
"1271 -202 CURVE SMOOTH",
"1209 -180 OFFCURVE",
"1094 -157 OFFCURVE",
"1015 -153 CURVE SMOOTH",
"969 -150 OFFCURVE",
"891 -145 OFFCURVE",
"884 -142 CURVE SMOOTH",
"877 -139 OFFCURVE",
"874 -134 OFFCURVE",
"877 -129 CURVE SMOOTH",
"885 -116 OFFCURVE",
"936 -106 OFFCURVE",
"1007 -103 CURVE SMOOTH",
"1101 -99 OFFCURVE",
"1207 -116 OFFCURVE",
"1323 -145 CURVE SMOOTH",
"1447 -175 OFFCURVE",
"1526 -221 OFFCURVE",
"1538 -282 CURVE SMOOTH",
"1543 -305 OFFCURVE",
"1539 -329 OFFCURVE",
"1524 -341 CURVE SMOOTH",
"1502 -359 OFFCURVE",
"1485 -361 OFFCURVE",
"1382 -343 CURVE SMOOTH"
);
}
);
width = 1490;
},
{
layerId = "9FA5911A-8C42-40B9-931A-68EA4F42645A";
paths = (
{
closed = 1;
nodes = (
"1040 1 OFFCURVE",
"970 5 OFFCURVE",
"870 1 CURVE SMOOTH",
"817 -2 OFFCURVE",
"694 -4 OFFCURVE",
"599 -4 CURVE SMOOTH",
"425 -4 OFFCURVE",
"309 -3 OFFCURVE",
"188 54 CURVE SMOOTH",
"89 99 OFFCURVE",
"30 150 OFFCURVE",
"30 188 CURVE SMOOTH",
"30 227 OFFCURVE",
"59 238 OFFCURVE",
"158 238 CURVE SMOOTH",
"237 237 OFFCURVE",
"274 230 OFFCURVE",
"327 205 CURVE SMOOTH",
"363 189 OFFCURVE",
"415 159 OFFCURVE",
"407 147 CURVE SMOOTH",
"397 133 OFFCURVE",
"379 141 OFFCURVE",
"283 144 CURVE SMOOTH",
"170 147 OFFCURVE",
"182 97 OFFCURVE",
"291 75 CURVE SMOOTH",
"353 62 OFFCURVE",
"386 63 OFFCURVE",
"546 79 CURVE SMOOTH",
"846 108 OFFCURVE",
"984 121 OFFCURVE",
"1129 52 CURVE SMOOTH",
"1185 25 OFFCURVE",
"1219 -4 OFFCURVE",
"1215 -16 CURVE SMOOTH",
"1212 -24 OFFCURVE",
"1210 -24 OFFCURVE",
"1156 -17 CURVE SMOOTH"
);
},
{
closed = 1;
nodes = (
"1329 -334 OFFCURVE",
"1306 -334 OFFCURVE",
"1306 -321 CURVE SMOOTH",
"1306 -311 OFFCURVE",
"1330 -297 OFFCURVE",
"1342 -283 CURVE SMOOTH",
"1365 -257 OFFCURVE",
"1334 -224 OFFCURVE",
"1271 -202 CURVE SMOOTH",
"1209 -180 OFFCURVE",
"1094 -157 OFFCURVE",
"1015 -153 CURVE SMOOTH",
"969 -150 OFFCURVE",
"891 -145 OFFCURVE",
"884 -142 CURVE SMOOTH",
"877 -139 OFFCURVE",
"874 -134 OFFCURVE",
"877 -129 CURVE SMOOTH",
"885 -116 OFFCURVE",
"936 -106 OFFCURVE",
"1007 -103 CURVE SMOOTH",
"1101 -99 OFFCURVE",
"1207 -116 OFFCURVE",
"1323 -145 CURVE SMOOTH",
"1447 -175 OFFCURVE",
"1526 -221 OFFCURVE",
"1538 -282 CURVE SMOOTH",
"1543 -305 OFFCURVE",
"1539 -329 OFFCURVE",
"1524 -341 CURVE SMOOTH",
"1502 -359 OFFCURVE",
"1485 -361 OFFCURVE",
"1382 -343 CURVE SMOOTH"
);
}
);
width = 1490;
}
);
},
{
glyphname = newGlyph.004;
lastChange = "2019-02-20 02:49:29 +0000";
layers = (
{
layerId = "9BB2825E-F4CA-4CB0-B613-915E456B2047";
paths = (
{
closed = 1;
nodes = (
"49 248 OFFCURVE",
"44 250 OFFCURVE",
"39 255 CURVE SMOOTH",
"35 259 OFFCURVE",
"35 262 OFFCURVE",
"40 290 CURVE SMOOTH",
"43 308 OFFCURVE",
"46 325 OFFCURVE",
"47 327 CURVE",
"48 333 LINE",
"-56 334 LINE SMOOTH",
"-156 335 OFFCURVE",
"-159 335 OFFCURVE",
"-165 340 CURVE",
"-173 345 OFFCURVE",
"-173 345 OFFCURVE",
"-163 400 CURVE SMOOTH",
"-156 441 OFFCURVE",
"-155 442 OFFCURVE",
"-147 452 CURVE",
"-134 465 OFFCURVE",
"-126 467 OFFCURVE",
"-96 467 CURVE SMOOTH",
"-70 467 OFFCURVE",
"-69 467 OFFCURVE",
"-64 462 CURVE SMOOTH",
"-57 455 OFFCURVE",
"-57 454 OFFCURVE",
"-67 411 CURVE",
"-73 374 LINE",
"-73 373 OFFCURVE",
"-21 372 OFFCURVE",
"45 372 CURVE SMOOTH",
"163 372 LINE",
"167 366 LINE",
"173 358 OFFCURVE",
"173 353 OFFCURVE",
"166 345 CURVE",
"159 338 OFFCURVE",
"148 315 OFFCURVE",
"145 294 CURVE SMOOTH",
"141 269 OFFCURVE",
"134 261 OFFCURVE",
"115 250 CURVE",
"96 242 OFFCURVE",
"91 241 OFFCURVE",
"71 245 CURVE"
);
}
